URWGothicL-Demi.ufo
<glyph name="quotedbl" format="1">
  <advance width="360"/>
  <unicode hex="0022"/>
  <outline>
    <contour>
      <point x="283" y="513" type="line"/>
      <point x="283" y="739" type="line"/>
      <point x="207" y="739" type="line"/>
      <point x="207" y="513" type="line"/>
    </contour>
    <contour>
      <point x="150" y="513" type="line"/>
      <point x="150" y="739" type="line"/>
      <point x="74" y="739" type="line"/>
      <point x="74" y="513" type="line"/>
    </contour>
  </outline>
</glyph>
<glyph name="numbersign" format="1">
  <advance width="560"/>
  <unicode hex="0023"/>
  <outline>
    <contour>
      <point x="199" y="739" type="line"/>
      <point x="170" y="521" type="line"/>
      <point x="60" y="521" type="line"/>
      <point x="60" y="422" type="line"/>
      <point x="156" y="422" type="line"/>
      <point x="144" y="333" type="line"/>
      <point x="34" y="333" type="line"/>
      <point x="34" y="233" type="line"/>
      <point x="131" y="233" type="line"/>
      <point x="99" y="0" type="line"/>
      <point x="190" y="0" type="line"/>
      <point x="221" y="233" type="line"/>
      <point x="308" y="233" type="line"/>
      <point x="276" y="0" type="line"/>
      <point x="366" y="0" type="line"/>
      <point x="398" y="233" type="line"/>
      <point x="500" y="233" type="line"/>
      <point x="500" y="333" type="line"/>
      <point x="411" y="333" type="line"/>
      <point x="423" y="422" type="line"/>
      <point x="526" y="422" type="line"/>
      <point x="526" y="521" type="line"/>
      <point x="437" y="521" type="line"/>
      <point x="466" y="739" type="line"/>
      <point x="376" y="739" type="line"/>
      <point x="347" y="521" type="line"/>
      <point x="260" y="521" type="line"/>
      <point x="289" y="739" type="line"/>
    </contour>
    <contour>
      <point x="247" y="422" type="line"/>
      <point x="333" y="422" type="line"/>
      <point x="321" y="333" type="line"/>
      <point x="234" y="333" type="line"/>
    </contour>
  </outline>
</glyph>
<glyph name="dollar" format="1">
  <advance width="560"/>
  <unicode hex="0024"/>
  <outline>
    <contour>
      <point x="59" y="249" type="line"/>
      <point x="59" y="236" type="line" smooth="yes"/>
      <point x="59" y="181"/>
      <point x="87" y="125"/>
      <point x="134" y="88" type="curve" smooth="yes"/>
      <point x="159" y="68"/>
      <point x="181" y="57"/>
      <point x="220" y="46" type="curve"/>
      <point x="220" y="-86" type="line"/>
      <point x="347" y="-86" type="line"/>
      <point x="347" y="46" type="line"/>
      <point x="440" y="72"/>
      <point x="494" y="148"/>
      <point x="494" y="251" type="curve" smooth="yes"/>
      <point x="494" y="314"/>
      <point x="474" y="366"/>
      <point x="439" y="397" type="curve" smooth="yes"/>
      <point x="416" y="417"/>
      <point x="393" y="429"/>
      <point x="335" y="449" type="curve" smooth="yes"/>
      <point x="284" y="468"/>
      <point x="266" y="476"/>
      <point x="250" y="489" type="curve"/>
      <point x="232" y="502"/>
      <point x="221" y="525"/>
      <point x="221" y="549" type="curve" smooth="yes"/>
      <point x="221" y="586"/>
      <point x="246" y="613"/>
      <point x="280" y="613" type="curve" smooth="yes"/>
      <point x="314" y="613"/>
      <point x="337" y="591"/>
      <point x="345" y="551" type="curve"/>
      <point x="471" y="551" type="line"/>
      <point x="468" y="636"/>
      <point x="415" y="710"/>
      <point x="347" y="723" type="curve"/>
      <point x="347" y="856" type="line"/>
      <point x="220" y="856" type="line"/>
      <point x="220" y="723" type="line"/>
      <point x="185" y="715"/>
      <point x="165" y="705"/>
      <point x="144" y="685" type="curve" smooth="yes"/>
      <point x="108" y="649"/>
      <point x="88" y="597"/>
      <point x="88" y="541" type="curve" smooth="yes"/>
      <point x="88" y="454"/>
      <point x="132" y="392"/>
      <point x="217" y="361" type="curve" smooth="yes"/>
      <point x="304" y="328"/>
      <point x="304" y="328"/>
      <point x="322" y="316" type="curve" smooth="yes"/>
      <point x="350" y="298"/>
      <point x="361" y="278"/>
      <point x="361" y="246" type="curve" smooth="yes"/>
      <point x="361" y="199"/>
      <point x="325" y="163"/>
      <point x="277" y="163" type="curve" smooth="yes"/>
      <point x="229" y="163"/>
      <point x="196" y="197"/>
      <point x="193" y="249" type="curve"/>
    </contour>
  </outline>
</glyph>
<glyph name="ampersand" format="1">
  <advance width="680"/>
  <unicode hex="0026"/>
  <outline>
    <contour>
      <point x="511" y="433" type="line"/>
      <point x="439" y="314" type="line"/>
      <point x="372" y="389" type="line"/>
      <point x="411" y="414"/>
      <point x="427" y="426"/>
      <point x="443" y="444" type="curve" smooth="yes"/>
      <point x="472" y="477"/>
      <point x="488" y="522"/>
      <point x="488" y="570" type="curve" smooth="yes"/>
      <point x="488" y="674"/>
      <point x="406" y="752"/>
      <point x="298" y="752" type="curve" smooth="yes"/>
      <point x="192" y="752"/>
      <point x="111" y="672"/>
      <point x="111" y="569" type="curve" smooth="yes"/>
      <point x="111" y="516"/>
      <point x="125" y="487"/>
      <point x="173" y="433" type="curve"/>
      <point x="77" y="376"/>
      <point x="35" y="313"/>
      <point x="35" y="223" type="curve" smooth="yes"/>
      <point x="35" y="91"/>
      <point x="141" y="-13"/>
      <point x="276" y="-13" type="curve" smooth="yes"/>
      <point x="355" y="-13"/>
      <point x="401" y="14"/>
      <point x="464" y="98" type="curve"/>
      <point x="569" y="-13" type="line"/>
      <point x="664" y="73" type="line"/>
      <point x="532" y="214" type="line"/>
      <point x="660" y="433" type="line"/>
    </contour>
    <contour>
      <point x="289" y="481" type="curve"/>
      <point x="250" y="519"/>
      <point x="238" y="540"/>
      <point x="238" y="567" type="curve" smooth="yes"/>
      <point x="238" y="601"/>
      <point x="265" y="627"/>
      <point x="300" y="627" type="curve" smooth="yes"/>
      <point x="336" y="627"/>
      <point x="361" y="602"/>
      <point x="361" y="566" type="curve" smooth="yes"/>
      <point x="361" y="529"/>
      <point x="345" y="511"/>
    </contour>
    <contour>
      <point x="372" y="198" type="line"/>
      <point x="338" y="138"/>
      <point x="312" y="119"/>
      <point x="268" y="119" type="curve" smooth="yes"/>
      <point x="210" y="119"/>
      <point x="168" y="160"/>
      <point x="168" y="215" type="curve" smooth="yes"/>
      <point x="168" y="262"/>
      <point x="195" y="294"/>
      <point x="257" y="322" type="curve"/>
    </contour>
  </outline>
</glyph>
<glyph name="parenleft" format="1">
  <advance width="380"/>
  <unicode hex="0028"/>
  <outline>
    <contour>
      <point x="349" y="8" type="line"/>
      <point x="267" y="61"/>
      <point x="209" y="183"/>
      <point x="209" y="300" type="curve" smooth="yes"/>
      <point x="209" y="421"/>
      <point x="258" y="525"/>
      <point x="349" y="595" type="curve"/>
      <point x="349" y="739" type="line"/>
      <point x="296" y="717"/>
      <point x="267" y="699"/>
      <point x="228" y="664" type="curve" smooth="yes"/>
      <point x="132" y="578"/>
      <point x="74" y="441"/>
      <point x="74" y="300" type="curve" smooth="yes"/>
      <point x="74" y="176"/>
      <point x="121" y="53"/>
      <point x="202" y="-38" type="curve" smooth="yes"/>
      <point x="250" y="-90"/>
      <point x="289" y="-116"/>
      <point x="349" y="-137" type="curve"/>
    </contour>
  </outline>
</glyph>
<glyph name="parenright" format="1">
  <advance width="380"/>
  <unicode hex="0029"/>
  <outline>
    <contour>
      <point x="37" y="594" type="line"/>
      <point x="119" y="541"/>
      <point x="177" y="419"/>
      <point x="177" y="302" type="curve" smooth="yes"/>
      <point x="177" y="181"/>
      <point x="128" y="77"/>
      <point x="37" y="7" type="curve"/>
      <point x="37" y="-137" type="line"/>
      <point x="90" y="-115"/>
      <point x="119" y="-97"/>
      <point x="158" y="-62" type="curve" smooth="yes"/>
      <point x="254" y="24"/>
      <point x="312" y="161"/>
      <point x="312" y="302" type="curve" smooth="yes"/>
      <point x="312" y="426"/>
      <point x="265" y="549"/>
      <point x="184" y="640" type="curve" smooth="yes"/>
      <point x="136" y="692"/>
      <point x="97" y="718"/>
      <point x="37" y="739" type="curve"/>
    </contour>
  </outline>
</glyph>
<glyph name="asterisk" format="1">
  <advance width="440"/>
  <unicode hex="002A"/>
  <outline>
    <contour>
      <point x="116" y="706" type="line"/>
      <point x="169" y="620" type="line"/>
      <point x="70" y="625" type="line"/>
      <point x="70" y="554" type="line"/>
      <point x="168" y="561" type="line"/>
      <point x="116" y="472" type="line"/>
      <point x="180" y="441" type="line"/>
      <point x="223" y="529" type="line"/>
      <point x="270" y="441" type="line"/>
      <point x="327" y="479" type="line"/>
      <point x="274" y="559" type="line"/>
      <point x="371" y="554" type="line"/>
      <point x="371" y="626" type="line"/>
      <point x="274" y="620" type="line"/>
      <point x="328" y="703" type="line"/>
      <point x="269" y="739" type="line"/>
      <point x="223" y="652" type="line"/>
      <point x="179" y="738" type="line"/>
    </contour>
  </outline>
</glyph>
<glyph name="plus" format="1">
  <advance width="600"/>
  <unicode hex="002B"/>
  <outline>
    <contour>
      <point x="243" y="430" type="line"/>
      <point x="51" y="430" type="line"/>
      <point x="51" y="312" type="line"/>
      <point x="243" y="312" type="line"/>
      <point x="243" y="117" type="line"/>
      <point x="363" y="117" type="line"/>
      <point x="363" y="312" type="line"/>
      <point x="555" y="312" type="line"/>
      <point x="555" y="430" type="line"/>
      <point x="363" y="430" type="line"/>
      <point x="363" y="625" type="line"/>
      <point x="243" y="625" type="line"/>
    </contour>
  </outline>
</glyph>
<glyph name="comma" format="1">
  <advance width="280"/>
  <unicode hex="002C"/>
  <outline>
    <contour>
      <point x="72" y="0" type="line"/>
      <point x="130" y="0" type="line"/>
      <point x="131" y="-6"/>
      <point x="131" y="-13"/>
      <point x="131" y="-17" type="curve" smooth="yes"/>
      <point x="131" y="-49"/>
      <point x="114" y="-65"/>
      <point x="72" y="-73" type="curve"/>
      <point x="72" y="-140" type="line"/>
      <point x="102" y="-140"/>
      <point x="119" y="-137"/>
      <point x="141" y="-124" type="curve" smooth="yes"/>
      <point x="185" y="-100"/>
      <point x="205" y="-64"/>
      <point x="205" y="-7" type="curve" smooth="yes"/>
      <point x="205" y="128" type="line"/>
      <point x="72" y="128" type="line"/>
    </contour>
  </outline>
</glyph>
<glyph name="hyphen" format="1">
  <advance width="420"/>
  <unicode hex="002D"/>
  <outline>
    <contour>
      <point x="74" y="229" type="line"/>
      <point x="351" y="229" type="line"/>
      <point x="351" y="347" type="line"/>
      <point x="74" y="347" type="line"/>
    </contour>
  </outline>
</glyph>
<glyph name="slash" format="1">
  <advance width="460"/>
  <unicode hex="002F"/>
  <outline>
    <contour>
      <point x="26" y="-128" type="line"/>
      <point x="120" y="-128" type="line"/>
      <point x="443" y="739" type="line"/>
      <point x="349" y="739" type="line"/>
    </contour>
  </outline>
</glyph>
<glyph name="zero" format="1">
  <advance width="560"/>
  <unicode hex="0030"/>
  <outline>
    <contour>
      <point x="525" y="505" type="line" smooth="yes"/>
      <point x="525" y="655"/>
      <point x="428" y="752"/>
      <point x="278" y="752" type="curve" smooth="yes"/>
      <point x="126" y="752"/>
      <point x="30" y="654"/>
      <point x="30" y="498" type="curve" smooth="yes"/>
      <point x="30" y="247" type="line" smooth="yes"/>
      <point x="30" y="176"/>
      <point x="44" y="126"/>
      <point x="77" y="81" type="curve" smooth="yes"/>
      <point x="123" y="20"/>
      <point x="194" y="-13"/>
      <point x="284" y="-13" type="curve" smooth="yes"/>
      <point x="369" y="-13"/>
      <point x="435" y="18"/>
      <point x="478" y="78" type="curve" smooth="yes"/>
      <point x="511" y="124"/>
      <point x="525" y="173"/>
      <point x="525" y="247" type="curve" smooth="yes"/>
    </contour>
    <contour>
      <point x="163" y="498" type="line" smooth="yes"/>
      <point x="163" y="580"/>
      <point x="207" y="630"/>
      <point x="279" y="630" type="curve" smooth="yes"/>
      <point x="351" y="630"/>
      <point x="392" y="583"/>
      <point x="392" y="498" type="curve" smooth="yes"/>
      <point x="392" y="248" type="line" smooth="yes"/>
      <point x="392" y="202"/>
      <point x="385" y="173"/>
      <point x="368" y="150" type="curve" smooth="yes"/>
      <point x="350" y="124"/>
      <point x="317" y="109"/>
      <point x="280" y="109" type="curve" smooth="yes"/>
      <point x="204" y="109"/>
      <point x="163" y="159"/>
      <point x="163" y="251" type="curve" smooth="yes"/>
    </contour>
  </outline>
</glyph>
<glyph name="one" format="1">
  <advance width="560"/>
  <unicode hex="0031"/>
  <outline>
    <contour>
      <point x="246" y="0" type="line"/>
      <point x="379" y="0" type="line"/>
      <point x="379" y="739" type="line"/>
      <point x="153" y="739" type="line"/>
      <point x="153" y="614" type="line"/>
      <point x="246" y="614" type="line"/>
    </contour>
  </outline>
</glyph>
<glyph name="two" format="1">
  <advance width="560"/>
  <unicode hex="0032"/>
  <outline>
    <contour>
      <point x="39" y="0" type="line"/>
      <point x="517" y="0" type="line"/>
      <point x="517" y="125" type="line"/>
      <point x="226" y="125" type="line"/>
      <point x="377" y="262" type="line" smooth="yes"/>
      <point x="431" y="311"/>
      <point x="454" y="336"/>
      <point x="476" y="370" type="curve" smooth="yes"/>
      <point x="505" y="412"/>
      <point x="520" y="462"/>
      <point x="520" y="512" type="curve" smooth="yes"/>
      <point x="520" y="648"/>
      <point x="416" y="752"/>
      <point x="279" y="752" type="curve" smooth="yes"/>
      <point x="193" y="752"/>
      <point x="115" y="711"/>
      <point x="73" y="643" type="curve" smooth="yes"/>
      <point x="45" y="599"/>
      <point x="34" y="555"/>
      <point x="34" y="484" type="curve"/>
      <point x="165" y="484" type="line"/>
      <point x="165" y="572"/>
      <point x="211" y="630"/>
      <point x="280" y="630" type="curve" smooth="yes"/>
      <point x="341" y="630"/>
      <point x="387" y="580"/>
      <point x="387" y="514" type="curve" smooth="yes"/>
      <point x="387" y="466"/>
      <point x="362" y="423"/>
      <point x="302" y="366" type="curve" smooth="yes"/>
      <point x="39" y="117" type="line"/>
    </contour>
  </outline>
</glyph>
<glyph name="three" format="1">
  <advance width="560"/>
  <unicode hex="0033"/>
  <outline>
    <contour>
      <point x="218" y="356" type="line"/>
      <point x="240" y="356" type="line" smooth="yes"/>
      <point x="328" y="356"/>
      <point x="385" y="307"/>
      <point x="385" y="232" type="curve" smooth="yes"/>
      <point x="385" y="161"/>
      <point x="336" y="109"/>
      <point x="269" y="109" type="curve" smooth="yes"/>
      <point x="205" y="109"/>
      <point x="158" y="154"/>
      <point x="149" y="224" type="curve"/>
      <point x="15" y="224" type="line"/>
      <point x="23" y="85"/>
      <point x="128" y="-13"/>
      <point x="270" y="-13" type="curve" smooth="yes"/>
      <point x="413" y="-13"/>
      <point x="518" y="92"/>
      <point x="518" y="235" type="curve" smooth="yes"/>
      <point x="518" y="328"/>
      <point x="479" y="392"/>
      <point x="403" y="426" type="curve"/>
      <point x="446" y="457"/>
      <point x="465" y="496"/>
      <point x="465" y="553" type="curve" smooth="yes"/>
      <point x="465" y="667"/>
      <point x="380" y="752"/>
      <point x="266" y="752" type="curve" smooth="yes"/>
      <point x="208" y="752"/>
      <point x="155" y="729"/>
      <point x="118" y="689" type="curve" smooth="yes"/>
      <point x="87" y="655"/>
      <point x="75" y="623"/>
      <point x="70" y="563" type="curve"/>
      <point x="205" y="563" type="line"/>
      <point x="211" y="609"/>
      <point x="231" y="630"/>
      <point x="267" y="630" type="curve" smooth="yes"/>
      <point x="305" y="630"/>
      <point x="332" y="601"/>
      <point x="332" y="560" type="curve" smooth="yes"/>
      <point x="332" y="529"/>
      <point x="317" y="506"/>
      <point x="289" y="494" type="curve" smooth="yes"/>
      <point x="272" y="487"/>
      <point x="254" y="485"/>
      <point x="218" y="484" type="curve"/>
    </contour>
  </outline>
</glyph>
<glyph name="four" format="1">
  <advance width="560"/>
  <unicode hex="0034"/>
  <outline>
    <contour>
      <point x="0" y="219" type="line"/>
      <point x="0" y="111" type="line"/>
      <point x="319" y="111" type="line"/>
      <point x="319" y="0" type="line"/>
      <point x="452" y="0" type="line"/>
      <point x="452" y="111" type="line"/>
      <point x="530" y="111" type="line"/>
      <point x="530" y="230" type="line"/>
      <point x="452" y="230" type="line"/>
      <point x="452" y="739" type="line"/>
      <point x="340" y="739" type="line"/>
    </contour>
    <contour>
      <point x="319" y="230" type="line"/>
      <point x="135" y="230" type="line"/>
      <point x="319" y="515" type="line"/>
    </contour>
  </outline>
</glyph>
<glyph name="five" format="1">
  <advance width="560"/>
  <unicode hex="0035"/>
  <outline>
    <contour>
      <point x="46" y="353" type="line"/>
      <point x="164" y="321" type="line"/>
      <point x="197" y="362"/>
      <point x="225" y="377"/>
      <point x="267" y="377" type="curve" smooth="yes"/>
      <point x="335" y="377"/>
      <point x="387" y="320"/>
      <point x="387" y="245" type="curve" smooth="yes"/>
      <point x="387" y="165"/>
      <point x="337" y="109"/>
      <point x="265" y="109" type="curve" smooth="yes"/>
      <point x="201" y="109"/>
      <point x="158" y="149"/>
      <point x="145" y="221" type="curve"/>
      <point x="12" y="221" type="line"/>
      <point x="15" y="165"/>
      <point x="31" y="125"/>
      <point x="66" y="82" type="curve" smooth="yes"/>
      <point x="116" y="21"/>
      <point x="189" y="-13"/>
      <point x="269" y="-13" type="curve" smooth="yes"/>
      <point x="412" y="-13"/>
      <point x="520" y="99"/>
      <point x="520" y="247" type="curve" smooth="yes"/>
      <point x="520" y="392"/>
      <point x="421" y="499"/>
      <point x="286" y="499" type="curve" smooth="yes"/>
      <point x="252" y="499"/>
      <point x="229" y="494"/>
      <point x="191" y="478" type="curve"/>
      <point x="215" y="614" type="line"/>
      <point x="449" y="614" type="line"/>
      <point x="449" y="739" type="line"/>
      <point x="115" y="739" type="line"/>
    </contour>
  </outline>
</glyph>
<glyph name="six" format="1">
  <advance width="560"/>
  <unicode hex="0036"/>
  <outline>
    <contour>
      <point x="287" y="739" type="line"/>
      <point x="94" y="449" type="line" smooth="yes"/>
      <point x="41" y="369"/>
      <point x="21" y="313"/>
      <point x="21" y="242" type="curve" smooth="yes"/>
      <point x="21" y="96"/>
      <point x="131" y="-13"/>
      <point x="280" y="-13" type="curve" smooth="yes"/>
      <point x="427" y="-13"/>
      <point x="533" y="98"/>
      <point x="533" y="252" type="curve" smooth="yes"/>
      <point x="533" y="387"/>
      <point x="447" y="486"/>
      <point x="329" y="486" type="curve" smooth="yes"/>
      <point x="306" y="486"/>
      <point x="293" y="484"/>
      <point x="269" y="476" type="curve"/>
      <point x="446" y="739" type="line"/>
    </contour>
    <contour>
      <point x="278" y="370" type="curve" smooth="yes"/>
      <point x="348" y="370"/>
      <point x="400" y="315"/>
      <point x="400" y="239" type="curve" smooth="yes"/>
      <point x="400" y="162"/>
      <point x="351" y="109"/>
      <point x="280" y="109" type="curve" smooth="yes"/>
      <point x="207" y="109"/>
      <point x="154" y="163"/>
      <point x="154" y="239" type="curve" smooth="yes"/>
      <point x="154" y="317"/>
      <point x="204" y="370"/>
    </contour>
  </outline>
</glyph>
<glyph name="seven" format="1">
  <advance width="560"/>
  <unicode hex="0037"/>
  <outline>
    <contour>
      <point x="80" y="0" type="line"/>
      <point x="230" y="0" type="line"/>
      <point x="500" y="614" type="line"/>
      <point x="500" y="739" type="line"/>
      <point x="65" y="739" type="line"/>
      <point x="65" y="614" type="line"/>
      <point x="360" y="614" type="line"/>
    </contour>
  </outline>
</glyph>
<glyph name="eight" format="1">
  <advance width="560"/>
  <unicode hex="0038"/>
  <outline>
    <contour>
      <point x="137" y="411" type="curve"/>
      <point x="103" y="392"/>
      <point x="88" y="380"/>
      <point x="73" y="360" type="curve" smooth="yes"/>
      <point x="46" y="327"/>
      <point x="31" y="279"/>
      <point x="31" y="231" type="curve" smooth="yes"/>
      <point x="31" y="93"/>
      <point x="139" y="-13"/>
      <point x="278" y="-13" type="curve" smooth="yes"/>
      <point x="418" y="-13"/>
      <point x="523" y="92"/>
      <point x="523" y="232" type="curve" smooth="yes"/>
      <point x="523" y="284"/>
      <point x="506" y="333"/>
      <point x="478" y="366" type="curve" smooth="yes"/>
      <point x="463" y="383"/>
      <point x="449" y="393"/>
      <point x="419" y="411" type="curve"/>
      <point x="461" y="445"/>
      <point x="481" y="489"/>
      <point x="481" y="551" type="curve" smooth="yes"/>
      <point x="481" y="666"/>
      <point x="395" y="752"/>
      <point x="279" y="752" type="curve" smooth="yes"/>
      <point x="166" y="752"/>
      <point x="76" y="662"/>
      <point x="76" y="549" type="curve" smooth="yes"/>
      <point x="76" y="495"/>
      <point x="91" y="460"/>
    </contour>
    <contour>
      <point x="280" y="630" type="curve" smooth="yes"/>
      <point x="321" y="630"/>
      <point x="354" y="595"/>
      <point x="354" y="550" type="curve" smooth="yes"/>
      <point x="354" y="505"/>
      <point x="320" y="469"/>
      <point x="279" y="469" type="curve" smooth="yes"/>
      <point x="237" y="469"/>
      <point x="203" y="505"/>
      <point x="203" y="549" type="curve" smooth="yes"/>
      <point x="203" y="595"/>
      <point x="236" y="630"/>
    </contour>
    <contour>
      <point x="279" y="341" type="curve" smooth="yes"/>
      <point x="340" y="341"/>
      <point x="390" y="289"/>
      <point x="390" y="225" type="curve" smooth="yes"/>
      <point x="390" y="159"/>
      <point x="342" y="109"/>
      <point x="279" y="109" type="curve" smooth="yes"/>
      <point x="214" y="109"/>
      <point x="164" y="160"/>
      <point x="164" y="226" type="curve" smooth="yes"/>
      <point x="164" y="291"/>
      <point x="215" y="341"/>
    </contour>
  </outline>
</glyph>
<glyph name="nine" format="1">
  <advance width="560"/>
  <unicode hex="0039"/>
  <outline>
    <contour>
      <point x="266" y="0" type="line"/>
      <point x="459" y="290" type="line" smooth="yes"/>
      <point x="512" y="369"/>
      <point x="532" y="426"/>
      <point x="532" y="496" type="curve" smooth="yes"/>
      <point x="532" y="643"/>
      <point x="422" y="752"/>
      <point x="273" y="752" type="curve" smooth="yes"/>
      <point x="127" y="752"/>
      <point x="22" y="641"/>
      <point x="22" y="487" type="curve" smooth="yes"/>
      <point x="22" y="353"/>
      <point x="110" y="251"/>
      <point x="225" y="251" type="curve" smooth="yes"/>
      <point x="247" y="251"/>
      <point x="261" y="254"/>
      <point x="285" y="263" type="curve"/>
      <point x="107" y="0" type="line"/>
    </contour>
    <contour>
      <point x="273" y="630" type="curve" smooth="yes"/>
      <point x="346" y="630"/>
      <point x="399" y="576"/>
      <point x="399" y="500" type="curve" smooth="yes"/>
      <point x="399" y="423"/>
      <point x="349" y="369"/>
      <point x="276" y="369" type="curve" smooth="yes"/>
      <point x="206" y="369"/>
      <point x="155" y="424"/>
      <point x="155" y="500" type="curve" smooth="yes"/>
      <point x="155" y="576"/>
      <point x="203" y="630"/>
    </contour>
  </outline>
</glyph>
<glyph name="colon" format="1">
  <advance width="280"/>
  <unicode hex="003A"/>
  <outline>
    <contour>
      <point x="72" y="0" type="line"/>
      <point x="205" y="0" type="line"/>
      <point x="205" y="128" type="line"/>
      <point x="72" y="128" type="line"/>
    </contour>
    <contour>
      <point x="72" y="369" type="line"/>
      <point x="205" y="369" type="line"/>
      <point x="205" y="502" type="line"/>
      <point x="72" y="502" type="line"/>
    </contour>
  </outline>
</glyph>
<glyph name="semicolon" format="1">
  <advance width="280"/>
  <unicode hex="003B"/>
  <outline>
    <contour>
      <point x="72" y="0" type="line"/>
      <point x="131" y="0" type="line"/>
      <point x="131" y="-17" type="line" smooth="yes"/>
      <point x="131" y="-49"/>
      <point x="114" y="-65"/>
      <point x="72" y="-73" type="curve"/>
      <point x="72" y="-140" type="line"/>
      <point x="109" y="-140"/>
      <point x="138" y="-131"/>
      <point x="162" y="-110" type="curve" smooth="yes"/>
      <point x="193" y="-84"/>
      <point x="205" y="-56"/>
      <point x="205" y="-7" type="curve" smooth="yes"/>
      <point x="205" y="128" type="line"/>
      <point x="72" y="128" type="line"/>
    </contour>
    <contour>
      <point x="72" y="369" type="line"/>
      <point x="205" y="369" type="line"/>
      <point x="205" y="502" type="line"/>
      <point x="72" y="502" type="line"/>
    </contour>
  </outline>
</glyph>
<glyph name="less" format="1">
  <advance width="600"/>
  <unicode hex="003C"/>
  <outline>
    <contour>
      <point x="558" y="582" type="line"/>
      <point x="49" y="356" type="line"/>
      <point x="49" y="258" type="line"/>
      <point x="558" y="33" type="line"/>
      <point x="558" y="149" type="line"/>
      <point x="217" y="308" type="line"/>
      <point x="558" y="465" type="line"/>
    </contour>
  </outline>
</glyph>
<glyph name="equal" format="1">
  <advance width="600"/>
  <unicode hex="003D"/>
  <outline>
    <contour>
      <point x="555" y="523" type="line"/>
      <point x="51" y="523" type="line"/>
      <point x="51" y="405" type="line"/>
      <point x="555" y="405" type="line"/>
    </contour>
    <contour>
      <point x="555" y="328" type="line"/>
      <point x="51" y="328" type="line"/>
      <point x="51" y="210" type="line"/>
      <point x="555" y="210" type="line"/>
    </contour>
  </outline>
</glyph>
<glyph name="greater" format="1">
  <advance width="600"/>
  <unicode hex="003E"/>
  <outline>
    <contour>
      <point x="48" y="33" type="line"/>
      <point x="557" y="258" type="line"/>
      <point x="557" y="356" type="line"/>
      <point x="48" y="582" type="line"/>
      <point x="48" y="465" type="line"/>
      <point x="390" y="306" type="line"/>
      <point x="48" y="149" type="line"/>
    </contour>
  </outline>
</glyph>
<glyph name="question" format="1">
  <advance width="560"/>
  <unicode hex="003F"/>
  <outline>
    <contour>
      <point x="318" y="187" type="line"/>
      <point x="319" y="274"/>
      <point x="328" y="297"/>
      <point x="383" y="344" type="curve" smooth="yes"/>
      <point x="460" y="412"/>
      <point x="485" y="456"/>
      <point x="485" y="523" type="curve" smooth="yes"/>
      <point x="485" y="654"/>
      <point x="388" y="752"/>
      <point x="260" y="752" type="curve" smooth="yes"/>
      <point x="189" y="752"/>
      <point x="122" y="720"/>
      <point x="80" y="665" type="curve" smooth="yes"/>
      <point x="51" y="628"/>
      <point x="37" y="586"/>
      <point x="32" y="520" type="curve"/>
      <point x="165" y="520" type="line"/>
      <point x="174" y="588"/>
      <point x="203" y="620"/>
      <point x="257" y="620" type="curve" smooth="yes"/>
      <point x="312" y="620"/>
      <point x="352" y="581"/>
      <point x="352" y="527" type="curve" smooth="yes"/>
      <point x="352" y="496"/>
      <point x="337" y="468"/>
      <point x="307" y="442" type="curve" smooth="yes"/>
      <point x="208" y="361"/>
      <point x="184" y="311"/>
      <point x="185" y="187" type="curve"/>
    </contour>
    <contour>
      <point x="185" y="0" type="line"/>
      <point x="318" y="0" type="line"/>
      <point x="318" y="128" type="line"/>
      <point x="185" y="128" type="line"/>
    </contour>
  </outline>
</glyph>
<glyph name="at" format="1">
  <advance width="740"/>
  <unicode hex="0040"/>
  <outline>
    <contour>
      <point x="580" y="573" type="line"/>
      <point x="484" y="573" type="line"/>
      <point x="477" y="519" type="line"/>
      <point x="444" y="562"/>
      <point x="413" y="577"/>
      <point x="359" y="577" type="curve" smooth="yes"/>
      <point x="244" y="577"/>
      <point x="157" y="477"/>
      <point x="157" y="345" type="curve" smooth="yes"/>
      <point x="157" y="228"/>
      <point x="222" y="154"/>
      <point x="322" y="154" type="curve" smooth="yes"/>
      <point x="375" y="154"/>
      <point x="410" y="171"/>
      <point x="435" y="208" type="curve"/>
      <point x="448" y="172"/>
      <point x="481" y="154"/>
      <point x="534" y="154" type="curve" smooth="yes"/>
      <point x="589" y="154"/>
      <point x="640" y="175"/>
      <point x="679" y="213" type="curve" smooth="yes"/>
      <point x="723" y="259"/>
      <point x="745" y="318"/>
      <point x="745" y="397" type="curve" smooth="yes"/>
      <point x="745" y="465"/>
      <point x="732" y="532"/>
      <point x="708" y="581" type="curve" smooth="yes"/>
      <point x="652" y="695"/>
      <point x="529" y="766"/>
      <point x="388" y="766" type="curve" smooth="yes"/>
      <point x="169" y="766"/>
      <point x="3" y="598"/>
      <point x="3" y="377" type="curve" smooth="yes"/>
      <point x="3" y="281"/>
      <point x="36" y="188"/>
      <point x="96" y="119" type="curve" smooth="yes"/>
      <point x="170" y="31"/>
      <point x="272" y="-13"/>
      <point x="399" y="-13" type="curve" smooth="yes"/>
      <point x="484" y="-13"/>
      <point x="542" y="5"/>
      <point x="596" y="47" type="curve"/>
      <point x="550" y="107" type="line"/>
      <point x="506" y="74"/>
      <point x="460" y="60"/>
      <point x="401" y="60" type="curve" smooth="yes"/>
      <point x="313" y="60"/>
      <point x="229" y="90"/>
      <point x="175" y="139" type="curve" smooth="yes"/>
      <point x="111" y="198"/>
      <point x="74" y="285"/>
      <point x="74" y="374" type="curve" smooth="yes"/>
      <point x="74" y="558"/>
      <point x="208" y="694"/>
      <point x="390" y="694" type="curve" smooth="yes"/>
      <point x="558" y="694"/>
      <point x="672" y="580"/>
      <point x="672" y="413" type="curve" smooth="yes"/>
      <point x="672" y="319"/>
      <point x="626" y="237"/>
      <point x="573" y="237" type="curve" smooth="yes"/>
      <point x="555" y="237"/>
      <point x="546" y="246"/>
      <point x="546" y="263" type="curve" smooth="yes"/>
      <point x="546" y="270"/>
      <point x="546" y="273"/>
      <point x="547" y="278" type="curve"/>
    </contour>
    <contour>
      <point x="379" y="465" type="curve" smooth="yes"/>
      <point x="426" y="465"/>
      <point x="455" y="430"/>
      <point x="455" y="374" type="curve" smooth="yes"/>
      <point x="455" y="307"/>
      <point x="413" y="260"/>
      <point x="355" y="260" type="curve" smooth="yes"/>
      <point x="307" y="260"/>
      <point x="277" y="297"/>
      <point x="277" y="355" type="curve" smooth="yes"/>
      <point x="277" y="416"/>
      <point x="323" y="465"/>
    </contour>
  </outline>
</glyph>
<glyph name="A" format="1">
  <advance width="740"/>
  <unicode hex="0041"/>
  <outline>
    <contour>
      <point x="7" y="0" type="line"/>
      <point x="158" y="0" type="line"/>
      <point x="240" y="191" type="line"/>
      <point x="503" y="191" type="line"/>
      <point x="582" y="0" type="line"/>
      <point x="733" y="0" type="line"/>
      <point x="423" y="739" type="line"/>
      <point x="315" y="739" type="line"/>
    </contour>
    <contour>
      <point x="290" y="322" type="line"/>
      <point x="369" y="546" type="line"/>
      <point x="448" y="322" type="line"/>
    </contour>
  </outline>
</glyph>
<glyph name="B" format="1">
  <advance width="580"/>
  <unicode hex="0042"/>
  <outline>
    <contour>
      <point x="68" y="0" type="line"/>
      <point x="265" y="0" type="line" smooth="yes"/>
      <point x="347" y="0"/>
      <point x="407" y="13"/>
      <point x="452" y="41" type="curve" smooth="yes"/>
      <point x="513" y="78"/>
      <point x="548" y="144"/>
      <point x="548" y="220" type="curve" smooth="yes"/>
      <point x="548" y="266"/>
      <point x="535" y="311"/>
      <point x="512" y="341" type="curve" smooth="yes"/>
      <point x="491" y="369"/>
      <point x="470" y="383"/>
      <point x="422" y="403" type="curve"/>
      <point x="481" y="434"/>
      <point x="504" y="473"/>
      <point x="504" y="542" type="curve" smooth="yes"/>
      <point x="504" y="611"/>
      <point x="473" y="669"/>
      <point x="420" y="703" type="curve" smooth="yes"/>
      <point x="376" y="731"/>
      <point x="330" y="739"/>
      <point x="220" y="739" type="curve" smooth="yes"/>
      <point x="68" y="739" type="line"/>
    </contour>
    <contour>
      <point x="205" y="131" type="line"/>
      <point x="205" y="320" type="line"/>
      <point x="270" y="320" type="line" smooth="yes"/>
      <point x="365" y="320"/>
      <point x="410" y="289"/>
      <point x="410" y="223" type="curve" smooth="yes"/>
      <point x="410" y="159"/>
      <point x="369" y="131"/>
      <point x="273" y="131" type="curve" smooth="yes"/>
    </contour>
    <contour>
      <point x="205" y="454" type="line"/>
      <point x="205" y="605" type="line"/>
      <point x="261" y="605" type="line" smooth="yes"/>
      <point x="332" y="605"/>
      <point x="367" y="581"/>
      <point x="367" y="530" type="curve" smooth="yes"/>
      <point x="367" y="477"/>
      <point x="332" y="454"/>
      <point x="249" y="454" type="curve" smooth="yes"/>
    </contour>
  </outline>
</glyph>
<glyph name="C" format="1">
  <advance width="780"/>
  <unicode hex="0043"/>
  <outline>
    <contour>
      <point x="599" y="206" type="line"/>
      <point x="539" y="143"/>
      <point x="487" y="119"/>
      <point x="416" y="119" type="curve" smooth="yes"/>
      <point x="280" y="119"/>
      <point x="168" y="233"/>
      <point x="168" y="371" type="curve" smooth="yes"/>
      <point x="168" y="431"/>
      <point x="191" y="495"/>
      <point x="229" y="539" type="curve" smooth="yes"/>
      <point x="274" y="592"/>
      <point x="338" y="620"/>
      <point x="413" y="620" type="curve" smooth="yes"/>
      <point x="499" y="620"/>
      <point x="557" y="592"/>
      <point x="607" y="527" type="curve"/>
      <point x="760" y="527" type="line"/>
      <point x="731" y="591"/>
      <point x="705" y="626"/>
      <point x="655" y="667" type="curve" smooth="yes"/>
      <point x="587" y="722"/>
      <point x="500" y="752"/>
      <point x="410" y="752" type="curve" smooth="yes"/>
      <point x="201" y="752"/>
      <point x="30" y="581"/>
      <point x="30" y="372" type="curve" smooth="yes"/>
      <point x="30" y="159"/>
      <point x="203" y="-13"/>
      <point x="419" y="-13" type="curve" smooth="yes"/>
      <point x="570" y="-13"/>
      <point x="702" y="71"/>
      <point x="760" y="206" type="curve"/>
    </contour>
  </outline>
</glyph>
<glyph name="D" format="1">
  <advance width="700"/>
  <unicode hex="0044"/>
  <outline>
    <contour>
      <point x="68" y="0" type="line"/>
      <point x="240" y="0" type="line" smooth="yes"/>
      <point x="352" y="0"/>
      <point x="419" y="11"/>
      <point x="479" y="41" type="curve" smooth="yes"/>
      <point x="593" y="97"/>
      <point x="660" y="219"/>
      <point x="660" y="368" type="curve" smooth="yes"/>
      <point x="660" y="508"/>
      <point x="602" y="624"/>
      <point x="499" y="686" type="curve" smooth="yes"/>
      <point x="441" y="721"/>
      <point x="353" y="739"/>
      <point x="237" y="739" type="curve" smooth="yes"/>
      <point x="68" y="739" type="line"/>
    </contour>
    <contour>
      <point x="205" y="131" type="line"/>
      <point x="205" y="608" type="line"/>
      <point x="232" y="608" type="line" smooth="yes"/>
      <point x="319" y="608"/>
      <point x="366" y="600"/>
      <point x="409" y="578" type="curve" smooth="yes"/>
      <point x="479" y="542"/>
      <point x="522" y="463"/>
      <point x="522" y="368" type="curve" smooth="yes"/>
      <point x="522" y="279"/>
      <point x="481" y="200"/>
      <point x="415" y="164" type="curve" smooth="yes"/>
      <point x="374" y="141"/>
      <point x="317" y="131"/>
      <point x="235" y="131" type="curve" smooth="yes"/>
    </contour>
  </outline>
</glyph>
<glyph name="E" format="1">
  <advance width="520"/>
  <unicode hex="0045"/>
  <outline>
    <contour>
      <point x="68" y="0" type="line"/>
      <point x="465" y="0" type="line"/>
      <point x="465" y="131" type="line"/>
      <point x="205" y="131" type="line"/>
      <point x="205" y="303" type="line"/>
      <point x="454" y="303" type="line"/>
      <point x="454" y="434" type="line"/>
      <point x="205" y="434" type="line"/>
      <point x="205" y="608" type="line"/>
      <point x="465" y="608" type="line"/>
      <point x="465" y="739" type="line"/>
      <point x="68" y="739" type="line"/>
    </contour>
  </outline>
</glyph>
<glyph name="F" format="1">
  <advance width="480"/>
  <unicode hex="0046"/>
  <outline>
    <contour>
      <point x="68" y="0" type="line"/>
      <point x="205" y="0" type="line"/>
      <point x="205" y="303" type="line"/>
      <point x="433" y="303" type="line"/>
      <point x="433" y="434" type="line"/>
      <point x="205" y="434" type="line"/>
      <point x="205" y="608" type="line"/>
      <point x="444" y="608" type="line"/>
      <point x="444" y="739" type="line"/>
      <point x="68" y="739" type="line"/>
    </contour>
  </outline>
</glyph>
<glyph name="H" format="1">
  <advance width="680"/>
  <unicode hex="0048"/>
  <outline>
    <contour>
      <point x="68" y="0" type="line"/>
      <point x="205" y="0" type="line"/>
      <point x="205" y="310" type="line"/>
      <point x="469" y="310" type="line"/>
      <point x="469" y="0" type="line"/>
      <point x="606" y="0" type="line"/>
      <point x="606" y="739" type="line"/>
      <point x="469" y="739" type="line"/>
      <point x="469" y="441" type="line"/>
      <point x="205" y="441" type="line"/>
      <point x="205" y="739" type="line"/>
      <point x="68" y="739" type="line"/>
    </contour>
  </outline>
</glyph>
<glyph name="M" format="1">
  <advance width="900"/>
  <unicode hex="004D"/>
  <outline>
    <contour>
      <point x="68" y="0" type="line"/>
      <point x="205" y="0" type="line"/>
      <point x="205" y="554" type="line"/>
      <point x="398" y="0" type="line"/>
      <point x="510" y="0" type="line"/>
      <point x="703" y="554" type="line"/>
      <point x="703" y="0" type="line"/>
      <point x="840" y="0" type="line"/>
      <point x="840" y="739" type="line"/>
      <point x="652" y="739" type="line"/>
      <point x="455" y="179" type="line"/>
      <point x="256" y="739" type="line"/>
      <point x="68" y="739" type="line"/>
    </contour>
  </outline>
</glyph>
<glyph name="P" format="1">
  <advance width="560"/>
  <unicode hex="0050"/>
  <outline>
    <contour>
      <point x="68" y="0" type="line"/>
      <point x="205" y="0" type="line"/>
      <point x="205" y="281" type="line"/>
      <point x="249" y="281" type="line" smooth="yes"/>
      <point x="354" y="281"/>
      <point x="402" y="289"/>
      <point x="443" y="314" type="curve" smooth="yes"/>
      <point x="503" y="351"/>
      <point x="540" y="426"/>
      <point x="540" y="511" type="curve" smooth="yes"/>
      <point x="540" y="596"/>
      <point x="504" y="666"/>
      <point x="440" y="705" type="curve" smooth="yes"/>
      <point x="398" y="730"/>
      <point x="349" y="739"/>
      <point x="251" y="739" type="curve" smooth="yes"/>
      <point x="68" y="739" type="line"/>
    </contour>
    <contour>
      <point x="205" y="412" type="line"/>
      <point x="205" y="608" type="line"/>
      <point x="251" y="608" type="line" smooth="yes"/>
      <point x="296" y="608"/>
      <point x="316" y="606"/>
      <point x="338" y="601" type="curve" smooth="yes"/>
      <point x="378" y="590"/>
      <point x="402" y="555"/>
      <point x="402" y="509" type="curve" smooth="yes"/>
      <point x="402" y="473"/>
      <point x="386" y="445"/>
      <point x="357" y="429" type="curve" smooth="yes"/>
      <point x="336" y="418"/>
      <point x="298" y="412"/>
      <point x="245" y="412" type="curve" smooth="yes"/>
    </contour>
  </outline>
</glyph>
<glyph name="Q" format="1">
  <advance width="840"/>
  <unicode hex="0051"/>
  <outline>
    <contour>
      <point x="828" y="110" type="line"/>
      <point x="814" y="108"/>
      <point x="808" y="107"/>
      <point x="801" y="107" type="curve" smooth="yes"/>
      <point x="777" y="107"/>
      <point x="757" y="113"/>
      <point x="726" y="129" type="curve"/>
      <point x="786" y="191"/>
      <point x="815" y="268"/>
      <point x="815" y="366" type="curve" smooth="yes"/>
      <point x="815" y="587"/>
      <point x="648" y="752"/>
      <point x="424" y="752" type="curve" smooth="yes"/>
      <point x="202" y="752"/>
      <point x="30" y="585"/>
      <point x="30" y="370" type="curve" smooth="yes"/>
      <point x="30" y="157"/>
      <point x="207" y="-13"/>
      <point x="430" y="-13" type="curve" smooth="yes"/>
      <point x="505" y="-13"/>
      <point x="583" y="9"/>
      <point x="635" y="45" type="curve"/>
      <point x="698" y="2"/>
      <point x="746" y="-15"/>
      <point x="810" y="-15" type="curve" smooth="yes"/>
      <point x="814" y="-15"/>
      <point x="820" y="-15"/>
      <point x="828" y="-14" type="curve"/>
    </contour>
    <contour>
      <point x="519" y="138" type="curve"/>
      <point x="488" y="124"/>
      <point x="467" y="119"/>
      <point x="430" y="119" type="curve" smooth="yes"/>
      <point x="337" y="119"/>
      <point x="267" y="153"/>
      <point x="211" y="227" type="curve"/>
      <point x="243" y="233"/>
      <point x="258" y="235"/>
      <point x="282" y="235" type="curve" smooth="yes"/>
      <point x="363" y="235"/>
      <point x="434" y="206"/>
    </contour>
    <contour>
      <point x="617" y="204" type="curve"/>
      <point x="527" y="293"/>
      <point x="401" y="347"/>
      <point x="283" y="347" type="curve" smooth="yes"/>
      <point x="239" y="347"/>
      <point x="203" y="343"/>
      <point x="169" y="334" type="curve"/>
      <point x="167" y="352"/>
      <point x="167" y="360"/>
      <point x="167" y="369" type="curve" smooth="yes"/>
      <point x="167" y="512"/>
      <point x="277" y="620"/>
      <point x="422" y="620" type="curve" smooth="yes"/>
      <point x="568" y="620"/>
      <point x="677" y="511"/>
      <point x="677" y="364" type="curve" smooth="yes"/>
      <point x="677" y="297"/>
      <point x="657" y="245"/>
    </contour>
  </outline>
</glyph>
<glyph name="R" format="1">
  <advance width="580"/>
  <unicode hex="0052"/>
  <outline>
    <contour>
      <point x="68" y="0" type="line"/>
      <point x="205" y="0" type="line"/>
      <point x="205" y="283" type="line"/>
      <point x="399" y="0" type="line"/>
      <point x="568" y="0" type="line"/>
      <point x="368" y="273" type="line"/>
      <point x="425" y="287"/>
      <point x="453" y="300"/>
      <point x="485" y="327" type="curve" smooth="yes"/>
      <point x="535" y="370"/>
      <point x="561" y="429"/>
      <point x="561" y="502" type="curve" smooth="yes"/>
      <point x="561" y="577"/>
      <point x="534" y="641"/>
      <point x="483" y="684" type="curve" smooth="yes"/>
      <point x="435" y="725"/>
      <point x="382" y="739"/>
      <point x="281" y="739" type="curve" smooth="yes"/>
      <point x="68" y="739" type="line"/>
    </contour>
    <contour>
      <point x="205" y="386" type="line"/>
      <point x="205" y="608" type="line"/>
      <point x="266" y="608" type="line" smooth="yes"/>
      <point x="330" y="608"/>
      <point x="365" y="601"/>
      <point x="387" y="582" type="curve" smooth="yes"/>
      <point x="411" y="563"/>
      <point x="423" y="534"/>
      <point x="423" y="498" type="curve" smooth="yes"/>
      <point x="423" y="420"/>
      <point x="378" y="386"/>
      <point x="272" y="386" type="curve" smooth="yes"/>
    </contour>
  </outline>
</glyph>
<glyph name="V" format="1">
  <advance width="700"/>
  <unicode hex="0056"/>
  <outline>
    <contour>
      <point x="296" y="0" type="line"/>
      <point x="408" y="0" type="line"/>
      <point x="694" y="739" type="line"/>
      <point x="550" y="739" type="line"/>
      <point x="351" y="177" type="line"/>
      <point x="152" y="739" type="line"/>
      <point x="8" y="739" type="line"/>
    </contour>
  </outline>
</glyph>
<glyph name="W" format="1">
  <advance width="900"/>
  <unicode hex="0057"/>
  <outline>
    <contour>
      <point x="224" y="0" type="line"/>
      <point x="332" y="0" type="line"/>
      <point x="454" y="489" type="line"/>
      <point x="573" y="0" type="line"/>
      <point x="682" y="0" type="line"/>
      <point x="898" y="739" type="line"/>
      <point x="758" y="739" type="line"/>
      <point x="627" y="223" type="line"/>
      <point x="503" y="739" type="line"/>
      <point x="403" y="739" type="line"/>
      <point x="277" y="223" type="line"/>
      <point x="147" y="739" type="line"/>
      <point x="7" y="739" type="line"/>
    </contour>
  </outline>
</glyph>
<glyph name="X" format="1">
  <advance width="680"/>
  <unicode hex="0058"/>
  <outline>
    <contour>
      <point x="5" y="0" type="line"/>
      <point x="168" y="0" type="line"/>
      <point x="340" y="255" type="line"/>
      <point x="517" y="0" type="line"/>
      <point x="676" y="0" type="line"/>
      <point x="420" y="368" type="line"/>
      <point x="676" y="739" type="line"/>
      <point x="517" y="739" type="line"/>
      <point x="340" y="481" type="line"/>
      <point x="168" y="739" type="line"/>
      <point x="5" y="739" type="line"/>
      <point x="259" y="368" type="line"/>
    </contour>
  </outline>
</glyph>
<glyph name="Z" format="1">
  <advance width="500"/>
  <unicode hex="005A"/>
  <outline>
    <contour>
      <point x="18" y="116" type="line"/>
      <point x="18" y="0" type="line"/>
      <point x="480" y="0" type="line"/>
      <point x="480" y="131" type="line"/>
      <point x="183" y="131" type="line"/>
      <point x="461" y="616" type="line"/>
      <point x="461" y="739" type="line"/>
      <point x="33" y="739" type="line"/>
      <point x="33" y="608" type="line"/>
      <point x="298" y="608" type="line"/>
    </contour>
  </outline>
</glyph>
<glyph name="bracketleft" format="1">
  <advance width="320"/>
  <unicode hex="005B"/>
  <outline>
    <contour>
      <point x="292" y="739" type="line"/>
      <point x="220" y="718"/>
      <point x="186" y="700"/>
      <point x="150" y="662" type="curve" smooth="yes"/>
      <point x="98" y="607"/>
      <point x="74" y="539"/>
      <point x="74" y="446" type="curve" smooth="yes"/>
      <point x="74" y="187" type="line" smooth="yes"/>
      <point x="74" y="96"/>
      <point x="90" y="29"/>
      <point x="123" y="-23" type="curve" smooth="yes"/>
      <point x="164" y="-86"/>
      <point x="213" y="-119"/>
      <point x="292" y="-137" type="curve"/>
      <point x="292" y="10" type="line"/>
      <point x="257" y="23"/>
      <point x="241" y="37"/>
      <point x="229" y="62" type="curve" smooth="yes"/>
      <point x="216" y="89"/>
      <point x="209" y="124"/>
      <point x="209" y="164" type="curve" smooth="yes"/>
      <point x="209" y="419" type="line" smooth="yes"/>
      <point x="209" y="469"/>
      <point x="216" y="510"/>
      <point x="229" y="539" type="curve" smooth="yes"/>
      <point x="240" y="563"/>
      <point x="256" y="577"/>
      <point x="292" y="592" type="curve"/>
    </contour>
  </outline>
</glyph>
<glyph name="backslash" format="1">
  <advance width="640"/>
  <unicode hex="005C"/>
  <outline>
    <contour>
      <point x="503" y="0" type="line"/>
      <point x="178" y="739" type="line"/>
      <point x="84" y="739" type="line"/>
      <point x="409" y="0" type="line"/>
    </contour>
  </outline>
</glyph>
<glyph name="bracketright" format="1">
  <advance width="320"/>
  <unicode hex="005D"/>
  <outline>
    <contour>
      <point x="37" y="-137" type="line"/>
      <point x="109" y="-116"/>
      <point x="143" y="-97"/>
      <point x="179" y="-60" type="curve" smooth="yes"/>
      <point x="231" y="-5"/>
      <point x="255" y="63"/>
      <point x="255" y="156" type="curve" smooth="yes"/>
      <point x="255" y="415" type="line" smooth="yes"/>
      <point x="255" y="506"/>
      <point x="239" y="573"/>
      <point x="206" y="625" type="curve" smooth="yes"/>
      <point x="166" y="688"/>
      <point x="116" y="721"/>
      <point x="37" y="739" type="curve"/>
      <point x="37" y="592" type="line"/>
      <point x="72" y="578"/>
      <point x="88" y="565"/>
      <point x="100" y="540" type="curve" smooth="yes"/>
      <point x="113" y="513"/>
      <point x="120" y="478"/>
      <point x="120" y="438" type="curve" smooth="yes"/>
      <point x="120" y="183" type="line" smooth="yes"/>
      <point x="120" y="133"/>
      <point x="113" y="92"/>
      <point x="100" y="63" type="curve" smooth="yes"/>
      <point x="89" y="39"/>
      <point x="73" y="25"/>
      <point x="37" y="10" type="curve"/>
    </contour>
  </outline>
</glyph>
<glyph name="asciicircum" format="1">
  <advance width="600"/>
  <unicode hex="005E"/>
  <outline>
    <contour>
      <point x="167" y="313" type="line"/>
      <point x="303" y="589" type="line"/>
      <point x="439" y="313" type="line"/>
      <point x="543" y="363" type="line"/>
      <point x="364" y="739" type="line"/>
      <point x="242" y="739" type="line"/>
      <point x="63" y="363" type="line"/>
    </contour>
  </outline>
</glyph>
<glyph name="grave" format="1">
  <advance width="420"/>
  <unicode hex="0060"/>
  <outline>
    <contour>
      <point x="74" y="737" type="line"/>
      <point x="300" y="613" type="line"/>
      <point x="353" y="692" type="line"/>
      <point x="131" y="825" type="line"/>
    </contour>
  </outline>
</glyph>
<glyph name="b" format="1">
  <advance width="660"/>
  <unicode hex="0062"/>
  <outline>
    <contour>
      <point x="54" y="0" type="line"/>
      <point x="176" y="0" type="line"/>
      <point x="176" y="71" type="line"/>
      <point x="233" y="10"/>
      <point x="286" y="-13"/>
      <point x="368" y="-13" type="curve" smooth="yes"/>
      <point x="454" y="-13"/>
      <point x="522" y="19"/>
      <point x="573" y="84" type="curve" smooth="yes"/>
      <point x="615" y="138"/>
      <point x="638" y="207"/>
      <point x="638" y="281" type="curve" smooth="yes"/>
      <point x="638" y="448"/>
      <point x="518" y="574"/>
      <point x="359" y="574" type="curve" smooth="yes"/>
      <point x="287" y="574"/>
      <point x="238" y="554"/>
      <point x="187" y="503" type="curve"/>
      <point x="187" y="739" type="line"/>
      <point x="54" y="739" type="line"/>
    </contour>
    <contour>
      <point x="340" y="452" type="curve" smooth="yes"/>
      <point x="435" y="452"/>
      <point x="504" y="379"/>
      <point x="504" y="280" type="curve" smooth="yes"/>
      <point x="504" y="179"/>
      <point x="438" y="109"/>
      <point x="343" y="109" type="curve" smooth="yes"/>
      <point x="247" y="109"/>
      <point x="179" y="180"/>
      <point x="179" y="281" type="curve" smooth="yes"/>
      <point x="179" y="381"/>
      <point x="247" y="452"/>
    </contour>
  </outline>
</glyph>
<glyph name="d" format="1">
  <advance width="660"/>
  <unicode hex="0064"/>
  <outline>
    <contour>
      <point x="613" y="739" type="line"/>
      <point x="480" y="739" type="line"/>
      <point x="480" y="505" type="line"/>
      <point x="441" y="548"/>
      <point x="377" y="574"/>
      <point x="307" y="574" type="curve" smooth="yes"/>
      <point x="152" y="574"/>
      <point x="30" y="444"/>
      <point x="30" y="278" type="curve" smooth="yes"/>
      <point x="30" y="114"/>
      <point x="151" y="-13"/>
      <point x="308" y="-13" type="curve" smooth="yes"/>
      <point x="383" y="-13"/>
      <point x="438" y="12"/>
      <point x="491" y="72" type="curve"/>
      <point x="491" y="0" type="line"/>
      <point x="613" y="0" type="line"/>
    </contour>
    <contour>
      <point x="326" y="452" type="curve" smooth="yes"/>
      <point x="419" y="452"/>
      <point x="490" y="377"/>
      <point x="490" y="280" type="curve" smooth="yes"/>
      <point x="490" y="184"/>
      <point x="419" y="109"/>
      <point x="329" y="109" type="curve" smooth="yes"/>
      <point x="236" y="109"/>
      <point x="164" y="186"/>
      <point x="164" y="284" type="curve" smooth="yes"/>
      <point x="164" y="378"/>
      <point x="235" y="452"/>
    </contour>
  </outline>
</glyph>
<glyph name="f" format="1">
  <advance width="280"/>
  <unicode hex="0066"/>
  <outline>
    <contour>
      <point x="58" y="0" type="line"/>
      <point x="191" y="0" type="line"/>
      <point x="191" y="433" type="line"/>
      <point x="266" y="433" type="line"/>
      <point x="266" y="544" type="line"/>
      <point x="191" y="544" type="line"/>
      <point x="192" y="594"/>
      <point x="209" y="611"/>
      <point x="261" y="611" type="curve" smooth="yes"/>
      <point x="274" y="611" type="line"/>
      <point x="274" y="737" type="line"/>
      <point x="258" y="739"/>
      <point x="250" y="739"/>
      <point x="241" y="739" type="curve" smooth="yes"/>
      <point x="184" y="739"/>
      <point x="136" y="718"/>
      <point x="102" y="677" type="curve" smooth="yes"/>
      <point x="75" y="645"/>
      <point x="65" y="613"/>
      <point x="58" y="544" type="curve"/>
      <point x="10" y="544" type="line"/>
      <point x="10" y="433" type="line"/>
      <point x="58" y="433" type="line"/>
    </contour>
  </outline>
</glyph>
<glyph name="g" format="1">
  <advance width="660"/>
  <unicode hex="0067"/>
  <outline>
    <contour>
      <point x="484" y="554" type="line"/>
      <point x="484" y="484" type="line"/>
      <point x="443" y="540"/>
      <point x="383" y="567"/>
      <point x="303" y="567" type="curve" smooth="yes"/>
      <point x="146" y="567"/>
      <point x="30" y="445"/>
      <point x="30" y="281" type="curve" smooth="yes"/>
      <point x="30" y="110"/>
      <point x="144" y="-13"/>
      <point x="302" y="-13" type="curve" smooth="yes"/>
      <point x="380" y="-13"/>
      <point x="432" y="12"/>
      <point x="484" y="73" type="curve"/>
      <point x="479" y="-46"/>
      <point x="428" y="-104"/>
      <point x="329" y="-104" type="curve" smooth="yes"/>
      <point x="267" y="-104"/>
      <point x="229" y="-88"/>
      <point x="190" y="-45" type="curve"/>
      <point x="39" y="-45" type="line"/>
      <point x="84" y="-156"/>
      <point x="188" y="-221"/>
      <point x="324" y="-221" type="curve" smooth="yes"/>
      <point x="424" y="-221"/>
      <point x="503" y="-186"/>
      <point x="555" y="-120" type="curve" smooth="yes"/>
      <point x="594" y="-69"/>
      <point x="611" y="-1"/>
      <point x="611" y="105" type="curve" smooth="yes"/>
      <point x="611" y="554" type="line"/>
    </contour>
    <contour>
      <point x="318" y="445" type="curve" smooth="yes"/>
      <point x="413" y="445"/>
      <point x="478" y="376"/>
      <point x="478" y="275" type="curve" smooth="yes"/>
      <point x="478" y="175"/>
      <point x="415" y="109"/>
      <point x="320" y="109" type="curve" smooth="yes"/>
      <point x="225" y="109"/>
      <point x="164" y="174"/>
      <point x="164" y="275" type="curve" smooth="yes"/>
      <point x="164" y="377"/>
      <point x="225" y="445"/>
    </contour>
  </outline>
</glyph>
<glyph name="h" format="1">
  <advance width="600"/>
  <unicode hex="0068"/>
  <outline>
    <contour>
      <point x="54" y="0" type="line"/>
      <point x="187" y="0" type="line"/>
      <point x="187" y="281" type="line" smooth="yes"/>
      <point x="187" y="336"/>
      <point x="192" y="367"/>
      <point x="206" y="392" type="curve" smooth="yes"/>
      <point x="225" y="426"/>
      <point x="260" y="445"/>
      <point x="304" y="445" type="curve" smooth="yes"/>
      <point x="382" y="445"/>
      <point x="412" y="399"/>
      <point x="412" y="283" type="curve" smooth="yes"/>
      <point x="412" y="0" type="line"/>
      <point x="545" y="0" type="line"/>
      <point x="545" y="313" type="line" smooth="yes"/>
      <point x="545" y="394"/>
      <point x="535" y="439"/>
      <point x="508" y="480" type="curve" smooth="yes"/>
      <point x="471" y="537"/>
      <point x="407" y="568"/>
      <point x="328" y="568" type="curve" smooth="yes"/>
      <point x="271" y="568"/>
      <point x="227" y="552"/>
      <point x="187" y="516" type="curve"/>
      <point x="187" y="739" type="line"/>
      <point x="54" y="739" type="line"/>
    </contour>
  </outline>
</glyph>
<glyph name="m" format="1">
  <advance width="940"/>
  <unicode hex="006D"/>
  <outline>
    <contour>
      <point x="54" y="0" type="line"/>
      <point x="187" y="0" type="line"/>
      <point x="187" y="273" type="line" smooth="yes"/>
      <point x="187" y="328"/>
      <point x="192" y="365"/>
      <point x="201" y="388" type="curve" smooth="yes"/>
      <point x="217" y="424"/>
      <point x="251" y="445"/>
      <point x="295" y="445" type="curve" smooth="yes"/>
      <point x="331" y="445"/>
      <point x="362" y="432"/>
      <point x="380" y="410" type="curve" smooth="yes"/>
      <point x="396" y="389"/>
      <point x="403" y="356"/>
      <point x="403" y="304" type="curve" smooth="yes"/>
      <point x="403" y="0" type="line"/>
      <point x="536" y="0" type="line"/>
      <point x="536" y="273" type="line" smooth="yes"/>
      <point x="536" y="335"/>
      <point x="541" y="366"/>
      <point x="555" y="392" type="curve" smooth="yes"/>
      <point x="572" y="426"/>
      <point x="606" y="445"/>
      <point x="648" y="445" type="curve" smooth="yes"/>
      <point x="681" y="445"/>
      <point x="709" y="433"/>
      <point x="727" y="411" type="curve" smooth="yes"/>
      <point x="745" y="390"/>
      <point x="752" y="359"/>
      <point x="752" y="304" type="curve" smooth="yes"/>
      <point x="752" y="0" type="line"/>
      <point x="885" y="0" type="line"/>
      <point x="885" y="320" type="line" smooth="yes"/>
      <point x="885" y="387"/>
      <point x="873" y="441"/>
      <point x="849" y="479" type="curve" smooth="yes"/>
      <point x="814" y="535"/>
      <point x="744" y="567"/>
      <point x="661" y="567" type="curve" smooth="yes"/>
      <point x="583" y="567"/>
      <point x="528" y="541"/>
      <point x="483" y="481" type="curve"/>
      <point x="445" y="541"/>
      <point x="396" y="567"/>
      <point x="320" y="567" type="curve" smooth="yes"/>
      <point x="255" y="567"/>
      <point x="215" y="549"/>
      <point x="176" y="502" type="curve"/>
      <point x="176" y="554" type="line"/>
      <point x="54" y="554" type="line"/>
    </contour>
  </outline>
</glyph>
<glyph name="q" format="1">
  <advance width="660"/>
  <unicode hex="0071"/>
  <outline>
    <contour>
      <point x="489" y="554" type="line"/>
      <point x="489" y="483" type="line"/>
      <point x="446" y="541"/>
      <point x="390" y="567"/>
      <point x="309" y="567" type="curve" smooth="yes"/>
      <point x="154" y="567"/>
      <point x="30" y="439"/>
      <point x="30" y="279" type="curve" smooth="yes"/>
      <point x="30" y="114"/>
      <point x="152" y="-13"/>
      <point x="311" y="-13" type="curve" smooth="yes"/>
      <point x="379" y="-13"/>
      <point x="434" y="9"/>
      <point x="478" y="53" type="curve"/>
      <point x="478" y="-185" type="line"/>
      <point x="611" y="-185" type="line"/>
      <point x="611" y="554" type="line"/>
    </contour>
    <contour>
      <point x="328" y="445" type="curve" smooth="yes"/>
      <point x="418" y="445"/>
      <point x="486" y="372"/>
      <point x="486" y="275" type="curve" smooth="yes"/>
      <point x="486" y="180"/>
      <point x="418" y="109"/>
      <point x="327" y="109" type="curve" smooth="yes"/>
      <point x="233" y="109"/>
      <point x="164" y="180"/>
      <point x="164" y="276" type="curve" smooth="yes"/>
      <point x="164" y="373"/>
      <point x="234" y="445"/>
    </contour>
  </outline>
</glyph>
<glyph name="r" format="1">
  <advance width="320"/>
  <unicode hex="0072"/>
  <outline>
    <contour>
      <point x="54" y="0" type="line"/>
      <point x="187" y="0" type="line"/>
      <point x="187" y="308" type="line" smooth="yes"/>
      <point x="187" y="394"/>
      <point x="226" y="437"/>
      <point x="306" y="439" type="curve"/>
      <point x="306" y="567" type="line"/>
      <point x="296" y="567" type="line" smooth="yes"/>
      <point x="239" y="567"/>
      <point x="211" y="551"/>
      <point x="176" y="500" type="curve"/>
      <point x="176" y="554" type="line"/>
      <point x="54" y="554" type="line"/>
    </contour>
  </outline>
</glyph>
<glyph name="t" format="1">
  <advance width="300"/>
  <unicode hex="0074"/>
  <outline>
    <contour>
      <point x="74" y="0" type="line"/>
      <point x="207" y="0" type="line"/>
      <point x="207" y="433" type="line"/>
      <point x="287" y="433" type="line"/>
      <point x="287" y="554" type="line"/>
      <point x="207" y="554" type="line"/>
      <point x="207" y="739" type="line"/>
      <point x="74" y="739" type="line"/>
      <point x="74" y="554" type="line"/>
      <point x="9" y="554" type="line"/>
      <point x="9" y="433" type="line"/>
      <point x="74" y="433" type="line"/>
    </contour>
  </outline>
</glyph>
<glyph name="u" format="1">
  <advance width="600"/>
  <unicode hex="0075"/>
  <outline>
    <contour>
      <point x="547" y="554" type="line"/>
      <point x="414" y="554" type="line"/>
      <point x="414" y="293" type="line" smooth="yes"/>
      <point x="414" y="220"/>
      <point x="409" y="184"/>
      <point x="393" y="160" type="curve"/>
      <point x="374" y="128"/>
      <point x="337" y="109"/>
      <point x="292" y="109" type="curve" smooth="yes"/>
      <point x="258" y="109"/>
      <point x="232" y="120"/>
      <point x="214" y="144" type="curve" smooth="yes"/>
      <point x="195" y="168"/>
      <point x="187" y="209"/>
      <point x="187" y="283" type="curve" smooth="yes"/>
      <point x="187" y="554" type="line"/>
      <point x="54" y="554" type="line"/>
      <point x="54" y="257" type="line" smooth="yes"/>
      <point x="54" y="163"/>
      <point x="65" y="115"/>
      <point x="96" y="69" type="curve" smooth="yes"/>
      <point x="133" y="16"/>
      <point x="193" y="-13"/>
      <point x="265" y="-13" type="curve" smooth="yes"/>
      <point x="332" y="-13"/>
      <point x="374" y="4"/>
      <point x="424" y="53" type="curve"/>
      <point x="424" y="0" type="line"/>
      <point x="547" y="0" type="line"/>
    </contour>
  </outline>
</glyph>
<glyph name="v" format="1">
  <advance width="560"/>
  <unicode hex="0076"/>
  <outline>
    <contour>
      <point x="224" y="0" type="line"/>
      <point x="330" y="0" type="line"/>
      <point x="553" y="554" type="line"/>
      <point x="403" y="554" type="line"/>
      <point x="277" y="187" type="line"/>
      <point x="149" y="554" type="line"/>
      <point x="1" y="554" type="line"/>
    </contour>
  </outline>
</glyph>
<glyph name="w" format="1">
  <advance width="800"/>
  <unicode hex="0077"/>
  <outline>
    <contour>
      <point x="208" y="0" type="line"/>
      <point x="290" y="0" type="line"/>
      <point x="397" y="359" type="line"/>
      <point x="502" y="0" type="line"/>
      <point x="585" y="0" type="line"/>
      <point x="785" y="554" type="line"/>
      <point x="643" y="554" type="line"/>
      <point x="542" y="216" type="line"/>
      <point x="451" y="554" type="line"/>
      <point x="345" y="554" type="line"/>
      <point x="252" y="216" type="line"/>
      <point x="153" y="554" type="line"/>
      <point x="10" y="554" type="line"/>
    </contour>
  </outline>
</glyph>
<glyph name="x" format="1">
  <advance width="560"/>
  <unicode hex="0078"/>
  <outline>
    <contour>
      <point x="1" y="0" type="line"/>
      <point x="161" y="0" type="line"/>
      <point x="277" y="190" type="line"/>
      <point x="393" y="0" type="line"/>
      <point x="553" y="0" type="line"/>
      <point x="356" y="286" type="line"/>
      <point x="525" y="554" type="line"/>
      <point x="375" y="554" type="line"/>
      <point x="277" y="387" type="line"/>
      <point x="177" y="554" type="line"/>
      <point x="27" y="554" type="line"/>
      <point x="197" y="286" type="line"/>
    </contour>
  </outline>
</glyph>
<glyph name="y" format="1">
  <advance width="580"/>
  <unicode hex="0079"/>
  <outline>
    <contour>
      <point x="105" y="-185" type="line"/>
      <point x="248" y="-185" type="line"/>
      <point x="568" y="554" type="line"/>
      <point x="415" y="554" type="line"/>
      <point x="281" y="195" type="line"/>
      <point x="158" y="554" type="line"/>
      <point x="6" y="554" type="line"/>
      <point x="209" y="52" type="line"/>
    </contour>
  </outline>
</glyph>
<glyph name="braceleft" format="1">
  <advance width="340"/>
  <unicode hex="007B"/>
  <outline>
    <contour>
      <point x="223" y="557" type="line" smooth="yes"/>
      <point x="223" y="642"/>
      <point x="231" y="653"/>
      <point x="302" y="659" type="curve"/>
      <point x="302" y="739" type="line"/>
      <point x="287" y="740"/>
      <point x="269" y="740"/>
      <point x="261" y="740" type="curve" smooth="yes"/>
      <point x="160" y="740"/>
      <point x="118" y="699"/>
      <point x="118" y="601" type="curve" smooth="yes"/>
      <point x="118" y="444" type="line" smooth="yes"/>
      <point x="118" y="384"/>
      <point x="93" y="353"/>
      <point x="37" y="346" type="curve"/>
      <point x="37" y="265" type="line"/>
      <point x="93" y="258"/>
      <point x="118" y="227"/>
      <point x="118" y="167" type="curve" smooth="yes"/>
      <point x="118" y="10" type="line" smooth="yes"/>
      <point x="118" y="-88"/>
      <point x="160" y="-129"/>
      <point x="261" y="-129" type="curve" smooth="yes"/>
      <point x="269" y="-129"/>
      <point x="287" y="-129"/>
      <point x="302" y="-128" type="curve"/>
      <point x="302" y="-48" type="line"/>
      <point x="231" y="-42"/>
      <point x="223" y="-31"/>
      <point x="223" y="54" type="curve" smooth="yes"/>
      <point x="223" y="177" type="line" smooth="yes"/>
      <point x="223" y="255"/>
      <point x="199" y="289"/>
      <point x="133" y="305" type="curve"/>
      <point x="200" y="323"/>
      <point x="223" y="356"/>
      <point x="223" y="434" type="curve" smooth="yes"/>
    </contour>
  </outline>
</glyph>
<glyph name="braceright" format="1">
  <advance width="340"/>
  <unicode hex="007D"/>
  <outline>
    <contour>
      <point x="117" y="54" type="line" smooth="yes"/>
      <point x="117" y="-31"/>
      <point x="109" y="-42"/>
      <point x="38" y="-48" type="curve"/>
      <point x="38" y="-128" type="line"/>
      <point x="53" y="-129"/>
      <point x="71" y="-129"/>
      <point x="79" y="-129" type="curve" smooth="yes"/>
      <point x="180" y="-129"/>
      <point x="222" y="-88"/>
      <point x="222" y="10" type="curve" smooth="yes"/>
      <point x="222" y="167" type="line" smooth="yes"/>
      <point x="222" y="227"/>
      <point x="247" y="258"/>
      <point x="303" y="265" type="curve"/>
      <point x="303" y="346" type="line"/>
      <point x="247" y="353"/>
      <point x="222" y="384"/>
      <point x="222" y="444" type="curve" smooth="yes"/>
      <point x="222" y="601" type="line" smooth="yes"/>
      <point x="222" y="699"/>
      <point x="180" y="740"/>
      <point x="79" y="740" type="curve" smooth="yes"/>
      <point x="71" y="740"/>
      <point x="53" y="740"/>
      <point x="38" y="739" type="curve"/>
      <point x="38" y="659" type="line"/>
      <point x="109" y="653"/>
      <point x="117" y="642"/>
      <point x="117" y="557" type="curve" smooth="yes"/>
      <point x="117" y="434" type="line" smooth="yes"/>
      <point x="117" y="356"/>
      <point x="141" y="322"/>
      <point x="207" y="306" type="curve"/>
      <point x="140" y="288"/>
      <point x="117" y="255"/>
      <point x="117" y="177" type="curve" smooth="yes"/>
    </contour>
  </outline>
</glyph>
<glyph name="asciitilde" format="1">
  <advance width="600"/>
  <unicode hex="007E"/>
  <outline>
    <contour>
      <point x="491" y="421" type="line"/>
      <point x="465" y="374"/>
      <point x="437" y="347"/>
      <point x="414" y="347" type="curve" smooth="yes"/>
      <point x="397" y="347"/>
      <point x="397" y="347"/>
      <point x="343" y="369" type="curve" smooth="yes"/>
      <point x="276" y="396" type="line" smooth="yes"/>
      <point x="252" y="406"/>
      <point x="222" y="412"/>
      <point x="199" y="412" type="curve" smooth="yes"/>
      <point x="161" y="412"/>
      <point x="124" y="393"/>
      <point x="99" y="361" type="curve" smooth="yes"/>
      <point x="83" y="342"/>
      <point x="76" y="330"/>
      <point x="51" y="289" type="curve"/>
      <point x="114" y="214" type="line"/>
      <point x="117" y="219"/>
      <point x="120" y="223"/>
      <point x="121" y="224" type="curve"/>
      <point x="148" y="267"/>
      <point x="148" y="267"/>
      <point x="154" y="273" type="curve" smooth="yes"/>
      <point x="168" y="288"/>
      <point x="183" y="295"/>
      <point x="201" y="295" type="curve" smooth="yes"/>
      <point x="216" y="295"/>
      <point x="230" y="291"/>
      <point x="265" y="276" type="curve" smooth="yes"/>
      <point x="319" y="254" type="line" smooth="yes"/>
      <point x="355" y="239"/>
      <point x="390" y="230"/>
      <point x="410" y="230" type="curve" smooth="yes"/>
      <point x="464" y="230"/>
      <point x="503" y="261"/>
      <point x="555" y="347" type="curve"/>
    </contour>
  </outline>
</glyph>
<glyph name="exclamdown" format="1">
  <advance width="280"/>
  <unicode hex="00A1"/>
  <outline>
    <contour>
      <point x="205" y="366" type="line"/>
      <point x="72" y="366" type="line"/>
      <point x="72" y="-185" type="line"/>
      <point x="205" y="-185" type="line"/>
    </contour>
    <contour>
      <point x="205" y="554" type="line"/>
      <point x="72" y="554" type="line"/>
      <point x="72" y="426" type="line"/>
      <point x="205" y="426" type="line"/>
    </contour>
  </outline>
</glyph>
<glyph name="cent" format="1">
  <advance width="560"/>
  <unicode hex="00A2"/>
  <outline>
    <contour>
      <point x="343" y="39" type="line"/>
      <point x="343" y="148" type="line"/>
      <point x="423" y="169"/>
      <point x="476" y="221"/>
      <point x="511" y="310" type="curve"/>
      <point x="365" y="310" type="line"/>
      <point x="340" y="282"/>
      <point x="313" y="270"/>
      <point x="280" y="270" type="curve" smooth="yes"/>
      <point x="218" y="270"/>
      <point x="172" y="316"/>
      <point x="172" y="379" type="curve" smooth="yes"/>
      <point x="172" y="442"/>
      <point x="217" y="489"/>
      <point x="276" y="489" type="curve" smooth="yes"/>
      <point x="313" y="489"/>
      <point x="349" y="471"/>
      <point x="369" y="443" type="curve"/>
      <point x="511" y="443" type="line"/>
      <point x="493" y="525"/>
      <point x="429" y="590"/>
      <point x="343" y="611" type="curve"/>
      <point x="343" y="715" type="line"/>
      <point x="218" y="715" type="line"/>
      <point x="218" y="611" type="line"/>
      <point x="170" y="599"/>
      <point x="143" y="585"/>
      <point x="113" y="556" type="curve" smooth="yes"/>
      <point x="66" y="511"/>
      <point x="39" y="447"/>
      <point x="39" y="381" type="curve" smooth="yes"/>
      <point x="39" y="316"/>
      <point x="64" y="253"/>
      <point x="106" y="210" type="curve" smooth="yes"/>
      <point x="139" y="175"/>
      <point x="170" y="159"/>
      <point x="218" y="148" type="curve"/>
      <point x="218" y="39" type="line"/>
    </contour>
  </outline>
</glyph>
<glyph name="sterling" format="1">
  <advance width="560"/>
  <unicode hex="00A3"/>
  <outline>
    <contour>
      <point x="41" y="0" type="line"/>
      <point x="301" y="0" type="line" smooth="yes"/>
      <point x="393" y="0"/>
      <point x="441" y="14"/>
      <point x="488" y="54" type="curve" smooth="yes"/>
      <point x="535" y="95"/>
      <point x="563" y="157"/>
      <point x="563" y="222" type="curve" smooth="yes"/>
      <point x="563" y="240"/>
      <point x="560" y="253"/>
      <point x="552" y="274" type="curve"/>
      <point x="420" y="274" type="line"/>
      <point x="428" y="248"/>
      <point x="430" y="236"/>
      <point x="430" y="220" type="curve" smooth="yes"/>
      <point x="430" y="185"/>
      <point x="412" y="153"/>
      <point x="382" y="137" type="curve" smooth="yes"/>
      <point x="366" y="128"/>
      <point x="349" y="125"/>
      <point x="320" y="125" type="curve"/>
      <point x="328" y="148"/>
      <point x="333" y="179"/>
      <point x="333" y="200" type="curve" smooth="yes"/>
      <point x="333" y="235"/>
      <point x="324" y="265"/>
      <point x="301" y="310" type="curve"/>
      <point x="408" y="310" type="line"/>
      <point x="408" y="435" type="line"/>
      <point x="201" y="435" type="line"/>
      <point x="183" y="457"/>
      <point x="174" y="481"/>
      <point x="174" y="511" type="curve" smooth="yes"/>
      <point x="174" y="578"/>
      <point x="221" y="630"/>
      <point x="281" y="630" type="curve" smooth="yes"/>
      <point x="329" y="630"/>
      <point x="364" y="598"/>
      <point x="379" y="541" type="curve"/>
      <point x="514" y="541" type="line"/>
      <point x="503" y="666"/>
      <point x="407" y="752"/>
      <point x="280" y="752" type="curve" smooth="yes"/>
      <point x="147" y="752"/>
      <point x="41" y="648"/>
      <point x="41" y="516" type="curve" smooth="yes"/>
      <point x="41" y="486"/>
      <point x="46" y="462"/>
      <point x="58" y="435" type="curve"/>
      <point x="0" y="435" type="line"/>
      <point x="0" y="310" type="line"/>
      <point x="142" y="310" type="line"/>
      <point x="184" y="271"/>
      <point x="200" y="239"/>
      <point x="200" y="198" type="curve" smooth="yes"/>
      <point x="200" y="171"/>
      <point x="193" y="147"/>
      <point x="180" y="125" type="curve"/>
      <point x="41" y="125" type="line"/>
    </contour>
  </outline>
</glyph>
<glyph name="currency" format="1">
  <advance width="560"/>
  <unicode hex="00A4"/>
  <outline>
    <contour>
      <point x="27" y="574" type="line"/>
      <point x="69" y="529" type="line"/>
      <point x="40" y="474"/>
      <point x="33" y="449"/>
      <point x="33" y="400" type="curve" smooth="yes"/>
      <point x="33" y="351"/>
      <point x="40" y="327"/>
      <point x="69" y="272" type="curve"/>
      <point x="27" y="229" type="line"/>
      <point x="106" y="148" type="line"/>
      <point x="150" y="190" type="line"/>
      <point x="191" y="166"/>
      <point x="236" y="153"/>
      <point x="281" y="153" type="curve" smooth="yes"/>
      <point x="325" y="153"/>
      <point x="372" y="166"/>
      <point x="412" y="190" type="curve"/>
      <point x="456" y="148" type="line"/>
      <point x="533" y="228" type="line"/>
      <point x="491" y="271" type="line"/>
      <point x="520" y="317"/>
      <point x="529" y="349"/>
      <point x="529" y="399" type="curve" smooth="yes"/>
      <point x="529" y="449"/>
      <point x="521" y="479"/>
      <point x="492" y="529" type="curve"/>
      <point x="534" y="572" type="line"/>
      <point x="457" y="653" type="line"/>
      <point x="412" y="610" type="line"/>
      <point x="369" y="634"/>
      <point x="327" y="646"/>
      <point x="280" y="646" type="curve" smooth="yes"/>
      <point x="234" y="646"/>
      <point x="193" y="635"/>
      <point x="152" y="610" type="curve"/>
      <point x="107" y="654" type="line"/>
    </contour>
    <contour>
      <point x="284" y="526" type="curve" smooth="yes"/>
      <point x="351" y="526"/>
      <point x="407" y="468"/>
      <point x="407" y="399" type="curve" smooth="yes"/>
      <point x="407" y="329"/>
      <point x="351" y="273"/>
      <point x="281" y="273" type="curve" smooth="yes"/>
      <point x="211" y="273"/>
      <point x="153" y="331"/>
      <point x="153" y="400" type="curve" smooth="yes"/>
      <point x="153" y="470"/>
      <point x="211" y="526"/>
    </contour>
  </outline>
</glyph>
<glyph name="yen" format="1">
  <advance width="560"/>
  <unicode hex="00A5"/>
  <outline>
    <contour>
      <point x="208" y="0" type="line"/>
      <point x="341" y="0" type="line"/>
      <point x="341" y="187" type="line"/>
      <point x="538" y="187" type="line"/>
      <point x="538" y="275" type="line"/>
      <point x="341" y="275" type="line"/>
      <point x="398" y="380" type="line"/>
      <point x="538" y="380" type="line"/>
      <point x="538" y="468" type="line"/>
      <point x="446" y="468" type="line"/>
      <point x="589" y="739" type="line"/>
      <point x="435" y="739" type="line"/>
      <point x="274" y="398" type="line"/>
      <point x="114" y="739" type="line"/>
      <point x="-35" y="739" type="line"/>
      <point x="106" y="468" type="line"/>
      <point x="12" y="468" type="line"/>
      <point x="12" y="380" type="line"/>
      <point x="152" y="380" type="line"/>
      <point x="208" y="275" type="line"/>
      <point x="12" y="275" type="line"/>
      <point x="12" y="187" type="line"/>
      <point x="208" y="187" type="line"/>
    </contour>
  </outline>
</glyph>
<glyph name="section" format="1">
  <advance width="560"/>
  <unicode hex="00A7"/>
  <outline>
    <contour>
      <point x="497" y="563" type="line"/>
      <point x="481" y="687"/>
      <point x="410" y="752"/>
      <point x="291" y="752" type="curve" smooth="yes"/>
      <point x="173" y="752"/>
      <point x="90" y="684"/>
      <point x="90" y="586" type="curve" smooth="yes"/>
      <point x="90" y="551"/>
      <point x="99" y="522"/>
      <point x="118" y="493" type="curve"/>
      <point x="63" y="452"/>
      <point x="40" y="408"/>
      <point x="40" y="347" type="curve" smooth="yes"/>
      <point x="40" y="274"/>
      <point x="73" y="221"/>
      <point x="141" y="187" type="curve" smooth="yes"/>
      <point x="304" y="103" type="line" smooth="yes"/>
      <point x="362" y="73"/>
      <point x="377" y="58"/>
      <point x="377" y="30" type="curve" smooth="yes"/>
      <point x="377" y="-7"/>
      <point x="340" y="-35"/>
      <point x="290" y="-35" type="curve" smooth="yes"/>
      <point x="248" y="-35"/>
      <point x="214" y="-17"/>
      <point x="200" y="12" type="curve"/>
      <point x="195" y="24"/>
      <point x="194" y="32"/>
      <point x="194" y="55" type="curve"/>
      <point x="60" y="55" type="line"/>
      <point x="65" y="-4"/>
      <point x="77" y="-38"/>
      <point x="106" y="-75" type="curve" smooth="yes"/>
      <point x="147" y="-128"/>
      <point x="212" y="-157"/>
      <point x="289" y="-157" type="curve" smooth="yes"/>
      <point x="415" y="-157"/>
      <point x="504" y="-79"/>
      <point x="504" y="31" type="curve" smooth="yes"/>
      <point x="504" y="79"/>
      <point x="489" y="114"/>
      <point x="454" y="150" type="curve"/>
      <point x="502" y="186"/>
      <point x="529" y="238"/>
      <point x="529" y="292" type="curve" smooth="yes"/>
      <point x="529" y="351"/>
      <point x="495" y="405"/>
      <point x="442" y="431" type="curve" smooth="yes"/>
      <point x="278" y="512" type="line" smooth="yes"/>
      <point x="238" y="531"/>
      <point x="217" y="555"/>
      <point x="217" y="582" type="curve" smooth="yes"/>
      <point x="217" y="611"/>
      <point x="243" y="630"/>
      <point x="285" y="630" type="curve" smooth="yes"/>
      <point x="336" y="630"/>
      <point x="362" y="609"/>
      <point x="371" y="563" type="curve"/>
    </contour>
    <contour>
      <point x="345" y="339" type="line" smooth="yes"/>
      <point x="393" y="315"/>
      <point x="405" y="302"/>
      <point x="405" y="278" type="curve" smooth="yes"/>
      <point x="405" y="255"/>
      <point x="391" y="231"/>
      <point x="368" y="215" type="curve"/>
      <point x="217" y="291" type="line" smooth="yes"/>
      <point x="174" y="313"/>
      <point x="157" y="331"/>
      <point x="157" y="354" type="curve" smooth="yes"/>
      <point x="157" y="375"/>
      <point x="168" y="391"/>
      <point x="196" y="413" type="curve"/>
    </contour>
  </outline>
</glyph>
<glyph name="dieresis" format="1">
  <advance width="500"/>
  <unicode hex="00A8"/>
  <outline>
    <contour>
      <point x="74" y="630" type="line"/>
      <point x="207" y="630" type="line"/>
      <point x="207" y="763" type="line"/>
      <point x="74" y="763" type="line"/>
    </contour>
    <contour>
      <point x="284" y="630" type="line"/>
      <point x="417" y="630" type="line"/>
      <point x="417" y="763" type="line"/>
      <point x="284" y="763" type="line"/>
    </contour>
  </outline>
</glyph>
<glyph name="copyright" format="1">
  <advance width="740"/>
  <unicode hex="00A9"/>
  <outline>
    <contour>
      <point x="477" y="320" type="line"/>
      <point x="455" y="274"/>
      <point x="421" y="250"/>
      <point x="377" y="250" type="curve" smooth="yes"/>
      <point x="315" y="250"/>
      <point x="266" y="304"/>
      <point x="266" y="374" type="curve" smooth="yes"/>
      <point x="266" y="442"/>
      <point x="314" y="495"/>
      <point x="377" y="495" type="curve" smooth="yes"/>
      <point x="422" y="495"/>
      <point x="461" y="467"/>
      <point x="477" y="422" type="curve"/>
      <point x="588" y="422" type="line"/>
      <point x="572" y="515"/>
      <point x="480" y="588"/>
      <point x="377" y="588" type="curve" smooth="yes"/>
      <point x="256" y="588"/>
      <point x="161" y="493"/>
      <point x="161" y="373" type="curve" smooth="yes"/>
      <point x="161" y="253"/>
      <point x="258" y="157"/>
      <point x="379" y="157" type="curve" smooth="yes"/>
      <point x="480" y="157"/>
      <point x="564" y="222"/>
      <point x="588" y="320" type="curve"/>
    </contour>
    <contour>
      <point x="373" y="752" type="curve" smooth="yes"/>
      <point x="161" y="752"/>
      <point x="-12" y="580"/>
      <point x="-12" y="370" type="curve" smooth="yes"/>
      <point x="-12" y="159"/>
      <point x="161" y="-13"/>
      <point x="374" y="-13" type="curve" smooth="yes"/>
      <point x="584" y="-13"/>
      <point x="759" y="159"/>
      <point x="759" y="365" type="curve" smooth="yes"/>
      <point x="759" y="581"/>
      <point x="589" y="752"/>
    </contour>
    <contour>
      <point x="373" y="675" type="curve" smooth="yes"/>
      <point x="544" y="675"/>
      <point x="679" y="539"/>
      <point x="679" y="366" type="curve" smooth="yes"/>
      <point x="679" y="203"/>
      <point x="540" y="67"/>
      <point x="373" y="67" type="curve" smooth="yes"/>
      <point x="205" y="67"/>
      <point x="68" y="203"/>
      <point x="68" y="370" type="curve" smooth="yes"/>
      <point x="68" y="538"/>
      <point x="205" y="675"/>
    </contour>
  </outline>
</glyph>
<glyph name="ordfeminine" format="1">
  <advance width="360"/>
  <unicode hex="00AA"/>
  <outline>
    <contour>
      <point x="338" y="739" type="line"/>
      <point x="272" y="739" type="line"/>
      <point x="272" y="700" type="line"/>
      <point x="246" y="733"/>
      <point x="214" y="750"/>
      <point x="175" y="750" type="curve" smooth="yes"/>
      <point x="93" y="750"/>
      <point x="28" y="680"/>
      <point x="28" y="592" type="curve" smooth="yes"/>
      <point x="28" y="501"/>
      <point x="90" y="431"/>
      <point x="170" y="431" type="curve" smooth="yes"/>
      <point x="210" y="431"/>
      <point x="247" y="449"/>
      <point x="272" y="482" type="curve"/>
      <point x="272" y="441" type="line"/>
      <point x="338" y="441" type="line"/>
    </contour>
    <contour>
      <point x="185" y="676" type="curve" smooth="yes"/>
      <point x="231" y="676"/>
      <point x="266" y="639"/>
      <point x="266" y="591" type="curve" smooth="yes"/>
      <point x="266" y="543"/>
      <point x="230" y="505"/>
      <point x="185" y="505" type="curve" smooth="yes"/>
      <point x="140" y="505"/>
      <point x="104" y="543"/>
      <point x="104" y="589" type="curve" smooth="yes"/>
      <point x="104" y="637"/>
      <point x="140" y="676"/>
    </contour>
    <contour>
      <point x="31" y="310" type="line"/>
      <point x="342" y="310" type="line"/>
      <point x="342" y="380" type="line"/>
      <point x="31" y="380" type="line"/>
    </contour>
  </outline>
</glyph>
<glyph name="guillemotleft" format="1">
  <advance width="460"/>
  <unicode hex="00AB"/>
  <outline>
    <contour>
      <point x="388" y="108" type="line"/>
      <point x="388" y="231" type="line"/>
      <point x="321" y="289" type="line"/>
      <point x="388" y="346" type="line"/>
      <point x="388" y="469" type="line"/>
      <point x="249" y="339" type="line"/>
      <point x="249" y="239" type="line"/>
    </contour>
    <contour>
      <point x="175" y="108" type="line"/>
      <point x="175" y="231" type="line"/>
      <point x="108" y="289" type="line"/>
      <point x="175" y="346" type="line"/>
      <point x="175" y="469" type="line"/>
      <point x="36" y="339" type="line"/>
      <point x="36" y="239" type="line"/>
    </contour>
  </outline>
</glyph>
<glyph name="logicalnot" format="1">
  <advance width="600"/>
  <unicode hex="00AC"/>
  <outline>
    <contour>
      <point x="51" y="473" type="line"/>
      <point x="51" y="359" type="line"/>
      <point x="441" y="359" type="line"/>
      <point x="441" y="182" type="line"/>
      <point x="555" y="182" type="line"/>
      <point x="555" y="473" type="line"/>
    </contour>
  </outline>
</glyph>
<glyph name="registered" format="1">
  <advance width="740"/>
  <unicode hex="00AE"/>
  <outline>
    <contour>
      <point x="229" y="166" type="line"/>
      <point x="330" y="166" type="line"/>
      <point x="330" y="300" type="line"/>
      <point x="426" y="166" type="line"/>
      <point x="547" y="166" type="line"/>
      <point x="435" y="307" type="line"/>
      <point x="497" y="318"/>
      <point x="537" y="369"/>
      <point x="537" y="437" type="curve" smooth="yes"/>
      <point x="537" y="481"/>
      <point x="518" y="524"/>
      <point x="486" y="549" type="curve" smooth="yes"/>
      <point x="458" y="572"/>
      <point x="429" y="579"/>
      <point x="360" y="579" type="curve" smooth="yes"/>
      <point x="229" y="579" type="line"/>
    </contour>
    <contour>
      <point x="330" y="372" type="line"/>
      <point x="330" y="486" type="line"/>
      <point x="368" y="486" type="line" smooth="yes"/>
      <point x="412" y="486"/>
      <point x="436" y="466"/>
      <point x="436" y="430" type="curve" smooth="yes"/>
      <point x="436" y="393"/>
      <point x="411" y="372"/>
      <point x="367" y="372" type="curve" smooth="yes"/>
    </contour>
    <contour>
      <point x="373" y="752" type="curve" smooth="yes"/>
      <point x="161" y="752"/>
      <point x="-12" y="580"/>
      <point x="-12" y="370" type="curve" smooth="yes"/>
      <point x="-12" y="159"/>
      <point x="161" y="-13"/>
      <point x="374" y="-13" type="curve" smooth="yes"/>
      <point x="584" y="-13"/>
      <point x="759" y="159"/>
      <point x="759" y="365" type="curve" smooth="yes"/>
      <point x="759" y="581"/>
      <point x="589" y="752"/>
    </contour>
    <contour>
      <point x="373" y="675" type="curve" smooth="yes"/>
      <point x="544" y="675"/>
      <point x="679" y="539"/>
      <point x="679" y="366" type="curve" smooth="yes"/>
      <point x="679" y="203"/>
      <point x="540" y="67"/>
      <point x="373" y="67" type="curve" smooth="yes"/>
      <point x="205" y="67"/>
      <point x="68" y="203"/>
      <point x="68" y="370" type="curve" smooth="yes"/>
      <point x="68" y="538"/>
      <point x="205" y="675"/>
    </contour>
  </outline>
</glyph>
<glyph name="macron" format="1">
  <advance width="420"/>
  <unicode hex="00AF"/>
  <outline>
    <contour>
      <point x="74" y="648" type="line"/>
      <point x="351" y="648" type="line"/>
      <point x="351" y="748" type="line"/>
      <point x="74" y="748" type="line"/>
    </contour>
  </outline>
</glyph>
<glyph name="plusminus" format="1">
  <advance width="600"/>
  <unicode hex="00B1"/>
  <outline>
    <contour>
      <point x="243" y="458" type="line"/>
      <point x="51" y="458" type="line"/>
      <point x="51" y="340" type="line"/>
      <point x="243" y="340" type="line"/>
      <point x="243" y="175" type="line"/>
      <point x="363" y="175" type="line"/>
      <point x="363" y="340" type="line"/>
      <point x="555" y="340" type="line"/>
      <point x="555" y="458" type="line"/>
      <point x="363" y="458" type="line"/>
      <point x="363" y="653" type="line"/>
      <point x="243" y="653" type="line"/>
    </contour>
    <contour>
      <point x="555" y="118" type="line"/>
      <point x="51" y="118" type="line"/>
      <point x="51" y="0" type="line"/>
      <point x="555" y="0" type="line"/>
    </contour>
  </outline>
</glyph>
<glyph name="acute" format="1">
  <advance width="420"/>
  <unicode hex="00B4"/>
  <outline>
    <contour>
      <point x="125" y="613" type="line"/>
      <point x="352" y="733" type="line"/>
      <point x="298" y="825" type="line"/>
      <point x="74" y="691" type="line"/>
    </contour>
  </outline>
</glyph>
<glyph name="paragraph" format="1">
  <advance width="600"/>
  <unicode hex="00B6"/>
  <outline>
    <contour>
      <point x="241" y="-128" type="line"/>
      <point x="342" y="-128" type="line"/>
      <point x="342" y="632" type="line"/>
      <point x="426" y="632" type="line"/>
      <point x="426" y="-128" type="line"/>
      <point x="527" y="-128" type="line"/>
      <point x="527" y="739" type="line"/>
      <point x="309" y="739" type="line" smooth="yes"/>
      <point x="231" y="739"/>
      <point x="172" y="729"/>
      <point x="134" y="708" type="curve" smooth="yes"/>
      <point x="73" y="675"/>
      <point x="37" y="610"/>
      <point x="37" y="533" type="curve" smooth="yes"/>
      <point x="37" y="414"/>
      <point x="119" y="332"/>
      <point x="241" y="330" type="curve"/>
    </contour>
  </outline>
</glyph>
<glyph name="cedilla" format="1">
  <advance width="340"/>
  <unicode hex="00B8"/>
  <outline>
    <contour>
      <point x="119" y="0" type="line"/>
      <point x="83" y="-107" type="line"/>
      <point x="135" y="-133" type="line"/>
      <point x="149" y="-113"/>
      <point x="159" y="-106"/>
      <point x="173" y="-106" type="curve" smooth="yes"/>
      <point x="195" y="-106"/>
      <point x="212" y="-126"/>
      <point x="212" y="-150" type="curve" smooth="yes"/>
      <point x="212" y="-175"/>
      <point x="194" y="-196"/>
      <point x="173" y="-196" type="curve" smooth="yes"/>
      <point x="156" y="-196"/>
      <point x="144" y="-186"/>
      <point x="135" y="-166" type="curve"/>
      <point x="74" y="-166" type="line"/>
      <point x="82" y="-216"/>
      <point x="123" y="-251"/>
      <point x="174" y="-251" type="curve" smooth="yes"/>
      <point x="231" y="-251"/>
      <point x="270" y="-211"/>
      <point x="270" y="-152" type="curve" smooth="yes"/>
      <point x="270" y="-97"/>
      <point x="228" y="-51"/>
      <point x="179" y="-51" type="curve" smooth="yes"/>
      <point x="170" y="-51"/>
      <point x="163" y="-53"/>
      <point x="150" y="-58" type="curve"/>
      <point x="171" y="0" type="line"/>
    </contour>
  </outline>
</glyph>
<glyph name="ordmasculine" format="1">
  <advance width="360"/>
  <unicode hex="00BA"/>
  <outline>
    <contour>
      <point x="185" y="750" type="curve" smooth="yes"/>
      <point x="101" y="750"/>
      <point x="31" y="681"/>
      <point x="31" y="599" type="curve" smooth="yes"/>
      <point x="31" y="513"/>
      <point x="100" y="442"/>
      <point x="184" y="442" type="curve" smooth="yes"/>
      <point x="270" y="442"/>
      <point x="338" y="510"/>
      <point x="338" y="596" type="curve" smooth="yes"/>
      <point x="338" y="682"/>
      <point x="270" y="750"/>
    </contour>
    <contour>
      <point x="185" y="680" type="curve" smooth="yes"/>
      <point x="228" y="680"/>
      <point x="265" y="642"/>
      <point x="265" y="597" type="curve" smooth="yes"/>
      <point x="265" y="551"/>
      <point x="230" y="516"/>
      <point x="184" y="516" type="curve" smooth="yes"/>
      <point x="138" y="516"/>
      <point x="104" y="551"/>
      <point x="104" y="599" type="curve" smooth="yes"/>
      <point x="104" y="643"/>
      <point x="141" y="680"/>
    </contour>
    <contour>
      <point x="31" y="311" type="line"/>
      <point x="338" y="311" type="line"/>
      <point x="338" y="381" type="line"/>
      <point x="31" y="381" type="line"/>
    </contour>
  </outline>
</glyph>
<glyph name="guillemotright" format="1">
  <advance width="460"/>
  <unicode hex="00BB"/>
  <outline>
    <contour>
      <point x="73" y="108" type="line"/>
      <point x="212" y="239" type="line"/>
      <point x="212" y="339" type="line"/>
      <point x="73" y="469" type="line"/>
      <point x="73" y="346" type="line"/>
      <point x="140" y="289" type="line"/>
      <point x="73" y="231" type="line"/>
    </contour>
    <contour>
      <point x="286" y="108" type="line"/>
      <point x="425" y="239" type="line"/>
      <point x="425" y="339" type="line"/>
      <point x="286" y="469" type="line"/>
      <point x="286" y="346" type="line"/>
      <point x="353" y="289" type="line"/>
      <point x="286" y="231" type="line"/>
    </contour>
  </outline>
</glyph>
<glyph name="onequarter" format="1">
  <advance width="840"/>
  <unicode hex="00BC"/>
  <outline>
    <contour>
      <point x="220" y="0" type="line"/>
      <point x="315" y="0" type="line"/>
      <point x="621" y="739" type="line"/>
      <point x="526" y="739" type="line"/>
    </contour>
    <contour>
      <point x="506" y="133" type="line"/>
      <point x="506" y="66" type="line"/>
      <point x="700" y="66" type="line"/>
      <point x="700" y="0" type="line"/>
      <point x="788" y="0" type="line"/>
      <point x="788" y="66" type="line"/>
      <point x="836" y="66" type="line"/>
      <point x="836" y="142" type="line"/>
      <point x="788" y="142" type="line"/>
      <point x="788" y="443" type="line"/>
      <point x="714" y="443" type="line"/>
    </contour>
    <contour>
      <point x="700" y="142" type="line"/>
      <point x="598" y="142" type="line"/>
      <point x="700" y="296" type="line"/>
    </contour>
    <contour>
      <point x="153" y="296" type="line"/>
      <point x="241" y="296" type="line"/>
      <point x="241" y="739" type="line"/>
      <point x="94" y="739" type="line"/>
      <point x="94" y="659" type="line"/>
      <point x="153" y="659" type="line"/>
    </contour>
  </outline>
</glyph>
<glyph name="onehalf" format="1">
  <advance width="840"/>
  <unicode hex="00BD"/>
  <outline>
    <contour>
      <point x="199" y="0" type="line"/>
      <point x="294" y="0" type="line"/>
      <point x="600" y="739" type="line"/>
      <point x="505" y="739" type="line"/>
    </contour>
    <contour>
      <point x="153" y="296" type="line"/>
      <point x="241" y="296" type="line"/>
      <point x="241" y="739" type="line"/>
      <point x="94" y="739" type="line"/>
      <point x="94" y="659" type="line"/>
      <point x="153" y="659" type="line"/>
    </contour>
    <contour>
      <point x="517" y="0" type="line"/>
      <point x="828" y="0" type="line"/>
      <point x="828" y="80" type="line"/>
      <point x="647" y="80" type="line"/>
      <point x="741" y="155" type="line" smooth="yes"/>
      <point x="800" y="202"/>
      <point x="830" y="253"/>
      <point x="830" y="305" type="curve" smooth="yes"/>
      <point x="830" y="388"/>
      <point x="763" y="451"/>
      <point x="673" y="451" type="curve" smooth="yes"/>
      <point x="617" y="451"/>
      <point x="567" y="426"/>
      <point x="539" y="386" type="curve" smooth="yes"/>
      <point x="521" y="358"/>
      <point x="514" y="333"/>
      <point x="514" y="286" type="curve"/>
      <point x="601" y="286" type="line"/>
      <point x="602" y="341"/>
      <point x="629" y="372"/>
      <point x="674" y="372" type="curve" smooth="yes"/>
      <point x="713" y="372"/>
      <point x="742" y="344"/>
      <point x="742" y="307" type="curve" smooth="yes"/>
      <point x="742" y="280"/>
      <point x="728" y="259"/>
      <point x="687" y="222" type="curve" smooth="yes"/>
      <point x="517" y="74" type="line"/>
    </contour>
  </outline>
</glyph>
<glyph name="questiondown" format="1">
  <advance width="560"/>
  <unicode hex="00BF"/>
  <outline>
    <contour>
      <point x="236" y="367" type="line"/>
      <point x="236" y="349" type="line" smooth="yes"/>
      <point x="236" y="328"/>
      <point x="232" y="297"/>
      <point x="226" y="280" type="curve" smooth="yes"/>
      <point x="219" y="257"/>
      <point x="207" y="242"/>
      <point x="171" y="210" type="curve" smooth="yes"/>
      <point x="94" y="142"/>
      <point x="69" y="98"/>
      <point x="69" y="31" type="curve" smooth="yes"/>
      <point x="69" y="-100"/>
      <point x="166" y="-198"/>
      <point x="294" y="-198" type="curve" smooth="yes"/>
      <point x="365" y="-198"/>
      <point x="432" y="-166"/>
      <point x="474" y="-111" type="curve" smooth="yes"/>
      <point x="503" y="-74"/>
      <point x="516" y="-33"/>
      <point x="522" y="34" type="curve"/>
      <point x="389" y="34" type="line"/>
      <point x="381" y="-33"/>
      <point x="351" y="-66"/>
      <point x="297" y="-66" type="curve" smooth="yes"/>
      <point x="242" y="-66"/>
      <point x="202" y="-27"/>
      <point x="202" y="27" type="curve" smooth="yes"/>
      <point x="202" y="58"/>
      <point x="217" y="87"/>
      <point x="247" y="112" type="curve" smooth="yes"/>
      <point x="303" y="160"/>
      <point x="310" y="168"/>
      <point x="331" y="199" type="curve" smooth="yes"/>
      <point x="356" y="237"/>
      <point x="369" y="286"/>
      <point x="369" y="347" type="curve" smooth="yes"/>
      <point x="369" y="367" type="line"/>
    </contour>
    <contour>
      <point x="369" y="554" type="line"/>
      <point x="236" y="554" type="line"/>
      <point x="236" y="426" type="line"/>
      <point x="369" y="426" type="line"/>
    </contour>
  </outline>
</glyph>
<glyph name="Aacute" format="1">
  <advance width="740"/>
  <unicode hex="00C1"/>
  <outline>
    <contour>
      <point x="7" y="0" type="line"/>
      <point x="158" y="0" type="line"/>
      <point x="240" y="191" type="line"/>
      <point x="503" y="191" type="line"/>
      <point x="582" y="0" type="line"/>
      <point x="733" y="0" type="line"/>
      <point x="423" y="739" type="line"/>
      <point x="315" y="739" type="line"/>
    </contour>
    <contour>
      <point x="290" y="322" type="line"/>
      <point x="369" y="546" type="line"/>
      <point x="448" y="322" type="line"/>
    </contour>
    <contour>
      <point x="315" y="788" type="line"/>
      <point x="542" y="908" type="line"/>
      <point x="488" y="1000" type="line"/>
      <point x="264" y="866" type="line"/>
    </contour>
  </outline>
</glyph>
<glyph name="Acircumflex" format="1">
  <advance width="740"/>
  <unicode hex="00C2"/>
  <outline>
    <contour>
      <point x="7" y="0" type="line"/>
      <point x="158" y="0" type="line"/>
      <point x="240" y="191" type="line"/>
      <point x="503" y="191" type="line"/>
      <point x="582" y="0" type="line"/>
      <point x="733" y="0" type="line"/>
      <point x="423" y="739" type="line"/>
      <point x="315" y="739" type="line"/>
    </contour>
    <contour>
      <point x="290" y="322" type="line"/>
      <point x="369" y="546" type="line"/>
      <point x="448" y="322" type="line"/>
    </contour>
    <contour>
      <point x="171" y="805" type="line"/>
      <point x="318" y="805" type="line"/>
      <point x="372" y="869" type="line"/>
      <point x="425" y="805" type="line"/>
      <point x="570" y="805" type="line"/>
      <point x="425" y="943" type="line"/>
      <point x="318" y="943" type="line"/>
    </contour>
  </outline>
</glyph>
<glyph name="Atilde" format="1">
  <advance width="740"/>
  <unicode hex="00C3"/>
  <outline>
    <contour>
      <point x="7" y="0" type="line"/>
      <point x="158" y="0" type="line"/>
      <point x="240" y="191" type="line"/>
      <point x="503" y="191" type="line"/>
      <point x="582" y="0" type="line"/>
      <point x="733" y="0" type="line"/>
      <point x="423" y="739" type="line"/>
      <point x="315" y="739" type="line"/>
    </contour>
    <contour>
      <point x="290" y="322" type="line"/>
      <point x="369" y="546" type="line"/>
      <point x="448" y="322" type="line"/>
    </contour>
    <contour>
      <point x="259" y="811" type="line"/>
      <point x="297" y="833"/>
      <point x="304" y="836"/>
      <point x="329" y="836" type="curve" smooth="yes"/>
      <point x="345" y="836"/>
      <point x="355" y="834"/>
      <point x="383" y="824" type="curve" smooth="yes"/>
      <point x="409" y="815"/>
      <point x="427" y="811"/>
      <point x="442" y="811" type="curve" smooth="yes"/>
      <point x="477" y="811"/>
      <point x="504" y="827"/>
      <point x="536" y="866" type="curve"/>
      <point x="482" y="947" type="line"/>
      <point x="461" y="923"/>
      <point x="441" y="913"/>
      <point x="415" y="913" type="curve" smooth="yes"/>
      <point x="402" y="913"/>
      <point x="388" y="916"/>
      <point x="368" y="924" type="curve" smooth="yes"/>
      <point x="339" y="936"/>
      <point x="329" y="938"/>
      <point x="308" y="938" type="curve" smooth="yes"/>
      <point x="266" y="938"/>
      <point x="240" y="926"/>
      <point x="205" y="891" type="curve"/>
    </contour>
  </outline>
</glyph>
<glyph name="Aring" format="1">
  <advance width="740"/>
  <unicode hex="00C5"/>
  <outline>
    <contour>
      <point x="7" y="0" type="line"/>
      <point x="158" y="0" type="line"/>
      <point x="240" y="191" type="line"/>
      <point x="503" y="191" type="line"/>
      <point x="582" y="0" type="line"/>
      <point x="733" y="0" type="line"/>
      <point x="423" y="739" type="line"/>
      <point x="315" y="739" type="line"/>
    </contour>
    <contour>
      <point x="290" y="322" type="line"/>
      <point x="369" y="546" type="line"/>
      <point x="448" y="322" type="line"/>
    </contour>
    <contour>
      <point x="371" y="991" type="curve" smooth="yes"/>
      <point x="313" y="991"/>
      <point x="267" y="945"/>
      <point x="267" y="888" type="curve" smooth="yes"/>
      <point x="267" y="831"/>
      <point x="313" y="785"/>
      <point x="370" y="785" type="curve" smooth="yes"/>
      <point x="426" y="785"/>
      <point x="473" y="831"/>
      <point x="473" y="888" type="curve" smooth="yes"/>
      <point x="473" y="944"/>
      <point x="427" y="991"/>
    </contour>
    <contour>
      <point x="370" y="924" type="curve" smooth="yes"/>
      <point x="390" y="924"/>
      <point x="406" y="908"/>
      <point x="406" y="888" type="curve" smooth="yes"/>
      <point x="406" y="868"/>
      <point x="390" y="852"/>
      <point x="370" y="852" type="curve" smooth="yes"/>
      <point x="350" y="852"/>
      <point x="334" y="868"/>
      <point x="334" y="888" type="curve" smooth="yes"/>
      <point x="334" y="908"/>
      <point x="350" y="924"/>
    </contour>
  </outline>
</glyph>
<glyph name="AE" format="1">
  <advance width="900"/>
  <unicode hex="00C6"/>
  <outline>
    <contour>
      <point x="17" y="0" type="line"/>
      <point x="182" y="0" type="line"/>
      <point x="294" y="191" type="line"/>
      <point x="488" y="191" type="line"/>
      <point x="488" y="0" type="line"/>
      <point x="843" y="0" type="line"/>
      <point x="843" y="131" type="line"/>
      <point x="625" y="131" type="line"/>
      <point x="625" y="303" type="line"/>
      <point x="832" y="303" type="line"/>
      <point x="832" y="434" type="line"/>
      <point x="625" y="434" type="line"/>
      <point x="625" y="608" type="line"/>
      <point x="843" y="608" type="line"/>
      <point x="843" y="739" type="line"/>
      <point x="504" y="739" type="line"/>
    </contour>
    <contour>
      <point x="373" y="322" type="line"/>
      <point x="488" y="513" type="line"/>
      <point x="488" y="322" type="line"/>
    </contour>
  </outline>
</glyph>
<glyph name="Ccedilla" format="1">
  <advance width="780"/>
  <unicode hex="00C7"/>
  <outline>
    <contour>
      <point x="399" y="-13" type="line"/>
      <point x="561" y="-18"/>
      <point x="698" y="65"/>
      <point x="760" y="206" type="curve"/>
      <point x="599" y="206" type="line"/>
      <point x="539" y="143"/>
      <point x="487" y="119"/>
      <point x="416" y="119" type="curve" smooth="yes"/>
      <point x="280" y="119"/>
      <point x="168" y="233"/>
      <point x="168" y="371" type="curve" smooth="yes"/>
      <point x="168" y="431"/>
      <point x="191" y="495"/>
      <point x="229" y="539" type="curve" smooth="yes"/>
      <point x="274" y="592"/>
      <point x="338" y="620"/>
      <point x="413" y="620" type="curve" smooth="yes"/>
      <point x="499" y="620"/>
      <point x="557" y="592"/>
      <point x="607" y="527" type="curve"/>
      <point x="760" y="527" type="line"/>
      <point x="731" y="591"/>
      <point x="705" y="626"/>
      <point x="655" y="667" type="curve" smooth="yes"/>
      <point x="587" y="722"/>
      <point x="500" y="752"/>
      <point x="410" y="752" type="curve" smooth="yes"/>
      <point x="201" y="752"/>
      <point x="30" y="581"/>
      <point x="30" y="372" type="curve" smooth="yes"/>
      <point x="30" y="186"/>
      <point x="170" y="20"/>
      <point x="349" y="-7" type="curve"/>
      <point x="316" y="-107" type="line"/>
      <point x="369" y="-133" type="line"/>
      <point x="382" y="-113"/>
      <point x="393" y="-106"/>
      <point x="407" y="-106" type="curve" smooth="yes"/>
      <point x="428" y="-106"/>
      <point x="446" y="-126"/>
      <point x="446" y="-150" type="curve" smooth="yes"/>
      <point x="446" y="-175"/>
      <point x="428" y="-196"/>
      <point x="407" y="-196" type="curve" smooth="yes"/>
      <point x="389" y="-196"/>
      <point x="377" y="-186"/>
      <point x="369" y="-166" type="curve"/>
      <point x="307" y="-166" type="line"/>
      <point x="315" y="-216"/>
      <point x="356" y="-251"/>
      <point x="408" y="-251" type="curve" smooth="yes"/>
      <point x="465" y="-251"/>
      <point x="504" y="-211"/>
      <point x="504" y="-152" type="curve" smooth="yes"/>
      <point x="504" y="-97"/>
      <point x="462" y="-51"/>
      <point x="412" y="-51" type="curve" smooth="yes"/>
      <point x="403" y="-51"/>
      <point x="397" y="-53"/>
      <point x="383" y="-58" type="curve"/>
    </contour>
  </outline>
</glyph>
<glyph name="Egrave" format="1">
  <advance width="520"/>
  <unicode hex="00C8"/>
  <outline>
    <contour>
      <point x="68" y="0" type="line"/>
      <point x="465" y="0" type="line"/>
      <point x="465" y="131" type="line"/>
      <point x="205" y="131" type="line"/>
      <point x="205" y="303" type="line"/>
      <point x="454" y="303" type="line"/>
      <point x="454" y="434" type="line"/>
      <point x="205" y="434" type="line"/>
      <point x="205" y="608" type="line"/>
      <point x="465" y="608" type="line"/>
      <point x="465" y="739" type="line"/>
      <point x="68" y="739" type="line"/>
    </contour>
    <contour>
      <point x="87" y="912" type="line"/>
      <point x="313" y="788" type="line"/>
      <point x="366" y="867" type="line"/>
      <point x="144" y="1000" type="line"/>
    </contour>
  </outline>
</glyph>
<glyph name="Eacute" format="1">
  <advance width="520"/>
  <unicode hex="00C9"/>
  <outline>
    <contour>
      <point x="68" y="0" type="line"/>
      <point x="465" y="0" type="line"/>
      <point x="465" y="131" type="line"/>
      <point x="205" y="131" type="line"/>
      <point x="205" y="303" type="line"/>
      <point x="454" y="303" type="line"/>
      <point x="454" y="434" type="line"/>
      <point x="205" y="434" type="line"/>
      <point x="205" y="608" type="line"/>
      <point x="465" y="608" type="line"/>
      <point x="465" y="739" type="line"/>
      <point x="68" y="739" type="line"/>
    </contour>
    <contour>
      <point x="225" y="788" type="line"/>
      <point x="452" y="908" type="line"/>
      <point x="398" y="1000" type="line"/>
      <point x="174" y="866" type="line"/>
    </contour>
  </outline>
</glyph>
<glyph name="Ecircumflex" format="1">
  <advance width="520"/>
  <unicode hex="00CA"/>
  <outline>
    <contour>
      <point x="68" y="0" type="line"/>
      <point x="465" y="0" type="line"/>
      <point x="465" y="131" type="line"/>
      <point x="205" y="131" type="line"/>
      <point x="205" y="303" type="line"/>
      <point x="454" y="303" type="line"/>
      <point x="454" y="434" type="line"/>
      <point x="205" y="434" type="line"/>
      <point x="205" y="608" type="line"/>
      <point x="465" y="608" type="line"/>
      <point x="465" y="739" type="line"/>
      <point x="68" y="739" type="line"/>
    </contour>
    <contour>
      <point x="64" y="805" type="line"/>
      <point x="211" y="805" type="line"/>
      <point x="265" y="869" type="line"/>
      <point x="318" y="805" type="line"/>
      <point x="463" y="805" type="line"/>
      <point x="318" y="943" type="line"/>
      <point x="211" y="943" type="line"/>
    </contour>
  </outline>
</glyph>
<glyph name="Edieresis" format="1">
  <advance width="520"/>
  <unicode hex="00CB"/>
  <outline>
    <contour>
      <point x="68" y="0" type="line"/>
      <point x="465" y="0" type="line"/>
      <point x="465" y="131" type="line"/>
      <point x="205" y="131" type="line"/>
      <point x="205" y="303" type="line"/>
      <point x="454" y="303" type="line"/>
      <point x="454" y="434" type="line"/>
      <point x="205" y="434" type="line"/>
      <point x="205" y="608" type="line"/>
      <point x="465" y="608" type="line"/>
      <point x="465" y="739" type="line"/>
      <point x="68" y="739" type="line"/>
    </contour>
    <contour>
      <point x="95" y="805" type="line"/>
      <point x="228" y="805" type="line"/>
      <point x="228" y="938" type="line"/>
      <point x="95" y="938" type="line"/>
    </contour>
    <contour>
      <point x="305" y="805" type="line"/>
      <point x="438" y="805" type="line"/>
      <point x="438" y="938" type="line"/>
      <point x="305" y="938" type="line"/>
    </contour>
  </outline>
</glyph>
<glyph name="Igrave" format="1">
  <advance width="280"/>
  <unicode hex="00CC"/>
  <outline>
    <contour>
      <point x="68" y="0" type="line"/>
      <point x="205" y="0" type="line"/>
      <point x="205" y="739" type="line"/>
      <point x="68" y="739" type="line"/>
    </contour>
    <contour>
      <point x="4" y="912" type="line"/>
      <point x="230" y="788" type="line"/>
      <point x="283" y="867" type="line"/>
      <point x="61" y="1000" type="line"/>
    </contour>
  </outline>
</glyph>
<glyph name="Iacute" format="1">
  <advance width="280"/>
  <unicode hex="00CD"/>
  <outline>
    <contour>
      <point x="68" y="0" type="line"/>
      <point x="205" y="0" type="line"/>
      <point x="205" y="739" type="line"/>
      <point x="68" y="739" type="line"/>
    </contour>
    <contour>
      <point x="55" y="788" type="line"/>
      <point x="282" y="908" type="line"/>
      <point x="228" y="1000" type="line"/>
      <point x="4" y="866" type="line"/>
    </contour>
  </outline>
</glyph>
<glyph name="Icircumflex" format="1">
  <advance width="280"/>
  <unicode hex="00CE"/>
  <outline>
    <contour>
      <point x="68" y="0" type="line"/>
      <point x="205" y="0" type="line"/>
      <point x="205" y="739" type="line"/>
      <point x="68" y="739" type="line"/>
    </contour>
    <contour>
      <point x="-56" y="805" type="line"/>
      <point x="91" y="805" type="line"/>
      <point x="145" y="869" type="line"/>
      <point x="198" y="805" type="line"/>
      <point x="343" y="805" type="line"/>
      <point x="198" y="943" type="line"/>
      <point x="91" y="943" type="line"/>
    </contour>
  </outline>
</glyph>
<glyph name="Idieresis" format="1">
  <advance width="280"/>
  <unicode hex="00CF"/>
  <outline>
    <contour>
      <point x="68" y="0" type="line"/>
      <point x="205" y="0" type="line"/>
      <point x="205" y="739" type="line"/>
      <point x="68" y="739" type="line"/>
    </contour>
    <contour>
      <point x="-36" y="805" type="line"/>
      <point x="97" y="805" type="line"/>
      <point x="97" y="938" type="line"/>
      <point x="-36" y="938" type="line"/>
    </contour>
    <contour>
      <point x="174" y="805" type="line"/>
      <point x="307" y="805" type="line"/>
      <point x="307" y="938" type="line"/>
      <point x="174" y="938" type="line"/>
    </contour>
  </outline>
</glyph>
<glyph name="Eth" format="1">
  <advance width="742"/>
  <unicode hex="00D0"/>
  <outline>
    <contour>
      <point x="110" y="0" type="line"/>
      <point x="282" y="0" type="line" smooth="yes"/>
      <point x="395" y="0"/>
      <point x="461" y="11"/>
      <point x="521" y="41" type="curve" smooth="yes"/>
      <point x="635" y="97"/>
      <point x="702" y="218"/>
      <point x="702" y="367" type="curve" smooth="yes"/>
      <point x="702" y="508"/>
      <point x="644" y="624"/>
      <point x="541" y="686" type="curve" smooth="yes"/>
      <point x="483" y="721"/>
      <point x="395" y="739"/>
      <point x="279" y="739" type="curve" smooth="yes"/>
      <point x="110" y="739" type="line"/>
      <point x="110" y="422" type="line"/>
      <point x="14" y="422" type="line"/>
      <point x="14" y="315" type="line"/>
      <point x="110" y="315" type="line"/>
    </contour>
    <contour>
      <point x="247" y="131" type="line"/>
      <point x="247" y="315" type="line"/>
      <point x="401" y="315" type="line"/>
      <point x="401" y="422" type="line"/>
      <point x="247" y="422" type="line"/>
      <point x="247" y="608" type="line"/>
      <point x="274" y="608" type="line" smooth="yes"/>
      <point x="362" y="608"/>
      <point x="408" y="600"/>
      <point x="451" y="578" type="curve" smooth="yes"/>
      <point x="521" y="542"/>
      <point x="564" y="462"/>
      <point x="564" y="368" type="curve" smooth="yes"/>
      <point x="564" y="278"/>
      <point x="523" y="200"/>
      <point x="457" y="164" type="curve" smooth="yes"/>
      <point x="416" y="141"/>
      <point x="359" y="131"/>
      <point x="277" y="131" type="curve" smooth="yes"/>
    </contour>
  </outline>
</glyph>
<glyph name="Ntilde" format="1">
  <advance width="740"/>
  <unicode hex="00D1"/>
  <outline>
    <contour>
      <point x="68" y="0" type="line"/>
      <point x="205" y="0" type="line"/>
      <point x="205" y="537" type="line"/>
      <point x="514" y="0" type="line"/>
      <point x="667" y="0" type="line"/>
      <point x="667" y="739" type="line"/>
      <point x="530" y="739" type="line"/>
      <point x="530" y="201" type="line"/>
      <point x="224" y="739" type="line"/>
      <point x="68" y="739" type="line"/>
    </contour>
    <contour>
      <point x="263" y="811" type="line"/>
      <point x="301" y="833"/>
      <point x="308" y="836"/>
      <point x="333" y="836" type="curve" smooth="yes"/>
      <point x="349" y="836"/>
      <point x="359" y="834"/>
      <point x="387" y="824" type="curve" smooth="yes"/>
      <point x="413" y="815"/>
      <point x="431" y="811"/>
      <point x="446" y="811" type="curve" smooth="yes"/>
      <point x="481" y="811"/>
      <point x="508" y="827"/>
      <point x="540" y="866" type="curve"/>
      <point x="486" y="947" type="line"/>
      <point x="465" y="923"/>
      <point x="445" y="913"/>
      <point x="419" y="913" type="curve" smooth="yes"/>
      <point x="406" y="913"/>
      <point x="392" y="916"/>
      <point x="372" y="924" type="curve" smooth="yes"/>
      <point x="343" y="936"/>
      <point x="333" y="938"/>
      <point x="312" y="938" type="curve" smooth="yes"/>
      <point x="270" y="938"/>
      <point x="244" y="926"/>
      <point x="209" y="891" type="curve"/>
    </contour>
  </outline>
</glyph>
<glyph name="Oacute" format="1">
  <advance width="840"/>
  <unicode hex="00D3"/>
  <outline>
    <contour>
      <point x="420" y="752" type="curve" smooth="yes"/>
      <point x="200" y="752"/>
      <point x="30" y="585"/>
      <point x="30" y="369" type="curve" smooth="yes"/>
      <point x="30" y="156"/>
      <point x="202" y="-13"/>
      <point x="419" y="-13" type="curve" smooth="yes"/>
      <point x="634" y="-13"/>
      <point x="800" y="154"/>
      <point x="800" y="370" type="curve" smooth="yes"/>
      <point x="800" y="581"/>
      <point x="631" y="752"/>
    </contour>
    <contour>
      <point x="418" y="620" type="curve" smooth="yes"/>
      <point x="555" y="620"/>
      <point x="662" y="510"/>
      <point x="662" y="368" type="curve" smooth="yes"/>
      <point x="662" y="226"/>
      <point x="558" y="119"/>
      <point x="418" y="119" type="curve" smooth="yes"/>
      <point x="278" y="119"/>
      <point x="168" y="229"/>
      <point x="168" y="369" type="curve" smooth="yes"/>
      <point x="168" y="512"/>
      <point x="276" y="620"/>
    </contour>
    <contour>
      <point x="327" y="788" type="line"/>
      <point x="554" y="908" type="line"/>
      <point x="500" y="1000" type="line"/>
      <point x="276" y="866" type="line"/>
    </contour>
  </outline>
</glyph>
<glyph name="Odieresis" format="1">
  <advance width="840"/>
  <unicode hex="00D6"/>
  <outline>
    <contour>
      <point x="420" y="752" type="curve" smooth="yes"/>
      <point x="200" y="752"/>
      <point x="30" y="585"/>
      <point x="30" y="369" type="curve" smooth="yes"/>
      <point x="30" y="156"/>
      <point x="202" y="-13"/>
      <point x="419" y="-13" type="curve" smooth="yes"/>
      <point x="634" y="-13"/>
      <point x="800" y="154"/>
      <point x="800" y="370" type="curve" smooth="yes"/>
      <point x="800" y="581"/>
      <point x="631" y="752"/>
    </contour>
    <contour>
      <point x="418" y="620" type="curve" smooth="yes"/>
      <point x="555" y="620"/>
      <point x="662" y="510"/>
      <point x="662" y="368" type="curve" smooth="yes"/>
      <point x="662" y="226"/>
      <point x="558" y="119"/>
      <point x="418" y="119" type="curve" smooth="yes"/>
      <point x="278" y="119"/>
      <point x="168" y="229"/>
      <point x="168" y="369" type="curve" smooth="yes"/>
      <point x="168" y="512"/>
      <point x="276" y="620"/>
    </contour>
    <contour>
      <point x="244" y="805" type="line"/>
      <point x="377" y="805" type="line"/>
      <point x="377" y="938" type="line"/>
      <point x="244" y="938" type="line"/>
    </contour>
    <contour>
      <point x="454" y="805" type="line"/>
      <point x="587" y="805" type="line"/>
      <point x="587" y="938" type="line"/>
      <point x="454" y="938" type="line"/>
    </contour>
  </outline>
</glyph>
<glyph name="multiply" format="1">
  <advance width="600"/>
  <unicode hex="00D7"/>
  <outline>
    <contour>
      <point x="385" y="366" type="line"/>
      <point x="555" y="536" type="line"/>
      <point x="473" y="618" type="line"/>
      <point x="303" y="448" type="line"/>
      <point x="133" y="618" type="line"/>
      <point x="51" y="536" type="line"/>
      <point x="221" y="366" type="line"/>
      <point x="51" y="196" type="line"/>
      <point x="133" y="114" type="line"/>
      <point x="303" y="284" type="line"/>
      <point x="473" y="114" type="line"/>
      <point x="555" y="196" type="line"/>
    </contour>
  </outline>
</glyph>
<glyph name="Oslash" format="1">
  <advance width="840"/>
  <unicode hex="00D8"/>
  <outline>
    <contour>
      <point x="738" y="743" type="line"/>
      <point x="643" y="809" type="line"/>
      <point x="581" y="717" type="line"/>
      <point x="526" y="741"/>
      <point x="473" y="752"/>
      <point x="416" y="752" type="curve" smooth="yes"/>
      <point x="202" y="752"/>
      <point x="30" y="582"/>
      <point x="30" y="370" type="curve" smooth="yes"/>
      <point x="30" y="263"/>
      <point x="76" y="159"/>
      <point x="156" y="87" type="curve"/>
      <point x="97" y="0" type="line"/>
      <point x="193" y="-65" type="line"/>
      <point x="253" y="23" type="line"/>
      <point x="306" y="-1"/>
      <point x="361" y="-13"/>
      <point x="421" y="-13" type="curve" smooth="yes"/>
      <point x="636" y="-13"/>
      <point x="803" y="154"/>
      <point x="803" y="370" type="curve" smooth="yes"/>
      <point x="803" y="479"/>
      <point x="759" y="578"/>
      <point x="677" y="653" type="curve"/>
    </contour>
    <contour>
      <point x="601" y="540" type="line"/>
      <point x="643" y="491"/>
      <point x="665" y="433"/>
      <point x="665" y="368" type="curve" smooth="yes"/>
      <point x="665" y="226"/>
      <point x="560" y="119"/>
      <point x="420" y="119" type="curve" smooth="yes"/>
      <point x="389" y="119"/>
      <point x="360" y="124"/>
      <point x="329" y="135" type="curve"/>
    </contour>
    <contour>
      <point x="233" y="201" type="line"/>
      <point x="191" y="249"/>
      <point x="168" y="309"/>
      <point x="168" y="370" type="curve" smooth="yes"/>
      <point x="168" y="510"/>
      <point x="278" y="620"/>
      <point x="416" y="620" type="curve" smooth="yes"/>
      <point x="448" y="620"/>
      <point x="476" y="615"/>
      <point x="505" y="605" type="curve"/>
    </contour>
  </outline>
</glyph>
<glyph name="Ugrave" format="1">
  <advance width="640"/>
  <unicode hex="00D9"/>
  <outline>
    <contour>
      <point x="68" y="739" type="line"/>
      <point x="68" y="271" type="line" smooth="yes"/>
      <point x="68" y="192"/>
      <point x="80" y="142"/>
      <point x="108" y="97" type="curve" smooth="yes"/>
      <point x="151" y="29"/>
      <point x="231" y="-13"/>
      <point x="317" y="-13" type="curve" smooth="yes"/>
      <point x="397" y="-13"/>
      <point x="473" y="23"/>
      <point x="517" y="82" type="curve" smooth="yes"/>
      <point x="553" y="130"/>
      <point x="567" y="185"/>
      <point x="567" y="271" type="curve" smooth="yes"/>
      <point x="567" y="739" type="line"/>
      <point x="430" y="739" type="line"/>
      <point x="430" y="271" type="line" smooth="yes"/>
      <point x="430" y="216"/>
      <point x="426" y="193"/>
      <point x="412" y="169" type="curve" smooth="yes"/>
      <point x="393" y="138"/>
      <point x="357" y="119"/>
      <point x="318" y="119" type="curve" smooth="yes"/>
      <point x="278" y="119"/>
      <point x="242" y="138"/>
      <point x="223" y="169" type="curve" smooth="yes"/>
      <point x="209" y="193"/>
      <point x="205" y="216"/>
      <point x="205" y="271" type="curve" smooth="yes"/>
      <point x="205" y="739" type="line"/>
    </contour>
    <contour>
      <point x="138" y="912" type="line"/>
      <point x="364" y="788" type="line"/>
      <point x="417" y="867" type="line"/>
      <point x="195" y="1000" type="line"/>
    </contour>
  </outline>
</glyph>
<glyph name="Yacute" format="1">
  <advance width="620"/>
  <unicode hex="00DD"/>
  <outline>
    <contour>
      <point x="246" y="0" type="line"/>
      <point x="383" y="0" type="line"/>
      <point x="383" y="273" type="line"/>
      <point x="626" y="739" type="line"/>
      <point x="478" y="739" type="line"/>
      <point x="315" y="399" type="line"/>
      <point x="151" y="739" type="line"/>
      <point x="3" y="739" type="line"/>
      <point x="246" y="273" type="line"/>
    </contour>
    <contour>
      <point x="267" y="788" type="line"/>
      <point x="494" y="908" type="line"/>
      <point x="440" y="1000" type="line"/>
      <point x="216" y="866" type="line"/>
    </contour>
  </outline>
</glyph>
<glyph name="Thorn" format="1">
  <advance width="560"/>
  <unicode hex="00DE"/>
  <outline>
    <contour>
      <point x="68" y="0" type="line"/>
      <point x="205" y="0" type="line"/>
      <point x="205" y="149" type="line"/>
      <point x="249" y="149" type="line" smooth="yes"/>
      <point x="354" y="149"/>
      <point x="402" y="157"/>
      <point x="443" y="182" type="curve" smooth="yes"/>
      <point x="503" y="220"/>
      <point x="540" y="294"/>
      <point x="540" y="380" type="curve" smooth="yes"/>
      <point x="540" y="465"/>
      <point x="504" y="535"/>
      <point x="440" y="574" type="curve" smooth="yes"/>
      <point x="398" y="599"/>
      <point x="349" y="608"/>
      <point x="251" y="608" type="curve" smooth="yes"/>
      <point x="205" y="608" type="line"/>
      <point x="205" y="739" type="line"/>
      <point x="68" y="739" type="line"/>
    </contour>
    <contour>
      <point x="205" y="280" type="line"/>
      <point x="205" y="477" type="line"/>
      <point x="251" y="477" type="line" smooth="yes"/>
      <point x="296" y="477"/>
      <point x="317" y="475"/>
      <point x="338" y="470" type="curve" smooth="yes"/>
      <point x="378" y="459"/>
      <point x="402" y="424"/>
      <point x="402" y="377" type="curve" smooth="yes"/>
      <point x="402" y="341"/>
      <point x="386" y="313"/>
      <point x="357" y="297" type="curve" smooth="yes"/>
      <point x="336" y="286"/>
      <point x="299" y="280"/>
      <point x="245" y="280" type="curve" smooth="yes"/>
    </contour>
  </outline>
</glyph>
<glyph name="germandbls" format="1">
  <advance width="600"/>
  <unicode hex="00DF"/>
  <outline>
    <contour>
      <point x="51" y="0" type="line"/>
      <point x="173" y="0" type="line"/>
      <point x="173" y="79" type="line"/>
      <point x="210" y="18"/>
      <point x="269" y="-13"/>
      <point x="350" y="-13" type="curve" smooth="yes"/>
      <point x="487" y="-13"/>
      <point x="584" y="82"/>
      <point x="584" y="216" type="curve" smooth="yes"/>
      <point x="584" y="277"/>
      <point x="561" y="327"/>
      <point x="514" y="364" type="curve" smooth="yes"/>
      <point x="486" y="387"/>
      <point x="463" y="397"/>
      <point x="415" y="408" type="curve"/>
      <point x="467" y="437"/>
      <point x="490" y="480"/>
      <point x="490" y="546" type="curve" smooth="yes"/>
      <point x="490" y="663"/>
      <point x="395" y="752"/>
      <point x="272" y="752" type="curve" smooth="yes"/>
      <point x="190" y="752"/>
      <point x="119" y="711"/>
      <point x="83" y="643" type="curve" smooth="yes"/>
      <point x="61" y="599"/>
      <point x="51" y="553"/>
      <point x="51" y="487" type="curve" smooth="yes"/>
    </contour>
    <contour>
      <point x="184" y="189" type="line"/>
      <point x="184" y="503" type="line" smooth="yes"/>
      <point x="184" y="588"/>
      <point x="213" y="630"/>
      <point x="271" y="630" type="curve" smooth="yes"/>
      <point x="322" y="630"/>
      <point x="356" y="593"/>
      <point x="356" y="536" type="curve" smooth="yes"/>
      <point x="356" y="477"/>
      <point x="318" y="433"/>
      <point x="266" y="433" type="curve" smooth="yes"/>
      <point x="255" y="433" type="line"/>
      <point x="255" y="315" type="line"/>
      <point x="266" y="315" type="line" smooth="yes"/>
      <point x="338" y="315"/>
      <point x="363" y="312"/>
      <point x="393" y="298" type="curve" smooth="yes"/>
      <point x="429" y="281"/>
      <point x="450" y="246"/>
      <point x="450" y="205" type="curve" smooth="yes"/>
      <point x="450" y="150"/>
      <point x="411" y="109"/>
      <point x="359" y="109" type="curve" smooth="yes"/>
      <point x="315" y="109"/>
      <point x="275" y="143"/>
      <point x="266" y="189" type="curve"/>
    </contour>
  </outline>
</glyph>
<glyph name="agrave" format="1">
  <advance width="660"/>
  <unicode hex="00E0"/>
  <outline>
    <contour>
      <point x="615" y="554" type="line"/>
      <point x="493" y="554" type="line"/>
      <point x="493" y="480" type="line"/>
      <point x="447" y="541"/>
      <point x="392" y="567"/>
      <point x="312" y="567" type="curve" smooth="yes"/>
      <point x="148" y="567"/>
      <point x="30" y="444"/>
      <point x="30" y="275" type="curve" smooth="yes"/>
      <point x="30" y="108"/>
      <point x="147" y="-13"/>
      <point x="309" y="-13" type="curve" smooth="yes"/>
      <point x="387" y="-13"/>
      <point x="440" y="12"/>
      <point x="493" y="72" type="curve"/>
      <point x="493" y="0" type="line"/>
      <point x="615" y="0" type="line"/>
    </contour>
    <contour>
      <point x="326" y="445" type="curve" smooth="yes"/>
      <point x="421" y="445"/>
      <point x="489" y="374"/>
      <point x="489" y="273" type="curve" smooth="yes"/>
      <point x="489" y="233"/>
      <point x="473" y="187"/>
      <point x="449" y="159" type="curve" smooth="yes"/>
      <point x="422" y="127"/>
      <point x="379" y="109"/>
      <point x="328" y="109" type="curve" smooth="yes"/>
      <point x="231" y="109"/>
      <point x="164" y="175"/>
      <point x="164" y="272" type="curve" smooth="yes"/>
      <point x="164" y="373"/>
      <point x="231" y="445"/>
    </contour>
    <contour>
      <point x="170" y="737" type="line"/>
      <point x="396" y="613" type="line"/>
      <point x="449" y="692" type="line"/>
      <point x="227" y="825" type="line"/>
    </contour>
  </outline>
</glyph>
<glyph name="acircumflex" format="1">
  <advance width="660"/>
  <unicode hex="00E2"/>
  <outline>
    <contour>
      <point x="615" y="554" type="line"/>
      <point x="493" y="554" type="line"/>
      <point x="493" y="480" type="line"/>
      <point x="447" y="541"/>
      <point x="392" y="567"/>
      <point x="312" y="567" type="curve" smooth="yes"/>
      <point x="148" y="567"/>
      <point x="30" y="444"/>
      <point x="30" y="275" type="curve" smooth="yes"/>
      <point x="30" y="108"/>
      <point x="147" y="-13"/>
      <point x="309" y="-13" type="curve" smooth="yes"/>
      <point x="387" y="-13"/>
      <point x="440" y="12"/>
      <point x="493" y="72" type="curve"/>
      <point x="493" y="0" type="line"/>
      <point x="615" y="0" type="line"/>
    </contour>
    <contour>
      <point x="326" y="445" type="curve" smooth="yes"/>
      <point x="421" y="445"/>
      <point x="489" y="374"/>
      <point x="489" y="273" type="curve" smooth="yes"/>
      <point x="489" y="233"/>
      <point x="473" y="187"/>
      <point x="449" y="159" type="curve" smooth="yes"/>
      <point x="422" y="127"/>
      <point x="379" y="109"/>
      <point x="328" y="109" type="curve" smooth="yes"/>
      <point x="231" y="109"/>
      <point x="164" y="175"/>
      <point x="164" y="272" type="curve" smooth="yes"/>
      <point x="164" y="373"/>
      <point x="231" y="445"/>
    </contour>
    <contour>
      <point x="146" y="630" type="line"/>
      <point x="293" y="630" type="line"/>
      <point x="347" y="694" type="line"/>
      <point x="400" y="630" type="line"/>
      <point x="545" y="630" type="line"/>
      <point x="400" y="768" type="line"/>
      <point x="293" y="768" type="line"/>
    </contour>
  </outline>
</glyph>
<glyph name="atilde" format="1">
  <advance width="660"/>
  <unicode hex="00E3"/>
  <outline>
    <contour>
      <point x="615" y="554" type="line"/>
      <point x="493" y="554" type="line"/>
      <point x="493" y="480" type="line"/>
      <point x="447" y="541"/>
      <point x="392" y="567"/>
      <point x="312" y="567" type="curve" smooth="yes"/>
      <point x="148" y="567"/>
      <point x="30" y="444"/>
      <point x="30" y="275" type="curve" smooth="yes"/>
      <point x="30" y="108"/>
      <point x="147" y="-13"/>
      <point x="309" y="-13" type="curve" smooth="yes"/>
      <point x="387" y="-13"/>
      <point x="440" y="12"/>
      <point x="493" y="72" type="curve"/>
      <point x="493" y="0" type="line"/>
      <point x="615" y="0" type="line"/>
    </contour>
    <contour>
      <point x="326" y="445" type="curve" smooth="yes"/>
      <point x="421" y="445"/>
      <point x="489" y="374"/>
      <point x="489" y="273" type="curve" smooth="yes"/>
      <point x="489" y="233"/>
      <point x="473" y="187"/>
      <point x="449" y="159" type="curve" smooth="yes"/>
      <point x="422" y="127"/>
      <point x="379" y="109"/>
      <point x="328" y="109" type="curve" smooth="yes"/>
      <point x="231" y="109"/>
      <point x="164" y="175"/>
      <point x="164" y="272" type="curve" smooth="yes"/>
      <point x="164" y="373"/>
      <point x="231" y="445"/>
    </contour>
    <contour>
      <point x="234" y="636" type="line"/>
      <point x="272" y="658"/>
      <point x="279" y="661"/>
      <point x="304" y="661" type="curve" smooth="yes"/>
      <point x="320" y="661"/>
      <point x="330" y="659"/>
      <point x="358" y="649" type="curve" smooth="yes"/>
      <point x="384" y="640"/>
      <point x="402" y="636"/>
      <point x="417" y="636" type="curve" smooth="yes"/>
      <point x="452" y="636"/>
      <point x="479" y="652"/>
      <point x="511" y="691" type="curve"/>
      <point x="457" y="772" type="line"/>
      <point x="436" y="748"/>
      <point x="416" y="738"/>
      <point x="390" y="738" type="curve" smooth="yes"/>
      <point x="377" y="738"/>
      <point x="363" y="741"/>
      <point x="343" y="749" type="curve" smooth="yes"/>
      <point x="314" y="761"/>
      <point x="304" y="763"/>
      <point x="283" y="763" type="curve" smooth="yes"/>
      <point x="241" y="763"/>
      <point x="215" y="751"/>
      <point x="180" y="716" type="curve"/>
    </contour>
  </outline>
</glyph>
<glyph name="ae" format="1">
  <advance width="1080"/>
  <unicode hex="00E6"/>
  <outline>
    <contour>
      <point x="887" y="164" type="line"/>
      <point x="855" y="126"/>
      <point x="819" y="109"/>
      <point x="770" y="109" type="curve" smooth="yes"/>
      <point x="695" y="109"/>
      <point x="637" y="150"/>
      <point x="614" y="219" type="curve"/>
      <point x="1042" y="219" type="line"/>
      <point x="1049" y="249"/>
      <point x="1051" y="265"/>
      <point x="1051" y="288" type="curve" smooth="yes"/>
      <point x="1051" y="444"/>
      <point x="929" y="567"/>
      <point x="774" y="567" type="curve" smooth="yes"/>
      <point x="704" y="567"/>
      <point x="654" y="547"/>
      <point x="607" y="499" type="curve"/>
      <point x="607" y="554" type="line"/>
      <point x="485" y="554" type="line"/>
      <point x="485" y="499" type="line"/>
      <point x="439" y="547"/>
      <point x="389" y="567"/>
      <point x="318" y="567" type="curve" smooth="yes"/>
      <point x="155" y="567"/>
      <point x="30" y="440"/>
      <point x="30" y="275" type="curve" smooth="yes"/>
      <point x="30" y="110"/>
      <point x="154" y="-13"/>
      <point x="320" y="-13" type="curve" smooth="yes"/>
      <point x="396" y="-13"/>
      <point x="440" y="7"/>
      <point x="485" y="60" type="curve"/>
      <point x="485" y="0" type="line"/>
      <point x="607" y="0" type="line"/>
      <point x="607" y="60" type="line"/>
      <point x="651" y="9"/>
      <point x="702" y="-13"/>
      <point x="776" y="-13" type="curve" smooth="yes"/>
      <point x="889" y="-13"/>
      <point x="999" y="63"/>
      <point x="1032" y="164" type="curve"/>
    </contour>
    <contour>
      <point x="323" y="445" type="curve" smooth="yes"/>
      <point x="412" y="445"/>
      <point x="481" y="372"/>
      <point x="481" y="276" type="curve" smooth="yes"/>
      <point x="481" y="181"/>
      <point x="414" y="109"/>
      <point x="325" y="109" type="curve" smooth="yes"/>
      <point x="231" y="109"/>
      <point x="164" y="181"/>
      <point x="164" y="280" type="curve" smooth="yes"/>
      <point x="164" y="372"/>
      <point x="234" y="445"/>
    </contour>
    <contour>
      <point x="607" y="337" type="line"/>
      <point x="633" y="410"/>
      <point x="684" y="445"/>
      <point x="761" y="445" type="curve" smooth="yes"/>
      <point x="841" y="445"/>
      <point x="892" y="409"/>
      <point x="911" y="337" type="curve"/>
    </contour>
  </outline>
</glyph>
<glyph name="ccedilla" format="1">
  <advance width="640"/>
  <unicode hex="00E7"/>
  <outline>
    <contour>
      <point x="319" y="-13" type="line"/>
      <point x="452" y="-15"/>
      <point x="558" y="58"/>
      <point x="601" y="182" type="curve"/>
      <point x="451" y="182" type="line"/>
      <point x="418" y="131"/>
      <point x="380" y="109"/>
      <point x="325" y="109" type="curve" smooth="yes"/>
      <point x="233" y="109"/>
      <point x="164" y="181"/>
      <point x="164" y="278" type="curve" smooth="yes"/>
      <point x="164" y="375"/>
      <point x="230" y="445"/>
      <point x="322" y="445" type="curve" smooth="yes"/>
      <point x="382" y="445"/>
      <point x="424" y="420"/>
      <point x="451" y="369" type="curve"/>
      <point x="601" y="369" type="line"/>
      <point x="582" y="425"/>
      <point x="564" y="454"/>
      <point x="526" y="489" type="curve" smooth="yes"/>
      <point x="472" y="539"/>
      <point x="399" y="567"/>
      <point x="322" y="567" type="curve" smooth="yes"/>
      <point x="158" y="567"/>
      <point x="30" y="440"/>
      <point x="30" y="277" type="curve" smooth="yes"/>
      <point x="30" y="135"/>
      <point x="133" y="16"/>
      <point x="275" y="-9" type="curve"/>
      <point x="233" y="-107" type="line"/>
      <point x="285" y="-133" type="line"/>
      <point x="298" y="-116"/>
      <point x="309" y="-109"/>
      <point x="323" y="-109" type="curve" smooth="yes"/>
      <point x="345" y="-109"/>
      <point x="361" y="-128"/>
      <point x="361" y="-153" type="curve" smooth="yes"/>
      <point x="361" y="-178"/>
      <point x="345" y="-196"/>
      <point x="323" y="-196" type="curve" smooth="yes"/>
      <point x="305" y="-196"/>
      <point x="293" y="-186"/>
      <point x="285" y="-166" type="curve"/>
      <point x="225" y="-166" type="line"/>
      <point x="232" y="-215"/>
      <point x="273" y="-251"/>
      <point x="324" y="-251" type="curve" smooth="yes"/>
      <point x="381" y="-251"/>
      <point x="419" y="-211"/>
      <point x="419" y="-151" type="curve" smooth="yes"/>
      <point x="419" y="-94"/>
      <point x="381" y="-51"/>
      <point x="331" y="-51" type="curve" smooth="yes"/>
      <point x="320" y="-51"/>
      <point x="313" y="-53"/>
      <point x="300" y="-58" type="curve"/>
    </contour>
  </outline>
</glyph>
<glyph name="egrave" format="1">
  <advance width="640"/>
  <unicode hex="00E8"/>
  <outline>
    <contour>
      <point x="603" y="218" type="line"/>
      <point x="607" y="237"/>
      <point x="608" y="249"/>
      <point x="608" y="269" type="curve" smooth="yes"/>
      <point x="608" y="441"/>
      <point x="487" y="567"/>
      <point x="322" y="567" type="curve" smooth="yes"/>
      <point x="159" y="567"/>
      <point x="30" y="438"/>
      <point x="30" y="275" type="curve" smooth="yes"/>
      <point x="30" y="113"/>
      <point x="161" y="-13"/>
      <point x="330" y="-13" type="curve" smooth="yes"/>
      <point x="421" y="-13"/>
      <point x="492" y="20"/>
      <point x="550" y="87" type="curve" smooth="yes"/>
      <point x="571" y="113"/>
      <point x="585" y="136"/>
      <point x="594" y="164" type="curve"/>
      <point x="449" y="164" type="line"/>
      <point x="415" y="124"/>
      <point x="382" y="109"/>
      <point x="327" y="109" type="curve" smooth="yes"/>
      <point x="248" y="109"/>
      <point x="190" y="151"/>
      <point x="174" y="218" type="curve"/>
    </contour>
    <contour>
      <point x="170" y="335" type="line"/>
      <point x="191" y="406"/>
      <point x="245" y="445"/>
      <point x="324" y="445" type="curve" smooth="yes"/>
      <point x="406" y="445"/>
      <point x="460" y="406"/>
      <point x="477" y="335" type="curve"/>
    </contour>
    <contour>
      <point x="143" y="737" type="line"/>
      <point x="369" y="613" type="line"/>
      <point x="422" y="692" type="line"/>
      <point x="200" y="825" type="line"/>
    </contour>
  </outline>
</glyph>
<glyph name="igrave" format="1">
  <advance width="240"/>
  <unicode hex="00EC"/>
  <outline>
    <contour>
      <point x="54" y="0" type="line"/>
      <point x="187" y="0" type="line"/>
      <point x="187" y="554" type="line"/>
      <point x="54" y="554" type="line"/>
    </contour>
    <contour>
      <point x="-16" y="737" type="line"/>
      <point x="210" y="613" type="line"/>
      <point x="263" y="692" type="line"/>
      <point x="41" y="825" type="line"/>
    </contour>
  </outline>
</glyph>
<glyph name="iacute" format="1">
  <advance width="240"/>
  <unicode hex="00ED"/>
  <outline>
    <contour>
      <point x="54" y="0" type="line"/>
      <point x="187" y="0" type="line"/>
      <point x="187" y="554" type="line"/>
      <point x="54" y="554" type="line"/>
    </contour>
    <contour>
      <point x="35" y="613" type="line"/>
      <point x="262" y="733" type="line"/>
      <point x="208" y="825" type="line"/>
      <point x="-16" y="691" type="line"/>
    </contour>
  </outline>
</glyph>
<glyph name="icircumflex" format="1">
  <advance width="240"/>
  <unicode hex="00EE"/>
  <outline>
    <contour>
      <point x="54" y="0" type="line"/>
      <point x="187" y="0" type="line"/>
      <point x="187" y="554" type="line"/>
      <point x="54" y="554" type="line"/>
    </contour>
    <contour>
      <point x="-76" y="630" type="line"/>
      <point x="71" y="630" type="line"/>
      <point x="125" y="694" type="line"/>
      <point x="178" y="630" type="line"/>
      <point x="323" y="630" type="line"/>
      <point x="178" y="768" type="line"/>
      <point x="71" y="768" type="line"/>
    </contour>
  </outline>
</glyph>
<glyph name="idieresis" format="1">
  <advance width="240"/>
  <unicode hex="00EF"/>
  <outline>
    <contour>
      <point x="54" y="0" type="line"/>
      <point x="187" y="0" type="line"/>
      <point x="187" y="554" type="line"/>
      <point x="54" y="554" type="line"/>
    </contour>
    <contour>
      <point x="-56" y="630" type="line"/>
      <point x="77" y="630" type="line"/>
      <point x="77" y="763" type="line"/>
      <point x="-56" y="763" type="line"/>
    </contour>
    <contour>
      <point x="154" y="630" type="line"/>
      <point x="287" y="630" type="line"/>
      <point x="287" y="763" type="line"/>
      <point x="154" y="763" type="line"/>
    </contour>
  </outline>
</glyph>
<glyph name="eth" format="1">
  <advance width="640"/>
  <unicode hex="00F0"/>
  <outline>
    <contour>
      <point x="169" y="721" type="line"/>
      <point x="191" y="704"/>
      <point x="195" y="701"/>
      <point x="239" y="664" type="curve"/>
      <point x="161" y="627" type="line"/>
      <point x="201" y="581" type="line"/>
      <point x="288" y="621" type="line"/>
      <point x="309" y="603"/>
      <point x="311" y="601"/>
      <point x="337" y="575" type="curve" smooth="yes"/>
      <point x="365" y="547" type="line"/>
      <point x="338" y="553"/>
      <point x="314" y="556"/>
      <point x="298" y="556" type="curve" smooth="yes"/>
      <point x="261" y="556"/>
      <point x="206" y="541"/>
      <point x="171" y="522" type="curve" smooth="yes"/>
      <point x="86" y="475"/>
      <point x="30" y="378"/>
      <point x="30" y="278" type="curve" smooth="yes"/>
      <point x="30" y="118"/>
      <point x="163" y="-13"/>
      <point x="325" y="-13" type="curve" smooth="yes"/>
      <point x="490" y="-13"/>
      <point x="619" y="117"/>
      <point x="619" y="284" type="curve" smooth="yes"/>
      <point x="619" y="369"/>
      <point x="585" y="452"/>
      <point x="516" y="538" type="curve" smooth="yes"/>
      <point x="483" y="579"/>
      <point x="458" y="604"/>
      <point x="387" y="665" type="curve"/>
      <point x="465" y="700" type="line"/>
      <point x="424" y="749" type="line"/>
      <point x="337" y="709" type="line"/>
      <point x="327" y="716"/>
      <point x="321" y="721"/>
      <point x="318" y="722" type="curve"/>
      <point x="288" y="745" type="line"/>
      <point x="286" y="746"/>
      <point x="281" y="750"/>
      <point x="272" y="756" type="curve"/>
    </contour>
    <contour>
      <point x="324" y="445" type="curve" smooth="yes"/>
      <point x="413" y="445"/>
      <point x="485" y="369"/>
      <point x="485" y="277" type="curve" smooth="yes"/>
      <point x="485" y="184"/>
      <point x="413" y="109"/>
      <point x="325" y="109" type="curve" smooth="yes"/>
      <point x="235" y="109"/>
      <point x="164" y="184"/>
      <point x="164" y="279" type="curve" smooth="yes"/>
      <point x="164" y="370"/>
      <point x="237" y="445"/>
    </contour>
  </outline>
</glyph>
<glyph name="ntilde" format="1">
  <advance width="600"/>
  <unicode hex="00F1"/>
  <outline>
    <contour>
      <point x="54" y="0" type="line"/>
      <point x="187" y="0" type="line"/>
      <point x="187" y="261" type="line" smooth="yes"/>
      <point x="187" y="335"/>
      <point x="192" y="367"/>
      <point x="209" y="394" type="curve" smooth="yes"/>
      <point x="230" y="427"/>
      <point x="265" y="445"/>
      <point x="307" y="445" type="curve" smooth="yes"/>
      <point x="341" y="445"/>
      <point x="369" y="433"/>
      <point x="387" y="410" type="curve" smooth="yes"/>
      <point x="405" y="386"/>
      <point x="413" y="345"/>
      <point x="413" y="271" type="curve" smooth="yes"/>
      <point x="413" y="0" type="line"/>
      <point x="546" y="0" type="line"/>
      <point x="546" y="297" type="line" smooth="yes"/>
      <point x="546" y="396"/>
      <point x="536" y="444"/>
      <point x="506" y="487" type="curve" smooth="yes"/>
      <point x="470" y="539"/>
      <point x="410" y="567"/>
      <point x="333" y="567" type="curve" smooth="yes"/>
      <point x="270" y="567"/>
      <point x="226" y="548"/>
      <point x="177" y="501" type="curve"/>
      <point x="177" y="554" type="line"/>
      <point x="54" y="554" type="line"/>
    </contour>
    <contour>
      <point x="179" y="636" type="line"/>
      <point x="217" y="658"/>
      <point x="224" y="661"/>
      <point x="249" y="661" type="curve" smooth="yes"/>
      <point x="265" y="661"/>
      <point x="275" y="659"/>
      <point x="303" y="649" type="curve" smooth="yes"/>
      <point x="329" y="640"/>
      <point x="347" y="636"/>
      <point x="362" y="636" type="curve" smooth="yes"/>
      <point x="397" y="636"/>
      <point x="424" y="652"/>
      <point x="456" y="691" type="curve"/>
      <point x="402" y="772" type="line"/>
      <point x="381" y="748"/>
      <point x="361" y="738"/>
      <point x="335" y="738" type="curve" smooth="yes"/>
      <point x="322" y="738"/>
      <point x="308" y="741"/>
      <point x="288" y="749" type="curve" smooth="yes"/>
      <point x="259" y="761"/>
      <point x="249" y="763"/>
      <point x="228" y="763" type="curve" smooth="yes"/>
      <point x="186" y="763"/>
      <point x="160" y="751"/>
      <point x="125" y="716" type="curve"/>
    </contour>
  </outline>
</glyph>
<glyph name="ograve" format="1">
  <advance width="640"/>
  <unicode hex="00F2"/>
  <outline>
    <contour>
      <point x="323" y="567" type="curve" smooth="yes"/>
      <point x="162" y="567"/>
      <point x="30" y="436"/>
      <point x="30" y="277" type="curve" smooth="yes"/>
      <point x="30" y="117"/>
      <point x="162" y="-13"/>
      <point x="324" y="-13" type="curve" smooth="yes"/>
      <point x="485" y="-13"/>
      <point x="619" y="117"/>
      <point x="619" y="273" type="curve" smooth="yes"/>
      <point x="619" y="438"/>
      <point x="490" y="567"/>
    </contour>
    <contour>
      <point x="324" y="445" type="curve" smooth="yes"/>
      <point x="413" y="445"/>
      <point x="485" y="369"/>
      <point x="485" y="277" type="curve" smooth="yes"/>
      <point x="485" y="184"/>
      <point x="413" y="109"/>
      <point x="325" y="109" type="curve" smooth="yes"/>
      <point x="235" y="109"/>
      <point x="164" y="184"/>
      <point x="164" y="279" type="curve" smooth="yes"/>
      <point x="164" y="370"/>
      <point x="237" y="445"/>
    </contour>
    <contour>
      <point x="152" y="737" type="line"/>
      <point x="378" y="613" type="line"/>
      <point x="431" y="692" type="line"/>
      <point x="209" y="825" type="line"/>
    </contour>
  </outline>
</glyph>
<glyph name="ocircumflex" format="1">
  <advance width="640"/>
  <unicode hex="00F4"/>
  <outline>
    <contour>
      <point x="323" y="567" type="curve" smooth="yes"/>
      <point x="162" y="567"/>
      <point x="30" y="436"/>
      <point x="30" y="277" type="curve" smooth="yes"/>
      <point x="30" y="117"/>
      <point x="162" y="-13"/>
      <point x="324" y="-13" type="curve" smooth="yes"/>
      <point x="485" y="-13"/>
      <point x="619" y="117"/>
      <point x="619" y="273" type="curve" smooth="yes"/>
      <point x="619" y="438"/>
      <point x="490" y="567"/>
    </contour>
    <contour>
      <point x="324" y="445" type="curve" smooth="yes"/>
      <point x="413" y="445"/>
      <point x="485" y="369"/>
      <point x="485" y="277" type="curve" smooth="yes"/>
      <point x="485" y="184"/>
      <point x="413" y="109"/>
      <point x="325" y="109" type="curve" smooth="yes"/>
      <point x="235" y="109"/>
      <point x="164" y="184"/>
      <point x="164" y="279" type="curve" smooth="yes"/>
      <point x="164" y="370"/>
      <point x="237" y="445"/>
    </contour>
    <contour>
      <point x="125" y="630" type="line"/>
      <point x="272" y="630" type="line"/>
      <point x="326" y="694" type="line"/>
      <point x="379" y="630" type="line"/>
      <point x="524" y="630" type="line"/>
      <point x="379" y="768" type="line"/>
      <point x="272" y="768" type="line"/>
    </contour>
  </outline>
</glyph>
<glyph name="otilde" format="1">
  <advance width="640"/>
  <unicode hex="00F5"/>
  <outline>
    <contour>
      <point x="323" y="567" type="curve" smooth="yes"/>
      <point x="162" y="567"/>
      <point x="30" y="436"/>
      <point x="30" y="277" type="curve" smooth="yes"/>
      <point x="30" y="117"/>
      <point x="162" y="-13"/>
      <point x="324" y="-13" type="curve" smooth="yes"/>
      <point x="485" y="-13"/>
      <point x="619" y="117"/>
      <point x="619" y="273" type="curve" smooth="yes"/>
      <point x="619" y="438"/>
      <point x="490" y="567"/>
    </contour>
    <contour>
      <point x="324" y="445" type="curve" smooth="yes"/>
      <point x="413" y="445"/>
      <point x="485" y="369"/>
      <point x="485" y="277" type="curve" smooth="yes"/>
      <point x="485" y="184"/>
      <point x="413" y="109"/>
      <point x="325" y="109" type="curve" smooth="yes"/>
      <point x="235" y="109"/>
      <point x="164" y="184"/>
      <point x="164" y="279" type="curve" smooth="yes"/>
      <point x="164" y="370"/>
      <point x="237" y="445"/>
    </contour>
    <contour>
      <point x="216" y="636" type="line"/>
      <point x="254" y="658"/>
      <point x="261" y="661"/>
      <point x="286" y="661" type="curve" smooth="yes"/>
      <point x="302" y="661"/>
      <point x="312" y="659"/>
      <point x="340" y="649" type="curve" smooth="yes"/>
      <point x="366" y="640"/>
      <point x="384" y="636"/>
      <point x="399" y="636" type="curve" smooth="yes"/>
      <point x="434" y="636"/>
      <point x="461" y="652"/>
      <point x="493" y="691" type="curve"/>
      <point x="439" y="772" type="line"/>
      <point x="418" y="748"/>
      <point x="398" y="738"/>
      <point x="372" y="738" type="curve" smooth="yes"/>
      <point x="359" y="738"/>
      <point x="345" y="741"/>
      <point x="325" y="749" type="curve" smooth="yes"/>
      <point x="296" y="761"/>
      <point x="286" y="763"/>
      <point x="265" y="763" type="curve" smooth="yes"/>
      <point x="223" y="763"/>
      <point x="197" y="751"/>
      <point x="162" y="716" type="curve"/>
    </contour>
  </outline>
</glyph>
<glyph name="divide" format="1">
  <advance width="600"/>
  <unicode hex="00F7"/>
  <outline>
    <contour>
      <point x="370" y="538" type="line"/>
      <point x="370" y="669" type="line"/>
      <point x="235" y="669" type="line"/>
      <point x="235" y="538" type="line"/>
    </contour>
    <contour>
      <point x="370" y="73" type="line"/>
      <point x="370" y="204" type="line"/>
      <point x="235" y="204" type="line"/>
      <point x="235" y="73" type="line"/>
    </contour>
    <contour>
      <point x="555" y="430" type="line"/>
      <point x="51" y="430" type="line"/>
      <point x="51" y="312" type="line"/>
      <point x="555" y="312" type="line"/>
    </contour>
  </outline>
</glyph>
<glyph name="oslash" format="1">
  <advance width="660"/>
  <unicode hex="00F8"/>
  <outline>
    <contour>
      <point x="59" y="-10" type="line"/>
      <point x="144" y="-67" type="line"/>
      <point x="200" y="15" type="line"/>
      <point x="241" y="-4"/>
      <point x="282" y="-13"/>
      <point x="326" y="-13" type="curve" smooth="yes"/>
      <point x="488" y="-13"/>
      <point x="620" y="117"/>
      <point x="620" y="277" type="curve" smooth="yes"/>
      <point x="620" y="360"/>
      <point x="587" y="433"/>
      <point x="523" y="492" type="curve"/>
      <point x="573" y="565" type="line"/>
      <point x="487" y="623" type="line"/>
      <point x="435" y="546" type="line"/>
      <point x="400" y="560"/>
      <point x="365" y="567"/>
      <point x="326" y="567" type="curve" smooth="yes"/>
      <point x="163" y="567"/>
      <point x="30" y="437"/>
      <point x="30" y="277" type="curve" smooth="yes"/>
      <point x="30" y="200"/>
      <point x="61" y="126"/>
      <point x="116" y="74" type="curve"/>
    </contour>
    <contour>
      <point x="191" y="185" type="line"/>
      <point x="173" y="214"/>
      <point x="164" y="245"/>
      <point x="164" y="278" type="curve" smooth="yes"/>
      <point x="164" y="370"/>
      <point x="237" y="445"/>
      <point x="325" y="445" type="curve" smooth="yes"/>
      <point x="339" y="445"/>
      <point x="348" y="444"/>
      <point x="363" y="440" type="curve"/>
    </contour>
    <contour>
      <point x="450" y="383" type="line"/>
      <point x="474" y="351"/>
      <point x="486" y="315"/>
      <point x="486" y="276" type="curve" smooth="yes"/>
      <point x="486" y="184"/>
      <point x="414" y="109"/>
      <point x="325" y="109" type="curve" smooth="yes"/>
      <point x="306" y="109"/>
      <point x="290" y="112"/>
      <point x="271" y="119" type="curve"/>
    </contour>
  </outline>
</glyph>
<glyph name="yacute" format="1">
  <advance width="580"/>
  <unicode hex="00FD"/>
  <outline>
    <contour>
      <point x="105" y="-185" type="line"/>
      <point x="248" y="-185" type="line"/>
      <point x="568" y="554" type="line"/>
      <point x="415" y="554" type="line"/>
      <point x="281" y="195" type="line"/>
      <point x="158" y="554" type="line"/>
      <point x="6" y="554" type="line"/>
      <point x="209" y="52" type="line"/>
    </contour>
    <contour>
      <point x="205" y="613" type="line"/>
      <point x="432" y="733" type="line"/>
      <point x="378" y="825" type="line"/>
      <point x="154" y="691" type="line"/>
    </contour>
  </outline>
</glyph>
<glyph name="thorn" format="1">
  <advance width="660"/>
  <unicode hex="00FE"/>
  <outline>
    <contour>
      <point x="54" y="739" type="line"/>
      <point x="54" y="-185" type="line"/>
      <point x="187" y="-185" type="line"/>
      <point x="187" y="59" type="line"/>
      <point x="230" y="12"/>
      <point x="289" y="-13"/>
      <point x="359" y="-13" type="curve" smooth="yes"/>
      <point x="519" y="-13"/>
      <point x="634" y="108"/>
      <point x="634" y="277" type="curve" smooth="yes"/>
      <point x="634" y="445"/>
      <point x="519" y="567"/>
      <point x="359" y="567" type="curve" smooth="yes"/>
      <point x="289" y="567"/>
      <point x="230" y="542"/>
      <point x="187" y="495" type="curve"/>
      <point x="187" y="739" type="line"/>
    </contour>
    <contour>
      <point x="341" y="445" type="curve" smooth="yes"/>
      <point x="431" y="445"/>
      <point x="500" y="372"/>
      <point x="500" y="277" type="curve" smooth="yes"/>
      <point x="500" y="182"/>
      <point x="431" y="109"/>
      <point x="341" y="109" type="curve" smooth="yes"/>
      <point x="248" y="109"/>
      <point x="179" y="181"/>
      <point x="179" y="279" type="curve" smooth="yes"/>
      <point x="179" y="373"/>
      <point x="249" y="445"/>
    </contour>
  </outline>
</glyph>
<glyph name="ydieresis" format="1">
  <advance width="580"/>
  <unicode hex="00FF"/>
  <outline>
    <contour>
      <point x="105" y="-185" type="line"/>
      <point x="248" y="-185" type="line"/>
      <point x="568" y="554" type="line"/>
      <point x="415" y="554" type="line"/>
      <point x="281" y="195" type="line"/>
      <point x="158" y="554" type="line"/>
      <point x="6" y="554" type="line"/>
      <point x="209" y="52" type="line"/>
    </contour>
    <contour>
      <point x="116" y="630" type="line"/>
      <point x="249" y="630" type="line"/>
      <point x="249" y="763" type="line"/>
      <point x="116" y="763" type="line"/>
    </contour>
    <contour>
      <point x="326" y="630" type="line"/>
      <point x="459" y="630" type="line"/>
      <point x="459" y="763" type="line"/>
      <point x="326" y="763" type="line"/>
    </contour>
  </outline>
</glyph>
<glyph name="Abreve" format="1">
  <advance width="740"/>
  <unicode hex="0102"/>
  <outline>
    <contour>
      <point x="7" y="0" type="line"/>
      <point x="158" y="0" type="line"/>
      <point x="240" y="191" type="line"/>
      <point x="503" y="191" type="line"/>
      <point x="582" y="0" type="line"/>
      <point x="733" y="0" type="line"/>
      <point x="423" y="739" type="line"/>
      <point x="315" y="739" type="line"/>
    </contour>
    <contour>
      <point x="290" y="322" type="line"/>
      <point x="369" y="546" type="line"/>
      <point x="448" y="322" type="line"/>
    </contour>
    <contour>
      <point x="204" y="944" type="line"/>
      <point x="210" y="856"/>
      <point x="271" y="805"/>
      <point x="370" y="805" type="curve" smooth="yes"/>
      <point x="465" y="805"/>
      <point x="531" y="861"/>
      <point x="534" y="944" type="curve"/>
      <point x="432" y="944" type="line"/>
      <point x="427" y="916"/>
      <point x="405" y="901"/>
      <point x="370" y="901" type="curve" smooth="yes"/>
      <point x="337" y="901"/>
      <point x="314" y="915"/>
      <point x="302" y="944" type="curve"/>
    </contour>
  </outline>
</glyph>
<glyph name="abreve" format="1">
  <advance width="660"/>
  <unicode hex="0103"/>
  <outline>
    <contour>
      <point x="615" y="554" type="line"/>
      <point x="493" y="554" type="line"/>
      <point x="493" y="480" type="line"/>
      <point x="447" y="541"/>
      <point x="392" y="567"/>
      <point x="312" y="567" type="curve" smooth="yes"/>
      <point x="148" y="567"/>
      <point x="30" y="444"/>
      <point x="30" y="275" type="curve" smooth="yes"/>
      <point x="30" y="108"/>
      <point x="147" y="-13"/>
      <point x="309" y="-13" type="curve" smooth="yes"/>
      <point x="387" y="-13"/>
      <point x="440" y="12"/>
      <point x="493" y="72" type="curve"/>
      <point x="493" y="0" type="line"/>
      <point x="615" y="0" type="line"/>
    </contour>
    <contour>
      <point x="326" y="445" type="curve" smooth="yes"/>
      <point x="421" y="445"/>
      <point x="489" y="374"/>
      <point x="489" y="273" type="curve" smooth="yes"/>
      <point x="489" y="233"/>
      <point x="473" y="187"/>
      <point x="449" y="159" type="curve" smooth="yes"/>
      <point x="422" y="127"/>
      <point x="379" y="109"/>
      <point x="328" y="109" type="curve" smooth="yes"/>
      <point x="231" y="109"/>
      <point x="164" y="175"/>
      <point x="164" y="272" type="curve" smooth="yes"/>
      <point x="164" y="373"/>
      <point x="231" y="445"/>
    </contour>
    <contour>
      <point x="164" y="769" type="line"/>
      <point x="170" y="681"/>
      <point x="231" y="630"/>
      <point x="330" y="630" type="curve" smooth="yes"/>
      <point x="425" y="630"/>
      <point x="491" y="686"/>
      <point x="494" y="769" type="curve"/>
      <point x="392" y="769" type="line"/>
      <point x="387" y="741"/>
      <point x="365" y="726"/>
      <point x="330" y="726" type="curve" smooth="yes"/>
      <point x="297" y="726"/>
      <point x="274" y="740"/>
      <point x="262" y="769" type="curve"/>
    </contour>
  </outline>
</glyph>
<glyph name="Aogonek" format="1">
  <advance width="740"/>
  <unicode hex="0104"/>
  <outline>
    <contour>
      <point x="502" y="191" type="line"/>
      <point x="581" y="0" type="line"/>
      <point x="663" y="0" type="line"/>
      <point x="606" y="-27"/>
      <point x="577" y="-62"/>
      <point x="577" y="-105" type="curve" smooth="yes"/>
      <point x="577" y="-164"/>
      <point x="624" y="-204"/>
      <point x="693" y="-204" type="curve" smooth="yes"/>
      <point x="715" y="-204"/>
      <point x="737" y="-199"/>
      <point x="759" y="-190" type="curve"/>
      <point x="759" y="-113" type="line"/>
      <point x="739" y="-121"/>
      <point x="730" y="-123"/>
      <point x="718" y="-123" type="curve" smooth="yes"/>
      <point x="689" y="-123"/>
      <point x="668" y="-105"/>
      <point x="668" y="-81" type="curve" smooth="yes"/>
      <point x="668" y="-54"/>
      <point x="683" y="-36"/>
      <point x="733" y="0" type="curve"/>
      <point x="423" y="739" type="line"/>
      <point x="315" y="739" type="line"/>
      <point x="7" y="0" type="line"/>
      <point x="158" y="0" type="line"/>
      <point x="240" y="191" type="line"/>
    </contour>
    <contour>
      <point x="290" y="322" type="line"/>
      <point x="369" y="546" type="line"/>
      <point x="448" y="322" type="line"/>
    </contour>
  </outline>
</glyph>
<glyph name="aogonek" format="1">
  <advance width="660"/>
  <unicode hex="0105"/>
  <outline>
    <contour>
      <point x="615" y="554" type="line"/>
      <point x="493" y="554" type="line"/>
      <point x="493" y="480" type="line"/>
      <point x="447" y="541"/>
      <point x="392" y="567"/>
      <point x="312" y="567" type="curve" smooth="yes"/>
      <point x="148" y="567"/>
      <point x="30" y="444"/>
      <point x="30" y="275" type="curve" smooth="yes"/>
      <point x="30" y="108"/>
      <point x="147" y="-13"/>
      <point x="309" y="-13" type="curve" smooth="yes"/>
      <point x="387" y="-13"/>
      <point x="440" y="12"/>
      <point x="493" y="72" type="curve"/>
      <point x="493" y="0" type="line"/>
      <point x="545" y="0" type="line"/>
      <point x="487" y="-27"/>
      <point x="459" y="-62"/>
      <point x="459" y="-105" type="curve" smooth="yes"/>
      <point x="459" y="-164"/>
      <point x="506" y="-204"/>
      <point x="575" y="-204" type="curve" smooth="yes"/>
      <point x="597" y="-204"/>
      <point x="619" y="-199"/>
      <point x="641" y="-190" type="curve"/>
      <point x="641" y="-113" type="line"/>
      <point x="621" y="-121"/>
      <point x="612" y="-123"/>
      <point x="600" y="-123" type="curve" smooth="yes"/>
      <point x="571" y="-123"/>
      <point x="550" y="-105"/>
      <point x="550" y="-81" type="curve" smooth="yes"/>
      <point x="550" y="-54"/>
      <point x="564" y="-37"/>
      <point x="615" y="0" type="curve"/>
    </contour>
    <contour>
      <point x="326" y="445" type="curve" smooth="yes"/>
      <point x="421" y="445"/>
      <point x="489" y="374"/>
      <point x="489" y="273" type="curve" smooth="yes"/>
      <point x="489" y="233"/>
      <point x="473" y="187"/>
      <point x="449" y="159" type="curve" smooth="yes"/>
      <point x="422" y="127"/>
      <point x="379" y="109"/>
      <point x="328" y="109" type="curve" smooth="yes"/>
      <point x="231" y="109"/>
      <point x="164" y="175"/>
      <point x="164" y="272" type="curve" smooth="yes"/>
      <point x="164" y="373"/>
      <point x="231" y="445"/>
    </contour>
  </outline>
</glyph>
<glyph name="Dcaron" format="1">
  <advance width="700"/>
  <unicode hex="010E"/>
  <outline>
    <contour>
      <point x="68" y="0" type="line"/>
      <point x="240" y="0" type="line" smooth="yes"/>
      <point x="352" y="0"/>
      <point x="419" y="11"/>
      <point x="479" y="41" type="curve" smooth="yes"/>
      <point x="593" y="97"/>
      <point x="660" y="219"/>
      <point x="660" y="368" type="curve" smooth="yes"/>
      <point x="660" y="508"/>
      <point x="602" y="624"/>
      <point x="499" y="686" type="curve" smooth="yes"/>
      <point x="441" y="721"/>
      <point x="353" y="739"/>
      <point x="237" y="739" type="curve" smooth="yes"/>
      <point x="68" y="739" type="line"/>
    </contour>
    <contour>
      <point x="205" y="131" type="line"/>
      <point x="205" y="608" type="line"/>
      <point x="232" y="608" type="line" smooth="yes"/>
      <point x="319" y="608"/>
      <point x="366" y="600"/>
      <point x="409" y="578" type="curve" smooth="yes"/>
      <point x="479" y="542"/>
      <point x="522" y="463"/>
      <point x="522" y="368" type="curve" smooth="yes"/>
      <point x="522" y="279"/>
      <point x="481" y="200"/>
      <point x="415" y="164" type="curve" smooth="yes"/>
      <point x="374" y="141"/>
      <point x="317" y="131"/>
      <point x="235" y="131" type="curve" smooth="yes"/>
    </contour>
    <contour>
      <point x="114" y="943" type="line"/>
      <point x="261" y="805" type="line"/>
      <point x="368" y="805" type="line"/>
      <point x="513" y="943" type="line"/>
      <point x="368" y="943" type="line"/>
      <point x="315" y="879" type="line"/>
      <point x="261" y="943" type="line"/>
    </contour>
  </outline>
</glyph>
<glyph name="dcroat" format="1">
  <advance width="660"/>
  <unicode hex="0111"/>
  <outline>
    <contour>
      <point x="613" y="689" type="line"/>
      <point x="613" y="739" type="line"/>
      <point x="480" y="739" type="line"/>
      <point x="480" y="689" type="line"/>
      <point x="354" y="689" type="line"/>
      <point x="354" y="602" type="line"/>
      <point x="480" y="602" type="line"/>
      <point x="480" y="504" type="line"/>
      <point x="441" y="548"/>
      <point x="377" y="574"/>
      <point x="308" y="574" type="curve" smooth="yes"/>
      <point x="152" y="574"/>
      <point x="30" y="444"/>
      <point x="30" y="278" type="curve" smooth="yes"/>
      <point x="30" y="114"/>
      <point x="151" y="-13"/>
      <point x="308" y="-13" type="curve" smooth="yes"/>
      <point x="383" y="-13"/>
      <point x="437" y="12"/>
      <point x="491" y="72" type="curve"/>
      <point x="491" y="0" type="line"/>
      <point x="613" y="0" type="line"/>
      <point x="613" y="602" type="line"/>
      <point x="660" y="602" type="line"/>
      <point x="660" y="689" type="line"/>
    </contour>
    <contour>
      <point x="326" y="452" type="curve" smooth="yes"/>
      <point x="419" y="452"/>
      <point x="490" y="378"/>
      <point x="490" y="280" type="curve" smooth="yes"/>
      <point x="490" y="184"/>
      <point x="419" y="109"/>
      <point x="329" y="109" type="curve" smooth="yes"/>
      <point x="236" y="109"/>
      <point x="164" y="186"/>
      <point x="164" y="284" type="curve" smooth="yes"/>
      <point x="164" y="378"/>
      <point x="235" y="452"/>
    </contour>
  </outline>
</glyph>
<glyph name="Emacron" format="1">
  <advance width="520"/>
  <unicode hex="0112"/>
  <outline>
    <contour>
      <point x="68" y="0" type="line"/>
      <point x="465" y="0" type="line"/>
      <point x="465" y="131" type="line"/>
      <point x="205" y="131" type="line"/>
      <point x="205" y="303" type="line"/>
      <point x="454" y="303" type="line"/>
      <point x="454" y="434" type="line"/>
      <point x="205" y="434" type="line"/>
      <point x="205" y="608" type="line"/>
      <point x="465" y="608" type="line"/>
      <point x="465" y="739" type="line"/>
      <point x="68" y="739" type="line"/>
    </contour>
    <contour>
      <point x="124" y="823" type="line"/>
      <point x="401" y="823" type="line"/>
      <point x="401" y="923" type="line"/>
      <point x="124" y="923" type="line"/>
    </contour>
  </outline>
</glyph>
<glyph name="Eogonek" format="1">
  <advance width="520"/>
  <unicode hex="0118"/>
  <outline>
    <contour>
      <point x="465" y="131" type="line"/>
      <point x="205" y="131" type="line"/>
      <point x="205" y="303" type="line"/>
      <point x="454" y="303" type="line"/>
      <point x="454" y="434" type="line"/>
      <point x="205" y="434" type="line"/>
      <point x="205" y="608" type="line"/>
      <point x="465" y="608" type="line"/>
      <point x="465" y="739" type="line"/>
      <point x="68" y="739" type="line"/>
      <point x="68" y="0" type="line"/>
      <point x="395" y="0" type="line"/>
      <point x="337" y="-27"/>
      <point x="309" y="-62"/>
      <point x="309" y="-105" type="curve" smooth="yes"/>
      <point x="309" y="-164"/>
      <point x="356" y="-204"/>
      <point x="425" y="-204" type="curve" smooth="yes"/>
      <point x="447" y="-204"/>
      <point x="469" y="-199"/>
      <point x="491" y="-190" type="curve"/>
      <point x="491" y="-113" type="line"/>
      <point x="471" y="-121"/>
      <point x="462" y="-123"/>
      <point x="450" y="-123" type="curve" smooth="yes"/>
      <point x="421" y="-123"/>
      <point x="400" y="-105"/>
      <point x="400" y="-81" type="curve" smooth="yes"/>
      <point x="400" y="-54"/>
      <point x="414" y="-37"/>
      <point x="465" y="0" type="curve"/>
    </contour>
  </outline>
</glyph>
<glyph name="eogonek" format="1">
  <advance width="640"/>
  <unicode hex="0119"/>
  <outline>
    <contour>
      <point x="602" y="218" type="line"/>
      <point x="607" y="237"/>
      <point x="608" y="249"/>
      <point x="608" y="269" type="curve" smooth="yes"/>
      <point x="608" y="441"/>
      <point x="487" y="567"/>
      <point x="322" y="567" type="curve" smooth="yes"/>
      <point x="159" y="567"/>
      <point x="30" y="438"/>
      <point x="30" y="275" type="curve" smooth="yes"/>
      <point x="30" y="113"/>
      <point x="161" y="-13"/>
      <point x="330" y="-13" type="curve" smooth="yes"/>
      <point x="349" y="-13"/>
      <point x="364" y="-12"/>
      <point x="386" y="-8" type="curve"/>
      <point x="340" y="-35"/>
      <point x="317" y="-67"/>
      <point x="317" y="-105" type="curve" smooth="yes"/>
      <point x="317" y="-164"/>
      <point x="364" y="-204"/>
      <point x="433" y="-204" type="curve" smooth="yes"/>
      <point x="455" y="-204"/>
      <point x="477" y="-199"/>
      <point x="499" y="-190" type="curve"/>
      <point x="499" y="-113" type="line"/>
      <point x="479" y="-121"/>
      <point x="470" y="-123"/>
      <point x="458" y="-123" type="curve" smooth="yes"/>
      <point x="429" y="-123"/>
      <point x="408" y="-105"/>
      <point x="408" y="-80" type="curve" smooth="yes"/>
      <point x="408" y="-57"/>
      <point x="413" y="-50"/>
      <point x="463" y="-3" type="curve" smooth="yes"/>
      <point x="542" y="71"/>
      <point x="580" y="120"/>
      <point x="594" y="164" type="curve"/>
      <point x="449" y="164" type="line"/>
      <point x="415" y="124"/>
      <point x="382" y="109"/>
      <point x="327" y="109" type="curve" smooth="yes"/>
      <point x="248" y="109"/>
      <point x="189" y="151"/>
      <point x="173" y="218" type="curve"/>
    </contour>
    <contour>
      <point x="169" y="335" type="line"/>
      <point x="191" y="406"/>
      <point x="245" y="445"/>
      <point x="324" y="445" type="curve" smooth="yes"/>
      <point x="406" y="445"/>
      <point x="460" y="406"/>
      <point x="477" y="335" type="curve"/>
    </contour>
  </outline>
</glyph>
<glyph name="gbreve" format="1">
  <advance width="660"/>
  <unicode hex="011F"/>
  <outline>
    <contour>
      <point x="484" y="554" type="line"/>
      <point x="484" y="484" type="line"/>
      <point x="443" y="540"/>
      <point x="383" y="567"/>
      <point x="303" y="567" type="curve" smooth="yes"/>
      <point x="146" y="567"/>
      <point x="30" y="445"/>
      <point x="30" y="281" type="curve" smooth="yes"/>
      <point x="30" y="110"/>
      <point x="144" y="-13"/>
      <point x="302" y="-13" type="curve" smooth="yes"/>
      <point x="380" y="-13"/>
      <point x="432" y="12"/>
      <point x="484" y="73" type="curve"/>
      <point x="479" y="-46"/>
      <point x="428" y="-104"/>
      <point x="329" y="-104" type="curve" smooth="yes"/>
      <point x="267" y="-104"/>
      <point x="229" y="-88"/>
      <point x="190" y="-45" type="curve"/>
      <point x="39" y="-45" type="line"/>
      <point x="84" y="-156"/>
      <point x="188" y="-221"/>
      <point x="324" y="-221" type="curve" smooth="yes"/>
      <point x="424" y="-221"/>
      <point x="503" y="-186"/>
      <point x="555" y="-120" type="curve" smooth="yes"/>
      <point x="594" y="-69"/>
      <point x="611" y="-1"/>
      <point x="611" y="105" type="curve" smooth="yes"/>
      <point x="611" y="554" type="line"/>
    </contour>
    <contour>
      <point x="318" y="445" type="curve" smooth="yes"/>
      <point x="413" y="445"/>
      <point x="478" y="376"/>
      <point x="478" y="275" type="curve" smooth="yes"/>
      <point x="478" y="175"/>
      <point x="415" y="109"/>
      <point x="320" y="109" type="curve" smooth="yes"/>
      <point x="225" y="109"/>
      <point x="164" y="174"/>
      <point x="164" y="275" type="curve" smooth="yes"/>
      <point x="164" y="377"/>
      <point x="225" y="445"/>
    </contour>
    <contour>
      <point x="164" y="769" type="line"/>
      <point x="170" y="681"/>
      <point x="231" y="630"/>
      <point x="330" y="630" type="curve" smooth="yes"/>
      <point x="425" y="630"/>
      <point x="491" y="686"/>
      <point x="494" y="769" type="curve"/>
      <point x="392" y="769" type="line"/>
      <point x="387" y="741"/>
      <point x="365" y="726"/>
      <point x="330" y="726" type="curve" smooth="yes"/>
      <point x="297" y="726"/>
      <point x="274" y="740"/>
      <point x="262" y="769" type="curve"/>
    </contour>
  </outline>
</glyph>
<glyph name="Gcommaaccent" format="1">
  <advance width="840"/>
  <unicode hex="0122"/>
  <outline>
    <contour>
      <point x="335" y="249" type="line"/>
      <point x="641" y="249" type="line"/>
      <point x="601" y="167"/>
      <point x="521" y="119"/>
      <point x="424" y="119" type="curve" smooth="yes"/>
      <point x="279" y="119"/>
      <point x="168" y="228"/>
      <point x="168" y="369" type="curve" smooth="yes"/>
      <point x="168" y="433"/>
      <point x="195" y="503"/>
      <point x="237" y="547" type="curve" smooth="yes"/>
      <point x="280" y="594"/>
      <point x="345" y="620"/>
      <point x="416" y="620" type="curve" smooth="yes"/>
      <point x="502" y="620"/>
      <point x="573" y="586"/>
      <point x="619" y="522" type="curve"/>
      <point x="780" y="522" type="line"/>
      <point x="732" y="655"/>
      <point x="580" y="752"/>
      <point x="419" y="752" type="curve" smooth="yes"/>
      <point x="203" y="752"/>
      <point x="30" y="583"/>
      <point x="30" y="371" type="curve" smooth="yes"/>
      <point x="30" y="155"/>
      <point x="205" y="-13"/>
      <point x="432" y="-13" type="curve" smooth="yes"/>
      <point x="543" y="-13"/>
      <point x="639" y="26"/>
      <point x="712" y="101" type="curve" smooth="yes"/>
      <point x="780" y="172"/>
      <point x="818" y="264"/>
      <point x="818" y="359" type="curve" smooth="yes"/>
      <point x="818" y="377" type="line"/>
      <point x="335" y="377" type="line"/>
    </contour>
    <contour>
      <point x="316" y="-245" type="line"/>
      <point x="420" y="-245" type="line"/>
      <point x="478" y="-53" type="line"/>
      <point x="374" y="-53" type="line"/>
    </contour>
  </outline>
</glyph>
<glyph name="Hbar" format="1">
  <advance width="680"/>
  <unicode hex="0126"/>
  <outline>
    <contour>
      <point x="606" y="549" type="line"/>
      <point x="672" y="549" type="line"/>
      <point x="672" y="649" type="line"/>
      <point x="606" y="649" type="line"/>
      <point x="606" y="739" type="line"/>
      <point x="469" y="739" type="line"/>
      <point x="469" y="649" type="line"/>
      <point x="205" y="649" type="line"/>
      <point x="205" y="739" type="line"/>
      <point x="68" y="739" type="line"/>
      <point x="68" y="649" type="line"/>
      <point x="8" y="649" type="line"/>
      <point x="8" y="549" type="line"/>
      <point x="68" y="549" type="line"/>
      <point x="68" y="0" type="line"/>
      <point x="205" y="0" type="line"/>
      <point x="205" y="310" type="line"/>
      <point x="469" y="310" type="line"/>
      <point x="469" y="0" type="line"/>
      <point x="606" y="0" type="line"/>
    </contour>
    <contour>
      <point x="469" y="549" type="line"/>
      <point x="469" y="441" type="line"/>
      <point x="205" y="441" type="line"/>
      <point x="205" y="549" type="line"/>
    </contour>
  </outline>
</glyph>
<glyph name="hbar" format="1">
  <advance width="600"/>
  <unicode hex="0127"/>
  <outline>
    <contour>
      <point x="187" y="602" type="line"/>
      <point x="261" y="602" type="line"/>
      <point x="261" y="702" type="line"/>
      <point x="186" y="702" type="line"/>
      <point x="186" y="739" type="line"/>
      <point x="53" y="739" type="line"/>
      <point x="53" y="702" type="line"/>
      <point x="-17" y="702" type="line"/>
      <point x="-17" y="602" type="line"/>
      <point x="53" y="602" type="line"/>
      <point x="53" y="0" type="line"/>
      <point x="186" y="0" type="line"/>
      <point x="186" y="281" type="line" smooth="yes"/>
      <point x="186" y="336"/>
      <point x="191" y="367"/>
      <point x="205" y="392" type="curve" smooth="yes"/>
      <point x="224" y="426"/>
      <point x="259" y="445"/>
      <point x="303" y="445" type="curve" smooth="yes"/>
      <point x="381" y="445"/>
      <point x="411" y="399"/>
      <point x="411" y="283" type="curve" smooth="yes"/>
      <point x="411" y="0" type="line"/>
      <point x="544" y="0" type="line"/>
      <point x="544" y="313" type="line" smooth="yes"/>
      <point x="544" y="394"/>
      <point x="534" y="439"/>
      <point x="507" y="480" type="curve" smooth="yes"/>
      <point x="470" y="537"/>
      <point x="406" y="568"/>
      <point x="327" y="568" type="curve" smooth="yes"/>
      <point x="270" y="568"/>
      <point x="226" y="552"/>
      <point x="186" y="516" type="curve"/>
      <point x="186" y="602" type="line"/>
    </contour>
  </outline>
</glyph>
<glyph name="Imacron" format="1">
  <advance width="280"/>
  <unicode hex="012A"/>
  <outline>
    <contour>
      <point x="68" y="0" type="line"/>
      <point x="205" y="0" type="line"/>
      <point x="205" y="739" type="line"/>
      <point x="68" y="739" type="line"/>
    </contour>
    <contour>
      <point x="4" y="823" type="line"/>
      <point x="281" y="823" type="line"/>
      <point x="281" y="923" type="line"/>
      <point x="4" y="923" type="line"/>
    </contour>
  </outline>
</glyph>
<glyph name="imacron" format="1">
  <advance width="240"/>
  <unicode hex="012B"/>
  <outline>
    <contour>
      <point x="54" y="0" type="line"/>
      <point x="187" y="0" type="line"/>
      <point x="187" y="554" type="line"/>
      <point x="54" y="554" type="line"/>
    </contour>
    <contour>
      <point x="-16" y="648" type="line"/>
      <point x="261" y="648" type="line"/>
      <point x="261" y="748" type="line"/>
      <point x="-16" y="748" type="line"/>
    </contour>
  </outline>
</glyph>
<glyph name="Iogonek" format="1">
  <advance width="280"/>
  <unicode hex="012E"/>
  <outline>
    <contour>
      <point x="205" y="739" type="line"/>
      <point x="68" y="739" type="line"/>
      <point x="68" y="0" type="line"/>
      <point x="135" y="0" type="line"/>
      <point x="77" y="-27"/>
      <point x="49" y="-62"/>
      <point x="49" y="-105" type="curve" smooth="yes"/>
      <point x="49" y="-164"/>
      <point x="96" y="-204"/>
      <point x="165" y="-204" type="curve" smooth="yes"/>
      <point x="187" y="-204"/>
      <point x="209" y="-199"/>
      <point x="231" y="-190" type="curve"/>
      <point x="231" y="-113" type="line"/>
      <point x="211" y="-121"/>
      <point x="202" y="-123"/>
      <point x="190" y="-123" type="curve" smooth="yes"/>
      <point x="161" y="-123"/>
      <point x="140" y="-105"/>
      <point x="140" y="-81" type="curve" smooth="yes"/>
      <point x="140" y="-54"/>
      <point x="154" y="-37"/>
      <point x="205" y="0" type="curve"/>
    </contour>
  </outline>
</glyph>
<glyph name="iogonek" format="1">
  <advance width="240"/>
  <unicode hex="012F"/>
  <outline>
    <contour>
      <point x="187" y="554" type="line"/>
      <point x="54" y="554" type="line"/>
      <point x="54" y="0" type="line"/>
      <point x="117" y="0" type="line"/>
      <point x="59" y="-27"/>
      <point x="31" y="-62"/>
      <point x="31" y="-105" type="curve" smooth="yes"/>
      <point x="31" y="-164"/>
      <point x="78" y="-204"/>
      <point x="147" y="-204" type="curve" smooth="yes"/>
      <point x="169" y="-204"/>
      <point x="191" y="-199"/>
      <point x="213" y="-190" type="curve"/>
      <point x="213" y="-113" type="line"/>
      <point x="193" y="-121"/>
      <point x="184" y="-123"/>
      <point x="172" y="-123" type="curve" smooth="yes"/>
      <point x="143" y="-123"/>
      <point x="122" y="-105"/>
      <point x="122" y="-81" type="curve" smooth="yes"/>
      <point x="122" y="-54"/>
      <point x="136" y="-37"/>
      <point x="187" y="0" type="curve"/>
    </contour>
    <contour>
      <point x="54" y="614" type="line"/>
      <point x="187" y="614" type="line"/>
      <point x="187" y="739" type="line"/>
      <point x="54" y="739" type="line"/>
    </contour>
  </outline>
</glyph>
<glyph name="Idotaccent" format="1">
  <advance width="280"/>
  <unicode hex="0130"/>
  <outline>
    <contour>
      <point x="68" y="0" type="line"/>
      <point x="205" y="0" type="line"/>
      <point x="205" y="739" type="line"/>
      <point x="68" y="739" type="line"/>
    </contour>
    <contour>
      <point x="74" y="805" type="line"/>
      <point x="207" y="805" type="line"/>
      <point x="207" y="938" type="line"/>
      <point x="74" y="938" type="line"/>
    </contour>
  </outline>
</glyph>
<glyph name="IJ" format="1">
  <advance width="762"/>
  <unicode hex="0132"/>
  <outline>
    <contour>
      <point x="550" y="739" type="line"/>
      <point x="550" y="216" type="line" smooth="yes"/>
      <point x="550" y="151"/>
      <point x="528" y="119"/>
      <point x="484" y="119" type="curve" smooth="yes"/>
      <point x="450" y="119"/>
      <point x="428" y="138"/>
      <point x="419" y="175" type="curve"/>
      <point x="282" y="175" type="line"/>
      <point x="288" y="117"/>
      <point x="299" y="87"/>
      <point x="329" y="54" type="curve" smooth="yes"/>
      <point x="367" y="12"/>
      <point x="425" y="-13"/>
      <point x="487" y="-13" type="curve" smooth="yes"/>
      <point x="611" y="-13"/>
      <point x="687" y="73"/>
      <point x="687" y="212" type="curve" smooth="yes"/>
      <point x="687" y="739" type="line"/>
    </contour>
    <contour>
      <point x="68" y="0" type="line"/>
      <point x="205" y="0" type="line"/>
      <point x="205" y="739" type="line"/>
      <point x="68" y="739" type="line"/>
    </contour>
  </outline>
</glyph>
<glyph name="ij" format="1">
  <advance width="436"/>
  <unicode hex="0133"/>
  <outline>
    <contour>
      <point x="250" y="554" type="line"/>
      <point x="250" y="40" type="line" smooth="yes"/>
      <point x="250" y="-38"/>
      <point x="245" y="-47"/>
      <point x="195" y="-56" type="curve"/>
      <point x="195" y="-185" type="line"/>
      <point x="246" y="-185"/>
      <point x="291" y="-168"/>
      <point x="324" y="-137" type="curve" smooth="yes"/>
      <point x="365" y="-99"/>
      <point x="383" y="-46"/>
      <point x="383" y="37" type="curve" smooth="yes"/>
      <point x="383" y="554" type="line"/>
    </contour>
    <contour>
      <point x="250" y="614" type="line"/>
      <point x="383" y="614" type="line"/>
      <point x="383" y="739" type="line"/>
      <point x="250" y="739" type="line"/>
    </contour>
    <contour>
      <point x="54" y="0" type="line"/>
      <point x="187" y="0" type="line"/>
      <point x="187" y="554" type="line"/>
      <point x="54" y="554" type="line"/>
    </contour>
    <contour>
      <point x="54" y="614" type="line"/>
      <point x="187" y="614" type="line"/>
      <point x="187" y="739" type="line"/>
      <point x="54" y="739" type="line"/>
    </contour>
  </outline>
</glyph>
<glyph name="jcircumflex" format="1">
  <advance width="260"/>
  <unicode hex="0135"/>
  <outline>
    <contour>
      <point x="72" y="554" type="line"/>
      <point x="72" y="40" type="line" smooth="yes"/>
      <point x="72" y="-38"/>
      <point x="67" y="-47"/>
      <point x="17" y="-56" type="curve"/>
      <point x="17" y="-185" type="line"/>
      <point x="68" y="-185"/>
      <point x="113" y="-168"/>
      <point x="146" y="-137" type="curve" smooth="yes"/>
      <point x="187" y="-99"/>
      <point x="205" y="-46"/>
      <point x="205" y="37" type="curve" smooth="yes"/>
      <point x="205" y="554" type="line"/>
    </contour>
    <contour>
      <point x="-61" y="667" type="line"/>
      <point x="86" y="667" type="line"/>
      <point x="140" y="731" type="line"/>
      <point x="193" y="667" type="line"/>
      <point x="338" y="667" type="line"/>
      <point x="193" y="805" type="line"/>
      <point x="86" y="805" type="line"/>
    </contour>
  </outline>
</glyph>
<glyph name="Kcommaaccent" format="1">
  <advance width="620"/>
  <unicode hex="0136"/>
  <outline>
    <contour>
      <point x="68" y="0" type="line"/>
      <point x="205" y="0" type="line"/>
      <point x="205" y="325" type="line"/>
      <point x="434" y="0" type="line"/>
      <point x="599" y="0" type="line"/>
      <point x="321" y="376" type="line"/>
      <point x="599" y="739" type="line"/>
      <point x="434" y="739" type="line"/>
      <point x="205" y="420" type="line"/>
      <point x="205" y="739" type="line"/>
      <point x="68" y="739" type="line"/>
    </contour>
    <contour>
      <point x="206" y="-245" type="line"/>
      <point x="310" y="-245" type="line"/>
      <point x="368" y="-53" type="line"/>
      <point x="264" y="-53" type="line"/>
    </contour>
  </outline>
</glyph>
<glyph name="kcommaaccent" format="1">
  <advance width="580"/>
  <unicode hex="0137"/>
  <outline>
    <contour>
      <point x="54" y="0" type="line"/>
      <point x="187" y="0" type="line"/>
      <point x="187" y="259" type="line"/>
      <point x="376" y="0" type="line"/>
      <point x="555" y="0" type="line"/>
      <point x="325" y="283" type="line"/>
      <point x="523" y="554" type="line"/>
      <point x="364" y="554" type="line"/>
      <point x="187" y="293" type="line"/>
      <point x="187" y="739" type="line"/>
      <point x="54" y="739" type="line"/>
    </contour>
    <contour>
      <point x="186" y="-245" type="line"/>
      <point x="290" y="-245" type="line"/>
      <point x="348" y="-53" type="line"/>
      <point x="244" y="-53" type="line"/>
    </contour>
  </outline>
</glyph>
<glyph name="Lacute" format="1">
  <advance width="440"/>
  <unicode hex="0139"/>
  <outline>
    <contour>
      <point x="68" y="0" type="line"/>
      <point x="431" y="0" type="line"/>
      <point x="431" y="131" type="line"/>
      <point x="205" y="131" type="line"/>
      <point x="205" y="739" type="line"/>
      <point x="68" y="739" type="line"/>
    </contour>
    <contour>
      <point x="135" y="788" type="line"/>
      <point x="362" y="908" type="line"/>
      <point x="308" y="1000" type="line"/>
      <point x="84" y="866" type="line"/>
    </contour>
  </outline>
</glyph>
<glyph name="lacute" format="1">
  <advance width="240"/>
  <unicode hex="013A"/>
  <outline>
    <contour>
      <point x="54" y="0" type="line"/>
      <point x="187" y="0" type="line"/>
      <point x="187" y="739" type="line"/>
      <point x="54" y="739" type="line"/>
    </contour>
    <contour>
      <point x="35" y="788" type="line"/>
      <point x="262" y="908" type="line"/>
      <point x="208" y="1000" type="line"/>
      <point x="-16" y="866" type="line"/>
    </contour>
  </outline>
</glyph>
<glyph name="Lcommaaccent" format="1">
  <advance width="440"/>
  <unicode hex="013B"/>
  <outline>
    <contour>
      <point x="68" y="0" type="line"/>
      <point x="431" y="0" type="line"/>
      <point x="431" y="131" type="line"/>
      <point x="205" y="131" type="line"/>
      <point x="205" y="739" type="line"/>
      <point x="68" y="739" type="line"/>
    </contour>
    <contour>
      <point x="116" y="-245" type="line"/>
      <point x="220" y="-245" type="line"/>
      <point x="278" y="-53" type="line"/>
      <point x="174" y="-53" type="line"/>
    </contour>
  </outline>
</glyph>
<glyph name="lcommaaccent" format="1">
  <advance width="240"/>
  <unicode hex="013C"/>
  <outline>
    <contour>
      <point x="54" y="0" type="line"/>
      <point x="187" y="0" type="line"/>
      <point x="187" y="739" type="line"/>
      <point x="54" y="739" type="line"/>
    </contour>
    <contour>
      <point x="16" y="-245" type="line"/>
      <point x="120" y="-245" type="line"/>
      <point x="178" y="-53" type="line"/>
      <point x="74" y="-53" type="line"/>
    </contour>
  </outline>
</glyph>
<glyph name="Lcaron" format="1">
  <advance width="440"/>
  <unicode hex="013D"/>
  <outline>
    <contour>
      <point x="68" y="0" type="line"/>
      <point x="431" y="0" type="line"/>
      <point x="431" y="131" type="line"/>
      <point x="205" y="131" type="line"/>
      <point x="205" y="739" type="line"/>
      <point x="68" y="739" type="line"/>
    </contour>
    <contour>
      <point x="278" y="547" type="line"/>
      <point x="382" y="547" type="line"/>
      <point x="440" y="739" type="line"/>
      <point x="336" y="739" type="line"/>
    </contour>
  </outline>
</glyph>
<glyph name="lcaron" format="1">
  <advance width="330"/>
  <unicode hex="013E"/>
  <outline>
    <contour>
      <point x="54" y="0" type="line"/>
      <point x="187" y="0" type="line"/>
      <point x="187" y="739" type="line"/>
      <point x="54" y="739" type="line"/>
    </contour>
    <contour>
      <point x="208" y="547" type="line"/>
      <point x="312" y="547" type="line"/>
      <point x="370" y="739" type="line"/>
      <point x="266" y="739" type="line"/>
    </contour>
  </outline>
</glyph>
<glyph name="ldot" format="1">
  <advance width="520"/>
  <unicode hex="0140"/>
  <outline>
    <contour>
      <point x="312" y="300" type="line"/>
      <point x="445" y="300" type="line"/>
      <point x="445" y="433" type="line"/>
      <point x="312" y="433" type="line"/>
    </contour>
    <contour>
      <point x="54" y="0" type="line"/>
      <point x="187" y="0" type="line"/>
      <point x="187" y="739" type="line"/>
      <point x="54" y="739" type="line"/>
    </contour>
  </outline>
</glyph>
<glyph name="Lslash" format="1">
  <advance width="480"/>
  <unicode hex="0141"/>
  <outline>
    <contour>
      <point x="110" y="0" type="line"/>
      <point x="473" y="0" type="line"/>
      <point x="473" y="128" type="line"/>
      <point x="247" y="128" type="line"/>
      <point x="247" y="350" type="line"/>
      <point x="389" y="461" type="line"/>
      <point x="389" y="584" type="line"/>
      <point x="247" y="474" type="line"/>
      <point x="247" y="739" type="line"/>
      <point x="110" y="739" type="line"/>
      <point x="110" y="397" type="line"/>
      <point x="14" y="318" type="line"/>
      <point x="14" y="194" type="line"/>
      <point x="110" y="273" type="line"/>
    </contour>
  </outline>
</glyph>
<glyph name="lslash" format="1">
  <advance width="320"/>
  <unicode hex="0142"/>
  <outline>
    <contour>
      <point x="98" y="0" type="line"/>
      <point x="231" y="0" type="line"/>
      <point x="231" y="383" type="line"/>
      <point x="312" y="446" type="line"/>
      <point x="312" y="545" type="line"/>
      <point x="231" y="482" type="line"/>
      <point x="231" y="739" type="line"/>
      <point x="98" y="739" type="line"/>
      <point x="98" y="417" type="line"/>
      <point x="17" y="354" type="line"/>
      <point x="17" y="255" type="line"/>
      <point x="98" y="317" type="line"/>
    </contour>
  </outline>
</glyph>
<glyph name="Nacute" format="1">
  <advance width="740"/>
  <unicode hex="0143"/>
  <outline>
    <contour>
      <point x="68" y="0" type="line"/>
      <point x="205" y="0" type="line"/>
      <point x="205" y="537" type="line"/>
      <point x="514" y="0" type="line"/>
      <point x="667" y="0" type="line"/>
      <point x="667" y="739" type="line"/>
      <point x="530" y="739" type="line"/>
      <point x="530" y="201" type="line"/>
      <point x="224" y="739" type="line"/>
      <point x="68" y="739" type="line"/>
    </contour>
    <contour>
      <point x="285" y="788" type="line"/>
      <point x="512" y="908" type="line"/>
      <point x="458" y="1000" type="line"/>
      <point x="234" y="866" type="line"/>
    </contour>
  </outline>
</glyph>
<glyph name="Ncommaaccent" format="1">
  <advance width="740"/>
  <unicode hex="0145"/>
  <outline>
    <contour>
      <point x="68" y="0" type="line"/>
      <point x="205" y="0" type="line"/>
      <point x="205" y="537" type="line"/>
      <point x="514" y="0" type="line"/>
      <point x="667" y="0" type="line"/>
      <point x="667" y="739" type="line"/>
      <point x="530" y="739" type="line"/>
      <point x="530" y="201" type="line"/>
      <point x="224" y="739" type="line"/>
      <point x="68" y="739" type="line"/>
    </contour>
    <contour>
      <point x="266" y="-245" type="line"/>
      <point x="370" y="-245" type="line"/>
      <point x="428" y="-53" type="line"/>
      <point x="324" y="-53" type="line"/>
    </contour>
  </outline>
</glyph>
<glyph name="Ncaron" format="1">
  <advance width="740"/>
  <unicode hex="0147"/>
  <outline>
    <contour>
      <point x="68" y="0" type="line"/>
      <point x="205" y="0" type="line"/>
      <point x="205" y="537" type="line"/>
      <point x="514" y="0" type="line"/>
      <point x="667" y="0" type="line"/>
      <point x="667" y="739" type="line"/>
      <point x="530" y="739" type="line"/>
      <point x="530" y="201" type="line"/>
      <point x="224" y="739" type="line"/>
      <point x="68" y="739" type="line"/>
    </contour>
    <contour>
      <point x="174" y="943" type="line"/>
      <point x="321" y="805" type="line"/>
      <point x="428" y="805" type="line"/>
      <point x="573" y="943" type="line"/>
      <point x="428" y="943" type="line"/>
      <point x="375" y="879" type="line"/>
      <point x="321" y="943" type="line"/>
    </contour>
  </outline>
</glyph>
<glyph name="Eng" format="1">
  <advance width="740"/>
  <unicode hex="014A"/>
  <outline>
    <contour>
      <point x="68" y="0" type="line"/>
      <point x="205" y="0" type="line"/>
      <point x="205" y="537" type="line"/>
      <point x="514" y="0" type="line"/>
      <point x="667" y="0" type="line"/>
      <point x="667" y="739" type="line"/>
      <point x="530" y="739" type="line"/>
      <point x="530" y="201" type="line"/>
      <point x="224" y="739" type="line"/>
      <point x="68" y="739" type="line"/>
    </contour>
  </outline>
</glyph>
